<?xml version="1.0" encoding="UTF-8"?>
<svg width="1200pt" height="1200pt" version="1.1" viewBox="0 0 1200 1200" xmlns="http://www.w3.org/2000/svg">
 <path d="m931.6 347.39c0-26.062-21.328-47.391-47.391-47.391h-2.8594c1.875-4.875 2.8594-10.266 2.8594-15.797v-94.734c0-5.5312-0.9375-10.875-2.8594-15.797h2.8594c26.062 0 47.391-21.328 47.391-47.391s-21.328-47.391-47.391-47.391l-647.34 0.046875c-87 0-157.87 70.875-157.87 157.87 0 51.609 24.938 97.594 63.328 126.32h-15.938c-26.062 0-47.391 21.328-47.391 47.391s21.328 47.391 47.391 47.391h2.8594c-1.875 4.875-2.8594 10.266-2.8594 15.797v94.734c0 5.5312 0.9375 10.875 2.8594 15.797h-2.8594c-26.062 0-47.391 21.328-47.391 47.391s21.328 47.391 47.391 47.391h15.938c-38.391 28.734-63.328 74.672-63.328 126.32 0 87 70.875 157.87 157.87 157.87h316.26l15.141-31.594-331.4-0.046875c-69.609 0-126.32-56.672-126.32-126.32 0-69.609 56.672-126.32 126.32-126.32h452.06l3.9375-8.3906c4.2656-9 10.125-16.734 16.875-23.203l-583.4 0.046875c-8.6719 0-15.797-7.125-15.797-15.797s7.125-15.797 15.797-15.797h647.39c52.266 0 94.734-42.469 94.734-94.734s-42.469-94.734-94.734-94.734h-647.39c-8.6719 0-15.797-7.125-15.797-15.797s7.125-15.797 15.797-15.797h647.39c69.609 0 126.32 56.672 126.32 126.32 0 55.594-36.141 102.94-86.203 119.67l9 4.4062c14.531-18.141 36.797-29.391 61.406-29.391h15.797c19.734-26.391 31.594-59.203 31.594-94.734 0-51.609-24.938-97.594-63.328-126.32h15.938c26.062 0 47.391-21.328 47.391-47.391zm-378.98 221.02h-63.141c-8.6719 0-15.797-7.125-15.797-15.797s7.125-15.797 15.797-15.797h63.141c8.6719 0 15.797 7.125 15.797 15.797s-7.125 15.797-15.797 15.797zm78.984-31.547h126.32c8.6719 0 15.797 7.125 15.797 15.797s-7.125 15.797-15.797 15.797h-126.32c-8.6719 0-15.797-7.125-15.797-15.797s7.125-15.797 15.797-15.797zm-94.734-63.188h15.797c8.6719 0 15.797 7.125 15.797 15.797s-7.125 15.797-15.797 15.797h-15.797c-8.6719 0-15.797-7.125-15.797-15.797s7.125-15.797 15.797-15.797zm-78.984 0h31.594c8.6719 0 15.797 7.125 15.797 15.797s-7.125 15.797-15.797 15.797h-31.594c-8.6719 0-15.797-7.125-15.797-15.797s7.125-15.797 15.797-15.797zm0 78.938c0 8.6719-7.125 15.797-15.797 15.797h-15.797c-8.6719 0-15.797-7.125-15.797-15.797s7.125-15.797 15.797-15.797h15.797c8.6719 0 15.797 7.125 15.797 15.797zm-252.61-78.938h205.26c8.6719 0 15.797 7.125 15.797 15.797s-7.125 15.797-15.797 15.797h-205.26c-8.6719 0-15.797-7.125-15.797-15.797s7.125-15.797 15.797-15.797zm31.594-110.53c-69.609 0-126.32-56.672-126.32-126.32 0-69.609 56.672-126.32 126.32-126.32h647.39c8.6719 0 15.797 7.125 15.797 15.797s-7.125 15.797-15.797 15.797l-647.39 0.046875c-52.266 0-94.734 42.469-94.734 94.734s42.469 94.734 94.734 94.734h647.39c8.6719 0 15.797 7.125 15.797 15.797s-7.125 15.797-15.797 15.797zm347.34-157.87c0-8.6719 7.125-15.797 15.797-15.797h126.32c8.6719 0 15.797 7.125 15.797 15.797s-7.125 15.797-15.797 15.797h-126.32c-8.6719 0-15.797-7.125-15.797-15.797zm15.797 63.141c0 8.6719-7.125 15.797-15.797 15.797h-47.391c-8.6719 0-15.797-7.125-15.797-15.797s7.125-15.797 15.797-15.797h47.391c8.6719 0 15.797 7.125 15.797 15.797zm31.594-15.797h189.47c8.6719 0 15.797 7.125 15.797 15.797s-7.125 15.797-15.797 15.797h-189.47c-8.6719 0-15.797-7.125-15.797-15.797s7.125-15.797 15.797-15.797zm142.08-47.344c0-8.6719 7.125-15.797 15.797-15.797h15.797c8.6719 0 15.797 7.125 15.797 15.797s-7.125 15.797-15.797 15.797h-15.797c-8.6719 0-15.797-7.125-15.797-15.797zm-268.4 31.594c0 8.6719-7.125 15.797-15.797 15.797h-15.797c-8.6719 0-15.797-7.125-15.797-15.797s7.125-15.797 15.797-15.797h15.797c8.6719 0 15.797 7.125 15.797 15.797zm-63.141 0c0 8.6719-7.125 15.797-15.797 15.797h-31.594c-8.6719 0-15.797-7.125-15.797-15.797s7.125-15.797 15.797-15.797h31.594c8.6719 0 15.797 7.125 15.797 15.797zm-94.734 0c0 8.6719-7.125 15.797-15.797 15.797h-94.734c-8.6719 0-15.797-7.125-15.797-15.797s7.125-15.797 15.797-15.797h94.734c8.6719 0 15.797 7.125 15.797 15.797zm-205.26 568.4c0 52.266 42.469 94.734 94.734 94.734h346.4l49.734-104.06c-0.9375-2.0625-1.4062-4.125-1.4062-6.4688 0-7.2656 4.875-13.406 11.672-15.141l30.469-63.797h-436.87c-52.266 0-94.734 42.469-94.734 94.734zm442.08 47.344h-15.797c-8.6719 0-15.797-7.125-15.797-15.797s7.125-15.797 15.797-15.797h15.797c8.6719 0 15.797 7.125 15.797 15.797s-7.125 15.797-15.797 15.797zm-78.938-78.938h78.938c8.6719 0 15.797 7.125 15.797 15.797s-7.125 15.797-15.797 15.797h-78.938c-8.6719 0-15.797-7.125-15.797-15.797s7.125-15.797 15.797-15.797zm-78.938 0h15.797c8.6719 0 15.797 7.125 15.797 15.797s-7.125 15.797-15.797 15.797h-15.797c-8.6719 0-15.797-7.125-15.797-15.797s7.125-15.797 15.797-15.797z"/>
 <path d="m1073.7 647.39h-63.141c-12.141 0-23.203 4.7344-31.594 12.328-8.3906-7.5938-19.406-12.328-31.594-12.328h-63.141c-23.531 0-42.938 17.203-46.594 39.797l-53.203-25.406c-23.531-11.203-51.797-1.2656-63.141 22.406l-163.26 341.86c-5.5312 11.531-6.1406 24.328-1.875 36.328 4.2656 11.859 12.797 21.469 24.141 26.859l57 27.328c6.6094 3.1406 13.594 4.5938 20.391 4.5938 17.672 0 34.734-9.9375 42.797-27l136.4-285.47v265.13c0 26.062 21.328 47.391 47.391 47.391h63.141c12.141 0 23.203-4.7344 31.594-12.328 8.3906 7.5938 19.406 12.328 31.594 12.328h63.141c26.062 0 47.391-21.328 47.391-47.391v-378.94c0-26.062-21.328-47.391-47.391-47.391zm-110.53 426.28c0 8.6719-7.125 15.797-15.797 15.797h-63.141c-8.6719 0-15.797-7.125-15.797-15.797v-378.94c0-8.6719 7.125-15.797 15.797-15.797h63.141c8.6719 0 15.797 7.125 15.797 15.797z"/>
</svg>
