<?xml version="1.0" encoding="UTF-8"?>
<svg width="1200pt" height="1200pt" version="1.1" viewBox="0 0 1200 1200" xmlns="http://www.w3.org/2000/svg">
 <path d="m303.14 661.18c0-163.69 133.18-296.63 296.86-296.63s296.86 133.03 296.86 296.72c0 69.984-24.328 135.61-64.969 184.82h302.48v-499.4c-0.23438-19.5-16.125-35.156-35.625-35.156h-997.64c-19.453 0-35.297 15.703-35.484 35.156v499.4h302.48c-40.641-49.219-64.969-114.94-64.969-184.92zm587.48-255.71c0-21.984 17.859-39.844 39.844-39.844h112.5c21.984 0 39.844 17.859 39.844 39.844v42.188c0 21.984-17.859 39.844-39.844 39.844h-112.5c-21.984 0-39.844-17.859-39.844-39.844zm-722.26 59.25c-20.578 0-39.094-12.375-46.922-31.359-7.875-18.938-3.5156-40.781 11.016-55.312 14.484-14.531 36.328-18.891 55.312-11.016s31.359 26.391 31.359 46.922c-0.046875 28.031-22.734 50.719-50.766 50.766z"/>
 <path d="m168.37 386.58c-11.062 0-21.047 6.7031-25.266 16.922-4.2656 10.172-1.9219 21.938 5.9062 29.766s19.594 10.172 29.812 5.9531c10.219-4.2656 16.875-14.203 16.875-25.266 0-15.094-12.234-27.328-27.328-27.375z"/>
 <path d="m600 388.18c-72.516 0-142.08 28.781-193.36 80.062-51.281 51.281-80.062 120.84-80.062 193.36s28.781 142.08 80.062 193.36c51.281 51.281 120.84 80.062 193.36 80.062s142.08-28.781 193.36-80.062c51.281-51.281 80.062-120.84 80.062-193.36-0.046875-72.469-28.922-141.98-80.156-193.26-51.281-51.234-120.74-80.062-193.26-80.156zm0 482.02c-55.312 0-108.38-21.984-147.52-61.078-39.094-39.141-61.078-92.203-61.078-147.52s21.984-108.38 61.078-147.52c39.141-39.094 92.203-61.078 147.52-61.078s108.38 21.984 147.52 61.078c39.094 39.141 61.078 92.203 61.078 147.52-0.046875 55.312-22.078 108.33-61.172 147.42-39.094 39.141-92.109 61.125-147.42 61.172z"/>
 <path d="m731.81 193.87h-263.63c-14.438-0.046875-27.469 8.8125-32.719 22.312l-28.266 71.906h385.6l-28.266-71.906c-5.25-13.5-18.281-22.359-32.719-22.312z"/>
 <path d="m600 476.44c-49.125 0-96.188 19.5-130.92 54.234s-54.234 81.797-54.234 130.92 19.5 96.188 54.234 130.92 81.797 54.234 130.92 54.234 96.188-19.5 130.92-54.234 54.234-81.797 54.234-130.92c-0.046875-49.078-19.594-96.141-54.281-130.87-34.734-34.688-81.797-54.234-130.87-54.281zm-114.47 108.14c2.4844-2.4844 5.1094-4.875 7.7812-7.125h0.046875c4.9688-4.125 12.375-3.4688 16.5 1.5 4.1719 4.9688 3.4688 12.375-1.5 16.5-2.1562 1.7812-4.2656 3.7031-6.2344 5.7188h0.046875c-4.5938 4.5469-12 4.5938-16.594 0-4.5938-4.5469-4.5938-12-0.046875-16.547zm36.562 175.36v0.046875c-3.4219 5.4844-10.688 7.125-16.125 3.7031-45.797-28.734-65.484-85.359-47.438-136.31 1.0312-2.9531 3.1875-5.3906 6-6.75s6.0938-1.5469 9.0469-0.51562c2.9531 1.0781 5.3438 3.2812 6.6562 6.0938 1.3594 2.8594 1.5 6.0938 0.375 9.0469-14.344 40.547 1.3594 85.688 37.781 108.56 5.4844 3.4688 7.1719 10.688 3.7031 16.172z"/>
 <path d="m162.52 253.13c-1.3125 0-3.1406 0.9375-3.1406 2.2031v32.953h131.26v-32.953c0-1.3125-1.8281-2.2031-3.1406-2.2031z"/>
 <path d="m101.44 1005.5h997.13c19.406 0 35.812-15.094 35.812-34.5v-101.44h-323.34c-53.859 56.25-128.58 88.266-211.03 88.266-82.453 0-157.18-32.016-211.03-88.266h-323.34v101.44c0 19.406 16.406 34.5 35.812 34.5z"/>
 <path d="m930.47 389.06h112.5c9.0469 0 16.406 9.0469 16.406 16.406v42.188c0 9.0469-7.3594 16.406-16.406 16.406h-112.5c-9.0469 0-16.406-9.0469-16.406-16.406v-42.188c0-9.0469 7.3594-16.406 16.406-16.406z"/>
</svg>
