<?xml version="1.0" encoding="UTF-8"?>
<svg width="1200pt" height="1200pt" version="1.1" viewBox="0 0 1200 1200" xmlns="http://www.w3.org/2000/svg">
 <path d="m599.68 476.63c111.75-0.046875 223.5-5.7656 335.29-17.062-2.1562-5.6719-4.5-12.188-7.0312-19.172-21-58.125-54.094-149.72-112.97-153.79-43.781-3.0469-121.97-4.2656-202.03-4.0781-87.422 0.1875-177.14 2.0625-226.64 5.0156-63.188 3.7969-95.391 95.859-116.16 155.29-2.0625 5.9062-4.0312 11.484-5.9062 16.734 111.84 11.484 223.64 17.109 335.44 17.062zm335.29-15.562 18.516-43.125 0.79688-0.375c20.203-9.9844 37.781-18.656 59.297-20.812 1.7812-0.1875 4.1719 0.9375 6.9375 3 6.5156 4.9219 14.25 14.812 20.578 25.594s11.203 22.359 12.047 30.609c0.32812 3.4688 0 6.2344-1.3125 7.9219-11.766 15.609-85.172 4.3125-113.25-0.046875l-2.625-0.42188c-0.32812-0.79688-0.60938-1.5938-0.9375-2.4375zm-672.56 1.4062c0.375-1.0781 0.79688-2.1562 1.1719-3.2344l-18-41.953-1.4531-0.70312c-19.734-9.75-36.656-18.141-57.703-20.203-1.7812-0.1875-4.2188 0.9375-6.9375 3.0469-6.5156 4.9219-14.25 14.719-20.578 25.406s-11.203 22.125-12 30.281c-0.32812 3.375 0.046875 6.0938 1.2656 7.7344 11.672 15.469 84.375 4.2656 112.22-0.046875zm143.16 362.11c3.0469-0.28125 6-0.42188 8.9062-0.42188h370.78c4.4062 0 9 0.375 13.781 0.98438-0.98438-10.594-6.375-20.203-14.531-27.375-9.2344-8.1094-21.984-13.172-36.047-13.172h-292.36c-14.109 0-26.859 5.0625-36.047 13.172-8.0156 7.0781-13.312 16.453-14.438 26.859zm-281.81-18.141v92.672c0 4.9219 2.4375 9.4219 6.375 12.75 4.1719 3.5156 9.9375 5.6719 16.312 5.6719h104.02c6.4219 0 12.188-2.1562 16.359-5.6719 3.9375-3.3281 6.375-7.8281 6.375-12.75v-47.062c-33.281 0.32812-73.734-2.7656-123.98-12.375-6.1875-1.1719-11.578-4.125-15.703-8.3438s-6.9844-9.7031-8.1562-15.984c-0.51562-2.9531-1.0781-5.9062-1.5469-8.8594zm0.32813-95.953c-0.23438-7.5469-0.32813-15.094-0.28125-22.688 0.14062-43.125 4.3594-87.562 13.125-133.5 0.42187-2.1094 1.0312-3.9844 1.9219-5.7188 0.89063-1.7344 2.0625-3.2812 3.5156-4.8281 24.375-25.125 59.625-44.156 92.484-61.922 8.0156-4.3125 15.891-8.5781 23.719-12.984 113.67 11.812 227.39 17.625 341.16 17.578 113.86-0.046876 227.72-5.9531 341.48-17.625 7.8281 4.4062 15.703 8.6719 23.766 13.031 32.859 17.766 68.109 36.797 92.484 61.922 1.4531 1.5 2.625 3.0938 3.5156 4.8281 0.89062 1.7344 1.5469 3.6094 1.9219 5.7188 8.8125 45.938 12.984 90.375 13.125 133.5 0.14062 43.172-3.7969 85.078-11.203 125.86-0.79688 4.2656-2.7188 8.0156-5.4844 10.828s-6.375 4.7812-10.547 5.5781c-115.88 22.172-178.92 9.0938-221.29 0.28125-6.5625-1.3594-12.703-2.625-18.422-3.6562-0.60938-14.156-7.3594-26.906-17.953-36.281-10.969-9.6562-26.016-15.656-42.562-15.656h-292.36c-16.547 0-31.594 6-42.562 15.656-10.406 9.1875-17.109 21.656-17.953 35.438-7.125 1.125-14.812 2.7188-23.25 4.5-42.375 8.8125-105.42 21.891-221.29-0.28125-4.1719-0.79688-7.7812-2.7656-10.547-5.5781-2.7656-2.8594-4.7344-6.5625-5.4844-10.828-6.0469-33.281-9.7969-67.266-10.875-102.09 0.046874-0.375 0-0.70312-0.046876-1.0312zm763.22-84.609c2.6719 3.8906 6.2344 6.8438 10.312 8.6719 4.0781 1.8281 8.625 2.4844 13.312 1.8281l97.219-13.406c5.4375-0.75 10.266-3.1875 13.922-6.75 3.6562-3.6094 6.1406-8.3438 6.9844-13.781l3.9844-25.734c0.75-4.7812 0.14062-9.375-1.6406-13.5s-4.7344-7.7344-8.6719-10.453l-8.0156-5.5312c-3.4688-2.3906-7.2656-3.7969-11.156-4.2656-3.8906-0.42188-7.875 0.09375-11.812 1.6406l-97.359 38.625c-3.5625 1.4062-6.6094 3.4688-9.0469 6.1406-2.4375 2.625-4.2656 5.8125-5.3906 9.4688s-1.4062 7.3125-0.89062 10.875 1.875 6.9844 4.0781 10.125l4.125 6.0469zm-565.18-4.4531c2.1562-3.1875 3.5156-6.6094 4.0781-10.125 0.51562-3.5156 0.23437-7.2188-0.89063-10.875s-2.9531-6.8438-5.3906-9.4688-5.4844-4.6875-9.0469-6.1406l-97.359-38.625c-3.8906-1.5469-7.9219-2.1094-11.812-1.6406-3.9375 0.42187-7.6875 1.875-11.156 4.2656l-8.0156 5.5312c-3.9375 2.7188-6.8906 6.3281-8.6719 10.453s-2.3438 8.7188-1.6406 13.5l3.9844 25.734c0.84375 5.4375 3.3281 10.172 6.9844 13.781 3.6562 3.6094 8.4844 6 13.922 6.75l97.219 13.406c4.6875 0.65625 9.2344 0 13.312-1.8281 4.0781-1.8281 7.6406-4.7344 10.312-8.6719l4.125-6.0469zm-51.984 132.71c-0.79688-3.6094-2.6719-6.75-5.25-9.0938-2.5781-2.3438-5.8594-3.9375-9.5156-4.4062l-52.875-6.9844c-2.8125-0.375-5.4844-0.09375-7.9688 0.75-2.4844 0.84375-4.7812 2.2969-6.75 4.3125s-3.375 4.3125-4.2188 6.8438-1.0312 5.2031-0.65625 7.9688l2.2969 15.703c0.5625 3.6562 2.25 6.9375 4.6406 9.4219 2.4844 2.5781 5.7188 4.3594 9.4688 5.0156l49.359 9.0469c2.7188 0.51562 5.3438 0.375 7.8281-0.28125 2.5312-0.70312 4.8281-1.9688 6.8906-3.75l0.23437-0.23438 4.0781-3.6094c2.4844-2.1562 4.2188-4.8281 5.1562-7.7344s1.0781-6.0938 0.375-9.2812l-3.0938-13.781zm806.11 50.719c-0.5625 3.5156-1.2188 7.0312-1.8281 10.5-1.125 6.2812-4.0312 11.766-8.1562 15.984s-9.5156 7.1719-15.703 8.3438c-50.109 9.5625-90.516 12.703-123.71 12.375v44.672c0 4.9219 2.4375 9.4219 6.375 12.75 4.1719 3.5156 9.9375 5.6719 16.359 5.6719h104.02c6.4219 0 12.188-2.1562 16.359-5.6719 3.9375-3.3281 6.375-7.8281 6.375-12.75v-91.922zm-154.18-31.641c-0.70313 3.1875-0.5625 6.3281 0.375 9.2812 0.9375 2.9062 2.6719 5.5781 5.1562 7.7344l4.3594 3.8438c2.0625 1.8281 4.3594 3.0469 6.8438 3.75 2.4844 0.70312 5.1562 0.79688 7.8281 0.28125l49.359-9.0469c3.75-0.70312 6.9844-2.4844 9.4688-5.0156 2.4844-2.5781 4.125-5.9062 4.6875-9.6562l2.25-15.516c0.42188-2.7656 0.1875-5.4844-0.65625-7.9688-0.84375-2.5312-2.25-4.8281-4.2188-6.8438s-4.2656-3.4688-6.75-4.3125c-2.4844-0.84375-5.1562-1.125-7.9688-0.75l-52.875 6.9844c-3.7031 0.46875-6.9844 2.0625-9.5156 4.4062-2.5781 2.3438-4.4062 5.4844-5.25 9.0938l-3.0938 13.781zm-319.78-62.344c73.266-0.09375 146.44-2.625 219.52-7.5 8.7188-0.5625 16.641-4.2188 22.359-9.9375 5.5781-5.625 9.0938-13.172 9.0938-21.797v-29.859c0-0.28125 0-0.79688-0.046875-1.5v-0.14062c-0.42188-8.1094-3.8906-15.609-9.2812-21.047-5.4844-5.5781-12.984-9.0938-21.234-9.0938-0.23438 0-0.70312 0-1.3594 0.046875-73.078 3.375-146.06 5.2031-219 5.25s-145.92-1.6406-219-5.25c-0.65625-0.046875-1.125-0.046875-1.4062-0.046875-8.25 0-15.703 3.5156-21.188 9.0469-5.3906 5.4844-8.9062 12.984-9.2812 21.141-0.046875 0.70312-0.046875 1.2188-0.046875 1.5469v29.859c0 8.625 3.4688 16.172 9.0469 21.75 5.7188 5.7188 13.641 9.3281 22.359 9.9375 73.078 5.1562 146.26 7.5469 219.56 7.5zm-218.9-17.25c73.078 5.1562 146.02 7.5469 218.9 7.5 72.844-0.09375 145.82-2.625 218.9-7.5 6.2812-0.42188 11.953-3 16.031-7.0781 3.8438-3.8438 6.1875-9 6.1875-14.859v-30.938c-0.28125-5.6719-2.7188-10.875-6.4688-14.719-3.7031-3.75-8.7188-6.1406-14.297-6.1406h-0.9375c-73.078 3.375-146.21 5.2031-219.42 5.25-73.219 0.046875-146.39-1.6406-219.47-5.25h-0.98438c-5.4844 0-10.5 2.3438-14.203 6.0938-3.7969 3.8438-6.2344 9.0938-6.5156 14.719v30.938c0 5.8594 2.3438 11.016 6.1875 14.812 4.0781 4.0781 9.75 6.6562 16.031 7.125z" fill-rule="evenodd"/>
</svg>
