<?xml version="1.0" encoding="UTF-8"?>
<svg width="1200pt" height="1200pt" version="1.1" viewBox="0 0 1200 1200" xmlns="http://www.w3.org/2000/svg">
 <path d="m567.37 157.22c6.8438 3.1406 15.141 0.14062 18.234-6.7031 5.5312-12.141 18.141-18.703 30.375-15.844 11.625 2.8594 20.391 14.156 20.625 26.766 0.375 13.547-9.375 26.297-22.781 29.297-7.7812 1.7812-13.453 8.625-13.453 16.922v25.078c8.3906-4.4531 18.469-3.9375 26.625 0.84375l0.84375 0.60938v-18.938c22.219-8.5312 36.938-30.234 36.375-54.469-0.70312-25.219-17.766-46.922-41.625-52.688-24.844-6-50.859 6.8438-61.922 30.938-3.1406 6.75-0.14062 14.906 6.7031 18.188z"/>
 <path d="m285.61 811.31h210.61c5.625 0 10.922-2.1562 14.859-6.2344 4.2188-4.2188 6.4688-9.7031 6.4688-15.469 0-12-9.6094-21.703-21.375-21.703l-168.24-0.046875h-89.625c-15 0-29.156 6-39.844 16.781s-16.547 25.219-16.547 40.453c0 31.688 25.312 57.375 56.391 57.375h257.86c5.625 0 10.922-2.2969 15-6.375 4.0781-4.2188 6.375-9.7031 6.375-15.609 0-11.766-9.7031-21.703-21.375-21.703h-210.56c-7.5469 0-13.781-6.1406-13.781-13.781 0.09375-7.5469 6.2344-13.688 13.781-13.688z"/>
 <path d="m670.69 684.94c10.922-4.9219 22.781-12.141 33.938-22.781 28.078-27 35.391-61.453 37.219-81.844h-55.453z"/>
 <path d="m611.76 339.14c29.156 0 54.469-17.766 64.781-44.062-1.0781-0.60938-2.1562-0.9375-3.1406-1.5469l-56.625-33.938c-2.3906-1.4531-5.2969-1.4531-7.6875-0.14062l-60 34.312c-0.60938 0.375-1.3125 0.60938-2.0625 0.9375 10.359 26.531 35.578 44.438 64.734 44.438z"/>
 <path d="m926.86 662.16c11.156 10.688 23.062 17.859 33.938 22.781l-15.844-104.62h-55.453c1.9688 20.391 9.4219 54.844 37.359 81.844z"/>
 <path d="m694.69 525.24-4.2188 27.469h250.31l-4.0781-27.375c-0.9375-6-6-10.453-12.141-10.453l-217.87 0.046875c-6 0-11.062 4.4531-12 10.312z"/>
 <path d="m285.61 953.53h210.61c5.625 0 10.922-2.1562 14.859-6.2344 4.2188-4.2188 6.4688-9.7031 6.4688-15.469 0-12-9.6094-21.703-21.375-21.703l-168.24-0.046875h-89.625c-15 0-29.156 6-39.844 16.781s-16.547 25.219-16.547 40.453c0 31.688 25.312 57.375 56.391 57.375h257.86c5.625 0 10.922-2.2969 15-6.375 4.0781-4.2188 6.375-9.7031 6.375-15.609 0-11.766-9.7031-21.703-21.375-21.703h-210.56c-7.5469 0-13.781-6.1406-13.781-13.781-0.046875-7.6875 6.2344-13.688 13.781-13.688z"/>
 <path d="m285.61 669.14h210.61c5.625 0 10.922-2.1562 14.859-6.2344 4.2188-4.2188 6.4688-9.7031 6.4688-15.469 0-12-9.6094-21.703-21.375-21.703l-168.24-0.046875h-89.625c-15 0-29.156 6-39.844 16.781s-16.547 25.219-16.547 40.453c0 31.688 25.312 57.375 56.391 57.375h257.86c5.625 0 10.922-2.2969 15-6.375 4.0781-4.2188 6.375-9.7031 6.375-15.609 0-12-9.6094-21.703-21.375-21.703h-210.56c-7.5469 0-13.781-6.1406-13.781-13.781-0.046875-7.6875 6.2344-13.688 13.781-13.688z"/>
 <path d="m965.53 715.92c-21.844-7.0781-41.625-18.609-57.703-33.938-35.156-33.938-43.922-76.078-45.844-101.62h-92.531c-1.7812 25.547-10.547 67.688-45.844 101.62-16.078 15.469-35.859 27-57.703 33.938l-52.547 347.86c-0.23438 1.7812 0.84375 3.4688 2.625 3.9375l101.06 25.688c2.0625 0.46875 3.9375-0.84375 4.3125-2.7656l55.922-325.45c3.2344-19.078 19.078-32.391 38.391-32.391s35.062 13.312 38.391 32.391l55.547 325.45c0.375 2.0625 2.2969 3.375 4.3125 2.7656l101.53-25.688c1.7812-0.46875 2.8594-2.1562 2.625-3.9375z"/>
 <path d="m639.84 704.53 27.609-183.14c3-19.312 19.781-33.844 39.141-33.844h42.469c1.0781 0 1.9219-0.84375 1.9219-1.9219v-47.297c0-7.5469 6.1406-13.781 13.781-13.781h74.391c2.5312 0 4.6875-2.0625 4.6875-4.6875v-72.375c0-2.1562-1.4531-3.9375-3.4688-4.4531l-137.06-36.703c-0.60938-0.14062-1.0781-0.375-1.5469-0.60938-14.531 36.469-49.688 60.938-90.141 60.938s-75.703-24.703-90.141-61.312c-0.14062 0-0.375 0.14062-0.46875 0.14062l-138.14 37.547c-2.0625 0.60938-3.4688 2.3906-3.4688 4.4531v72.469c0 2.5312 2.0625 4.6875 4.6875 4.6875h76.547c7.5469 0 13.781 6.1406 13.781 13.781v158.06c0 0.9375 0.84375 1.7812 1.7812 1.7812h19.688c26.859 0 48.844 22.078 48.844 49.312 0 13.078-5.0625 25.453-14.297 34.688-0.23438 0.23438-0.60938 0.46875-0.9375 0.70312 6.1406 5.8594 10.688 13.312 13.078 21.703 0.375 1.0781 1.3125 1.9219 2.5312 1.9219h92.297c1.3594-0.14062 2.2969-0.98438 2.4375-2.0625z"/>
</svg>
