<?xml version="1.0" encoding="UTF-8"?>
<svg width="1200pt" height="1200pt" version="1.1" viewBox="0 0 1200 1200" xmlns="http://www.w3.org/2000/svg">
 <path d="m37.426 656.3c-4.9727 0.003906-9.7422-1.9727-13.262-5.4883-3.5156-3.5156-5.4883-8.2891-5.4883-13.262v-75.246c0-6.6992 3.5742-12.891 9.375-16.238 5.8008-3.3516 12.949-3.3516 18.75 0 5.8008 3.3477 9.375 9.5391 9.375 16.238v75.246c0.003907 4.9727-1.9727 9.7461-5.4883 13.262s-8.2891 5.4922-13.262 5.4883z"/>
 <path d="m56.176 618.67h-37.5c-6.6992 0-12.887-3.5742-16.238-9.375-3.3477-5.8008-3.3477-12.949 0-18.75 3.3516-5.8008 9.5391-9.375 16.238-9.375h37.5c6.6992 0 12.891 3.5742 16.238 9.375 3.3516 5.8008 3.3516 12.949 0 18.75-3.3477 5.8008-9.5391 9.375-16.238 9.375z"/>
 <path d="m243.73 187.5c-4.9727 0-9.7422-1.9727-13.258-5.4922-3.5195-3.5156-5.4922-8.2852-5.4922-13.258v-75.238c0-6.6992 3.5742-12.887 9.375-16.238 5.8008-3.3477 12.949-3.3477 18.75 0 5.8008 3.3516 9.375 9.5391 9.375 16.238v75.238c0.003906 4.9727-1.9727 9.7422-5.4883 13.258-3.5195 3.5195-8.2891 5.4922-13.262 5.4922z"/>
 <path d="m262.48 149.87h-37.5c-6.6992 0-12.887-3.5742-16.238-9.375-3.3477-5.8008-3.3477-12.949 0-18.75 3.3516-5.8008 9.5391-9.375 16.238-9.375h37.5c6.6992 0 12.891 3.5742 16.238 9.375 3.3516 5.8008 3.3516 12.949 0 18.75-3.3477 5.8008-9.5391 9.375-16.238 9.375z"/>
 <path d="m75.328 337.45c-6.6953 0.035156-12.906-3.5078-16.281-9.293-3.3789-5.7852-3.4141-12.934-0.09375-18.75 3.3203-5.8203 9.4961-9.4219 16.191-9.457h0.18359c6.6992 0 12.891 3.5742 16.238 9.375 3.3516 5.8008 3.3516 12.949 0 18.75-3.3477 5.8008-9.5391 9.375-16.238 9.375z"/>
 <path d="m1162.6 656.3c-4.9727 0.003906-9.7461-1.9727-13.262-5.4883s-5.4922-8.2891-5.4883-13.262v-75.246c0-6.6992 3.5742-12.891 9.375-16.238 5.8008-3.3516 12.949-3.3516 18.75 0 5.8008 3.3477 9.375 9.5391 9.375 16.238v75.246c0 4.9727-1.9727 9.7461-5.4883 13.262-3.5195 3.5156-8.2891 5.4922-13.262 5.4883z"/>
 <path d="m1181.3 618.67h-37.5c-6.6992 0-12.891-3.5742-16.238-9.375-3.3516-5.8008-3.3516-12.949 0-18.75 3.3477-5.8008 9.5391-9.375 16.238-9.375h37.5c6.6992 0 12.887 3.5742 16.238 9.375 3.3477 5.8008 3.3477 12.949 0 18.75-3.3516 5.8008-9.5391 9.375-16.238 9.375z"/>
 <path d="m956.27 187.5c-4.9727 0-9.7422-1.9727-13.262-5.4922-3.5156-3.5156-5.4922-8.2852-5.4883-13.258v-75.238c0-6.6992 3.5742-12.887 9.375-16.238 5.8008-3.3477 12.949-3.3477 18.75 0 5.8008 3.3516 9.375 9.5391 9.375 16.238v75.238c0 4.9727-1.9727 9.7422-5.4922 13.258-3.5156 3.5195-8.2852 5.4922-13.258 5.4922z"/>
 <path d="m975.02 149.87h-37.5c-6.6992 0-12.891-3.5742-16.238-9.375-3.3516-5.8008-3.3516-12.949 0-18.75 3.3477-5.8008 9.5391-9.375 16.238-9.375h37.5c6.6992 0 12.887 3.5742 16.238 9.375 3.3477 5.8008 3.3477 12.949 0 18.75-3.3516 5.8008-9.5391 9.375-16.238 9.375z"/>
 <path d="m1125.4 356.2c-6.6992 0.035156-12.906-3.5078-16.285-9.293-3.375-5.7852-3.4102-12.934-0.089844-18.75 3.3203-5.8203 9.4922-9.4219 16.191-9.457h0.18359c6.6992 0 12.891 3.5742 16.238 9.375s3.3477 12.949 0 18.75-9.5391 9.375-16.238 9.375z"/>
 <path d="m600.4 74.953c-6.6992 0.035156-12.906-3.5078-16.285-9.293-3.375-5.7852-3.4102-12.934-0.089844-18.75 3.3203-5.8203 9.4922-9.4219 16.191-9.457h0.18359c6.6992 0 12.891 3.5742 16.238 9.375s3.3477 12.949 0 18.75-9.5391 9.375-16.238 9.375z"/>
 <path d="m243.73 1125.2c-4.9727 0.003907-9.7422-1.9727-13.262-5.4883-3.5156-3.5156-5.4922-8.2891-5.4883-13.262v-75.238c0-6.6992 3.5742-12.887 9.375-16.238 5.8008-3.3477 12.949-3.3477 18.75 0 5.8008 3.3516 9.375 9.5391 9.375 16.238v75.238c0.003906 4.9727-1.9727 9.7461-5.4883 13.262-3.5156 3.5156-8.2891 5.4922-13.262 5.4883z"/>
 <path d="m262.48 1087.6h-37.5c-6.6992 0-12.887-3.5742-16.238-9.375-3.3477-5.8008-3.3477-12.949 0-18.75 3.3516-5.8008 9.5391-9.375 16.238-9.375h37.5c6.6992 0 12.891 3.5742 16.238 9.375 3.3516 5.8008 3.3516 12.949 0 18.75-3.3477 5.8008-9.5391 9.375-16.238 9.375z"/>
 <path d="m75.328 900.05c-6.6953 0.03125-12.906-3.5117-16.281-9.2969-3.3789-5.7852-3.4141-12.93-0.09375-18.75 3.3203-5.8164 9.4961-9.4219 16.191-9.4531h0.18359c6.6992 0 12.891 3.5742 16.238 9.375 3.3516 5.8008 3.3516 12.949 0 18.75-3.3477 5.8008-9.5391 9.375-16.238 9.375z"/>
 <path d="m956.27 1125.2c-4.9727 0.003907-9.7461-1.9727-13.262-5.4883-3.5156-3.5156-5.4922-8.2891-5.4883-13.262v-75.238c0-6.6992 3.5742-12.887 9.375-16.238 5.8008-3.3477 12.949-3.3477 18.75 0 5.8008 3.3516 9.375 9.5391 9.375 16.238v75.238c0.003907 4.9727-1.9727 9.7461-5.4883 13.262-3.5195 3.5156-8.2891 5.4922-13.262 5.4883z"/>
 <path d="m975.02 1087.6h-37.5c-6.6992 0-12.891-3.5742-16.238-9.375-3.3516-5.8008-3.3516-12.949 0-18.75 3.3477-5.8008 9.5391-9.375 16.238-9.375h37.5c6.6992 0 12.887 3.5742 16.238 9.375 3.3477 5.8008 3.3477 12.949 0 18.75-3.3516 5.8008-9.5391 9.375-16.238 9.375z"/>
 <path d="m1125.4 881.3c-6.6992 0.03125-12.906-3.5117-16.285-9.2969-3.375-5.7852-3.4102-12.93-0.089844-18.75 3.3203-5.8164 9.4922-9.4219 16.191-9.4531h0.18359c6.6992 0 12.891 3.5742 16.238 9.375 3.3477 5.8008 3.3477 12.949 0 18.75-3.3477 5.8008-9.5391 9.375-16.238 9.375z"/>
 <path d="m600.4 1162.6c-6.6992 0.03125-12.906-3.5117-16.285-9.2969-3.375-5.7852-3.4102-12.93-0.089844-18.75 3.3203-5.8164 9.4922-9.4219 16.191-9.4531h0.18359c6.6992 0 12.891 3.5742 16.238 9.375 3.3477 5.8008 3.3477 12.949 0 18.75-3.3477 5.8008-9.5391 9.375-16.238 9.375z"/>
 <path d="m600 1012.4c-89 0-176-26.395-250-75.84s-131.68-119.73-165.73-201.95c-34.059-82.227-42.969-172.71-25.605-260 17.363-87.289 60.223-167.47 123.16-230.4 62.934-62.934 143.12-105.79 230.41-123.15 87.293-17.363 177.77-8.4492 260 25.609 82.227 34.059 152.5 91.738 201.95 165.74 49.445 74.004 75.836 161 75.836 250.01-0.13672 119.3-47.594 233.68-131.96 318.04-84.359 84.359-198.74 131.81-318.04 131.95zm0-862.49c-109.4 0-214.32 43.461-291.68 120.82-77.355 77.359-120.82 182.28-120.82 291.68 0 109.4 43.461 214.32 120.82 291.68 77.359 77.359 182.28 120.82 291.68 120.82 109.4 0 214.32-43.457 291.68-120.81 77.359-77.359 120.82-182.28 120.82-291.68-0.125-109.37-43.621-214.21-120.95-291.55-77.332-77.332-182.18-120.83-291.55-120.95z"/>
 <path d="m600 1087.4c-119.3-0.13672-233.68-47.59-318.05-131.95-84.363-84.359-131.82-198.74-131.95-318.05 0-6.6992 3.5742-12.887 9.375-16.238 5.8008-3.3477 12.949-3.3477 18.75 0 5.8008 3.3516 9.375 9.5391 9.375 16.238 0 109.4 43.461 214.32 120.82 291.68 77.355 77.355 182.28 120.82 291.68 120.82s214.32-43.461 291.68-120.82c77.359-77.359 120.82-182.28 120.82-291.68 0-6.6992 3.5742-12.887 9.375-16.238 5.8008-3.3477 12.949-3.3477 18.75 0 5.8008 3.3516 9.375 9.5391 9.375 16.238-0.13672 119.3-47.59 233.69-131.95 318.05-84.363 84.363-198.74 131.82-318.05 131.95z"/>
 <path d="m168.75 656.12c-4.9727 0.003906-9.7461-1.9727-13.262-5.4883-3.5156-3.5156-5.4922-8.2891-5.4883-13.262v-74.988c0-6.6992 3.5742-12.891 9.375-16.238 5.8008-3.3516 12.949-3.3516 18.75 0 5.8008 3.3477 9.375 9.5391 9.375 16.238v74.992-0.003906c0.003906 4.9727-1.9727 9.7461-5.4883 13.262-3.5156 3.5156-8.2891 5.4922-13.262 5.4883z"/>
 <path d="m1031.2 656.12c-4.9727 0.003906-9.7461-1.9727-13.262-5.4883-3.5156-3.5156-5.4922-8.2891-5.4883-13.262v-74.988c0-6.6992 3.5742-12.891 9.375-16.238 5.8008-3.3516 12.949-3.3516 18.75 0 5.8008 3.3477 9.375 9.5391 9.375 16.238v74.992-0.003906c0.003906 4.9727-1.9727 9.7461-5.4883 13.262-3.5156 3.5156-8.2891 5.4922-13.262 5.4883z"/>
 <path d="m599.95 918.84c-94.484 0-185.1-37.531-251.91-104.34-66.812-66.812-104.34-157.43-104.34-251.91 0-94.48 37.531-185.09 104.34-251.91 66.809-66.809 157.42-104.34 251.91-104.34 94.484 0 185.1 37.535 251.91 104.34 66.809 66.812 104.34 157.43 104.34 251.91-0.10937 94.453-37.676 185-104.46 251.79-66.789 66.789-157.34 104.36-251.79 104.46zm0-675c-84.539 0-165.61 33.586-225.39 93.363-59.777 59.773-93.359 140.85-93.359 225.39 0 84.539 33.582 165.61 93.359 225.39 59.777 59.777 140.85 93.359 225.39 93.359 84.539 0 165.61-33.582 225.39-93.359 59.777-59.777 93.359-140.85 93.359-225.39-0.09375-84.508-33.707-165.53-93.465-225.29-59.758-59.758-140.78-93.367-225.29-93.465z"/>
 <path d="m356.2 678.94c-3.75 0-7.4141-1.1211-10.516-3.2227-3.1055-2.1016-5.5078-5.0859-6.8984-8.5703-27.156-67.531-26.969-142.98 0.51172-210.38 1.8711-4.6094 5.4961-8.2852 10.074-10.223 4.582-1.9336 9.7461-1.9727 14.355-0.10156 4.6055 1.8672 8.2852 5.4922 10.223 10.074 1.9336 4.5781 1.9727 9.7422 0.10156 14.352-23.477 58.492-23.633 123.76-0.4375 182.36 1.8438 4.6172 1.7773 9.7812-0.18359 14.352-1.9609 4.5703-5.6562 8.1719-10.273 10.02-2.2109 0.88672-4.5742 1.3398-6.957 1.3359z"/>
 <path d="m843.7 678.94c-2.3828 0.003906-4.7461-0.44922-6.957-1.3359-4.6172-1.8477-8.3125-5.4531-10.273-10.023-1.9609-4.5703-2.0273-9.7305-0.18359-14.348 23.195-58.605 23.039-123.87-0.4375-182.36-2.5195-6.2109-1.5352-13.289 2.582-18.574 4.1172-5.2852 10.742-7.9727 17.375-7.0508 6.6367 0.92187 12.277 5.3164 14.797 11.523 27.48 67.398 27.664 142.85 0.51172 210.38-1.3906 3.4805-3.793 6.4648-6.8984 8.5703-3.1016 2.1016-6.7656 3.2227-10.516 3.2227z"/>
 <path d="m431.2 825.18c-4.9727 0.003906-9.7461-1.9727-13.262-5.4883-3.5156-3.5195-5.4922-8.2891-5.4883-13.262 0.023438-19.883 7.9336-38.945 21.992-53 14.062-14.059 33.125-21.965 53.008-21.98 6.6992 0 12.887 3.5742 16.238 9.375 3.3477 5.8008 3.3477 12.949 0 18.75-3.3516 5.8008-9.5391 9.375-16.238 9.375-9.9414 0.007813-19.469 3.957-26.5 10.984s-10.988 16.555-11 26.496c0.003907 4.9727-1.9727 9.7422-5.4883 13.262-3.5156 3.5156-8.2891 5.4922-13.262 5.4883z"/>
 <path d="m543.7 769.06h-56.25c-6.6992 0-12.891-3.5742-16.238-9.375-3.3477-5.8008-3.3477-12.949 0-18.75 3.3477-5.8008 9.5391-9.375 16.238-9.375h56.25c6.6992 0 12.887 3.5742 16.238 9.375 3.3477 5.8008 3.3477 12.949 0 18.75-3.3516 5.8008-9.5391 9.375-16.238 9.375z"/>
 <path d="m768.7 825.18c-4.9727 0.003906-9.7461-1.9727-13.262-5.4883-3.5156-3.5195-5.4922-8.2891-5.4883-13.262-0.015624-9.9414-3.9688-19.469-11-26.496s-16.562-10.977-26.5-10.984c-6.6992 0-12.891-3.5742-16.238-9.375-3.3477-5.8008-3.3477-12.949 0-18.75 3.3477-5.8008 9.5391-9.375 16.238-9.375 19.883 0.015625 38.945 7.9219 53.004 21.98 14.062 14.055 21.973 33.117 21.996 53 0.003907 4.9727-1.9727 9.7422-5.4883 13.262-3.5156 3.5156-8.2891 5.4922-13.262 5.4883z"/>
 <path d="m712.45 769.06h-56.25c-6.6992 0-12.891-3.5742-16.238-9.375-3.3477-5.8008-3.3477-12.949 0-18.75 3.3477-5.8008 9.5391-9.375 16.238-9.375h56.25c6.6992 0 12.887 3.5742 16.238 9.375 3.3477 5.8008 3.3477 12.949 0 18.75-3.3516 5.8008-9.5391 9.375-16.238 9.375z"/>
 <path d="m768.7 873.67c-4.9727 0.003906-9.7461-1.9688-13.262-5.4883-3.5156-3.5156-5.4922-8.2852-5.4883-13.262v-48.484c0-6.6992 3.5742-12.891 9.375-16.238 5.8008-3.3477 12.949-3.3477 18.75 0 5.8008 3.3477 9.375 9.5391 9.375 16.238v48.484c0.003907 4.9766-1.9727 9.7461-5.4883 13.262-3.5156 3.5195-8.2891 5.4922-13.262 5.4883z"/>
 <path d="m543.7 769.06c-4.9727 0-9.7461-1.9727-13.262-5.4883-3.5156-3.5195-5.4922-8.2891-5.4883-13.262v-50.32c0-6.6953 3.5742-12.887 9.375-16.238 5.8008-3.3477 12.949-3.3477 18.75 0 5.8008 3.3516 9.375 9.543 9.375 16.238v50.32c0.003907 4.9727-1.9727 9.7422-5.4883 13.262-3.5156 3.5156-8.2891 5.4883-13.262 5.4883z"/>
 <path d="m656.2 768.93c-4.9727 0.003906-9.7461-1.9727-13.262-5.4883-3.5156-3.5195-5.4922-8.2891-5.4883-13.262v-50.191c0-6.6953 3.5742-12.887 9.375-16.238 5.8008-3.3477 12.949-3.3477 18.75 0 5.8008 3.3516 9.375 9.543 9.375 16.238v50.191c0.003907 4.9727-1.9727 9.7422-5.4883 13.262-3.5156 3.5156-8.2891 5.4922-13.262 5.4883z"/>
 <path d="m599.95 731.38c-39.762-0.039062-77.883-15.848-106-43.957-28.121-28.113-43.941-66.227-43.996-105.99 0-6.6992 3.5742-12.891 9.375-16.238 5.8008-3.3477 12.949-3.3477 18.75 0 5.8008 3.3477 9.375 9.5391 9.375 16.238 0 40.191 21.441 77.332 56.25 97.426 34.809 20.098 77.691 20.098 112.5 0 34.809-20.094 56.25-57.234 56.25-97.426 0-6.6992 3.5742-12.891 9.375-16.238 5.8008-3.3477 12.949-3.3477 18.75 0 5.8008 3.3477 9.375 9.5391 9.375 16.238-0.054687 39.762-15.875 77.875-43.996 105.99-28.121 28.109-66.242 43.918-106 43.957z"/>
 <path d="m642.15 806.34c-2.6055 0-5.1797-0.54297-7.5625-1.5938l-42.227-18.66v0.003906c-6.1289-2.707-10.348-8.4805-11.066-15.145-0.71875-6.6602 2.168-13.203 7.5781-17.156 5.4102-3.9531 12.52-4.7227 18.648-2.0117l42.227 18.66v-0.003906c5.2891 2.3359 9.2031 6.9805 10.613 12.59 1.4062 5.6055 0.14844 11.551-3.4102 16.105-3.5586 4.5586-9.0195 7.2188-14.801 7.2109z"/>
 <path d="m598.75 544.3c-34.52-0.33594-68.637-7.4492-100.41-20.93-6.0508-2.8203-10.148-8.6484-10.754-15.297-0.60547-6.6484 2.3711-13.117 7.8164-16.984 5.4414-3.8672 12.531-4.5469 18.609-1.7852 26.883 11.16 55.641 17.098 84.742 17.496 29.984-0.5625 59.629-6.4883 87.527-17.496 6.1367-2.5898 13.191-1.7266 18.523 2.2656 5.332 3.9961 8.1445 10.52 7.3906 17.137-0.75781 6.6211-4.9688 12.34-11.066 15.031-32.57 13.086-67.277 20.055-102.38 20.562z"/>
 <path d="m731.2 562.77c-4.9453 0.007812-9.6914-1.9453-13.203-5.4297l-37.5-37.133c-3.543-3.4961-5.5508-8.2617-5.5781-13.242-0.027343-4.9805 1.9258-9.7695 5.4336-13.305 3.5039-3.5391 8.2734-5.5352 13.254-5.5547 4.9805-0.015625 9.7656 1.9492 13.297 5.4609l37.5 37.133c3.5391 3.5078 5.5391 8.2812 5.5547 13.266 0.011719 4.9844-1.957 9.7656-5.4766 13.297-3.5195 3.5273-8.2969 5.5117-13.281 5.5078z"/>
 <path d="m468.7 563.14c-4.9688 0-9.7305-1.9727-13.246-5.4844-3.5156-3.5078-5.4961-8.2695-5.5039-13.238-0.007812-4.9648 1.9531-9.7344 5.457-13.258l37.5-37.684c4.7266-4.7461 11.625-6.6133 18.102-4.8945 6.4766 1.7188 11.547 6.7617 13.297 13.227 1.7461 6.4688-0.085937 13.379-4.8125 18.129l-37.5 37.684c-3.5156 3.5391-8.3008 5.5273-13.293 5.5195z"/>
 <path d="m731.21 506.35c-4.9766 0-9.7461-1.9727-13.262-5.4922-3.5156-3.5156-5.4922-8.2852-5.4883-13.258-0.015625-9.9492-3.9766-19.488-11.012-26.523-7.0391-7.0312-16.578-10.988-26.527-10.996-6.6992 0-12.887-3.5742-16.238-9.375-3.3477-5.8008-3.3477-12.949 0-18.75 3.3516-5.8008 9.5391-9.375 16.238-9.375 19.891 0.019531 38.965 7.9297 53.031 21.992 14.066 14.062 21.98 33.133 22.008 53.027 0 4.9727-1.9766 9.7422-5.4922 13.258-3.5156 3.5195-8.2852 5.4922-13.258 5.4922z"/>
 <path d="m674.93 450.08c-4.9727 0-9.7422-1.9727-13.258-5.4883-3.5156-3.5195-5.4922-8.2891-5.4922-13.262v-56.25c0-6.6992 3.5742-12.887 9.375-16.238 5.8008-3.3477 12.949-3.3477 18.75 0 5.8008 3.3516 9.375 9.5391 9.375 16.238v56.25c0.003907 4.9727-1.9727 9.7422-5.4883 13.262-3.5195 3.5156-8.2891 5.4883-13.262 5.4883z"/>
 <path d="m468.68 506.33c-4.9727 0-9.7422-1.9727-13.258-5.4883-3.5156-3.5195-5.4922-8.2891-5.4922-13.262 0.042969-34.797 13.883-68.156 38.488-92.762 24.605-24.605 57.965-38.449 92.762-38.488 6.6992 0 12.891 3.5742 16.238 9.375 3.3516 5.8008 3.3516 12.949 0 18.75-3.3477 5.8008-9.5391 9.375-16.238 9.375-24.855 0.03125-48.684 9.918-66.258 27.492s-27.461 41.402-27.492 66.258c0.003907 4.9727-1.9727 9.7422-5.4883 13.262-3.5195 3.5156-8.2891 5.4883-13.262 5.4883z"/>
 <path d="m674.93 393.83h-93.75c-6.6992 0-12.887-3.5742-16.238-9.375-3.3477-5.8008-3.3477-12.949 0-18.75 3.3516-5.8008 9.5391-9.375 16.238-9.375h93.75c6.6992 0 12.891 3.5742 16.238 9.375 3.3516 5.8008 3.3516 12.949 0 18.75-3.3477 5.8008-9.5391 9.375-16.238 9.375z"/>
 <path d="m468.68 600.08c-4.9727 0-9.7422-1.9727-13.258-5.4883-3.5156-3.5195-5.4922-8.2891-5.4922-13.262v-93.824c0-6.6992 3.5742-12.887 9.375-16.238 5.8008-3.3477 12.949-3.3477 18.75 0 5.8008 3.3516 9.375 9.5391 9.375 16.238v93.824c0.003907 4.9727-1.9727 9.7422-5.4883 13.262-3.5195 3.5156-8.2891 5.4883-13.262 5.4883z"/>
 <path d="m731.18 600.08c-4.9727 0-9.7422-1.9727-13.258-5.4883-3.5156-3.5195-5.4922-8.2891-5.4922-13.262v-93.824c0-6.6992 3.5742-12.887 9.375-16.238 5.8008-3.3477 12.949-3.3477 18.75 0 5.8008 3.3516 9.375 9.5391 9.375 16.238v93.824c0.003907 4.9727-1.9727 9.7422-5.4883 13.262-3.5195 3.5156-8.2891 5.4883-13.262 5.4883z"/>
 <path d="m431.2 872.88c-4.9727 0.003907-9.7461-1.9727-13.262-5.4883-3.5156-3.5195-5.4922-8.2891-5.4883-13.262v-47.699c0-6.6992 3.5742-12.891 9.375-16.238 5.8008-3.3477 12.949-3.3477 18.75 0 5.8008 3.3477 9.375 9.5391 9.375 16.238v47.699c0.003907 4.9727-1.9727 9.7422-5.4883 13.262-3.5156 3.5156-8.2891 5.4922-13.262 5.4883z"/>
 <path d="m599.95 918.84c-6.1523 0.007812-11.918-3.0078-15.426-8.0664-3.5039-5.0586-4.3008-11.516-2.1328-17.273l56.25-149.78c1.7266-4.6836 5.25-8.4883 9.793-10.562 4.5391-2.0781 9.7188-2.2617 14.395-0.50781 4.6758 1.7578 8.457 5.3047 10.508 9.8555 2.0508 4.5508 2.2031 9.7344 0.42188 14.398l-56.25 149.78c-1.3438 3.5703-3.7461 6.6484-6.8828 8.8203-3.1367 2.1719-6.8594 3.3359-10.676 3.3359z"/>
 <path d="m712.45 825.09c-3.9336 0-7.7695-1.2344-10.961-3.5352-3.1875-2.3008-5.5742-5.5469-6.8203-9.2812l-18.75-56.25c-1.5898-4.7188-1.2344-9.8789 0.98438-14.336 2.2188-4.4609 6.1211-7.8516 10.848-9.4297 4.7227-1.5742 9.8828-1.207 14.332 1.0273 4.4531 2.2305 7.8359 6.1445 9.3945 10.875l18.75 56.25c1.9023 5.7148 0.94531 11.996-2.5781 16.887-3.5195 4.8867-9.1758 7.7891-15.199 7.793z"/>
 <path d="m637.43 916.75c-4.7539-0.003906-9.3281-1.8125-12.797-5.0625-3.4727-3.25-5.5781-7.6992-5.8945-12.441s1.1836-9.4297 4.1914-13.109l75-91.664c4.2383-5.1875 10.922-7.7188 17.535-6.6406 6.6133 1.0742 12.148 5.5977 14.52 11.863 2.375 6.2656 1.2227 13.32-3.0156 18.508l-75 91.664c-3.5625 4.3633-8.9023 6.8945-14.539 6.8828z"/>
 <path d="m599.95 918.84c-3.8164 0-7.5391-1.1641-10.676-3.3359-3.1406-2.1719-5.5391-5.25-6.8828-8.8203l-56.25-149.78c-2.3125-6.2617-1.1172-13.281 3.1289-18.43 4.25-5.1484 10.914-7.6484 17.504-6.5703 6.5859 1.082 12.102 5.582 14.484 11.816l56.25 149.78c2.168 5.7578 1.3711 12.215-2.1367 17.273-3.5039 5.0586-9.2695 8.0742-15.422 8.0664z"/>
 <path d="m487.45 825.09c-6.0234-0.003906-11.68-2.9062-15.199-7.793-3.5234-4.8906-4.4805-11.172-2.582-16.887l18.75-56.25c1.5625-4.7305 4.9453-8.6445 9.3984-10.875 4.4492-2.2344 9.6094-2.6016 14.332-1.0273 4.7266 1.5781 8.6289 4.9688 10.848 9.4297 2.2188 4.457 2.5742 9.6172 0.98047 14.336l-18.75 56.25c-1.2422 3.7344-3.6289 6.9805-6.8203 9.2812-3.1875 2.3008-7.0234 3.5352-10.957 3.5352z"/>
 <path d="m562.46 916.75c-5.6367 0.011719-10.977-2.5195-14.539-6.8828l-75-91.664c-4.2383-5.1875-5.3906-12.242-3.0156-18.508 2.3711-6.2656 7.9062-10.789 14.52-11.863 6.6133-1.0781 13.297 1.4531 17.535 6.6406l75 91.664c3.0078 3.6797 4.5078 8.3672 4.1914 13.109s-2.4219 9.1914-5.8945 12.441c-3.4688 3.25-8.043 5.0586-12.797 5.0625z"/>
 <path d="m557.7 806.34c-5.7812 0.007812-11.242-2.6523-14.801-7.207-3.5586-4.5586-4.8164-10.5-3.4102-16.109 1.4062-5.6094 5.3242-10.254 10.613-12.59l42.262-18.66-0.003907 0.003906c6.1289-2.707 13.238-1.9414 18.648 2.0117 5.4102 3.957 8.3008 10.496 7.582 17.16-0.71875 6.6602-4.9375 12.434-11.066 15.141l-42.262 18.66c-2.3828 1.0469-4.9609 1.5898-7.5625 1.5898z"/>
 <path d="m637.45 318.84h-75c-6.6992 0-12.891-3.5703-16.238-9.375-3.3477-5.8008-3.3477-12.945 0-18.75 3.3477-5.8008 9.5391-9.375 16.238-9.375h75c6.6992 0 12.887 3.5742 16.238 9.375 3.3477 5.8047 3.3477 12.949 0 18.75-3.3516 5.8047-9.5391 9.375-16.238 9.375z"/>
 <path d="m600 168.63c-4.9727 0-9.7422-1.9766-13.258-5.4922-3.5195-3.5156-5.4922-8.2852-5.4922-13.258v-18.75c0-6.6992 3.5742-12.891 9.375-16.238 5.8008-3.3516 12.949-3.3516 18.75 0 5.8008 3.3477 9.375 9.5391 9.375 16.238v18.75c0 4.9727-1.9727 9.7422-5.4922 13.258-3.5156 3.5156-8.2852 5.4922-13.258 5.4922z"/>
 <path d="m600 1012.4c-4.9727 0.003906-9.7461-1.9727-13.262-5.4883-3.5156-3.5156-5.4922-8.2891-5.4883-13.262v-18.75c0-6.6992 3.5742-12.887 9.375-16.238 5.8008-3.3477 12.949-3.3477 18.75 0 5.8008 3.3516 9.375 9.5391 9.375 16.238v18.75c0.003906 4.9727-1.9727 9.7461-5.4883 13.262-3.5156 3.5156-8.2891 5.4922-13.262 5.4883z"/>
 <path d="m493.21 182.7c-4.1289-0.007812-8.1367-1.3711-11.406-3.8867-3.2734-2.5117-5.6211-6.0352-6.6875-10.023l-4.8516-18.109c-1.7109-6.4609 0.14844-13.344 4.8828-18.066 4.7305-4.7188 11.617-6.5664 18.074-4.8438 6.4609 1.7266 11.512 6.7578 13.262 13.207l4.8516 18.109c1.4961 5.6328 0.29688 11.641-3.2539 16.266-3.5508 4.6211-9.043 7.3359-14.871 7.3477z"/>
 <path d="m711.6 997.69c-4.125 0-8.1328-1.3633-11.406-3.875-3.2695-2.5156-5.6211-6.0352-6.6836-10.023l-4.8516-18.109c-1.2891-4.8008-0.61328-9.918 1.8711-14.227 2.4883-4.3047 6.582-7.4453 11.387-8.7344 4.8008-1.2852 9.918-0.61328 14.227 1.875 4.3047 2.4844 7.4453 6.5781 8.7344 11.383l4.8516 18.109c1.5078 5.6328 0.30859 11.645-3.2422 16.27-3.5547 4.625-9.0547 7.3359-14.887 7.332z"/>
 <path d="m393.77 223.89c-3.2969 0.003906-6.5352-0.85938-9.3867-2.5039-2.8555-1.6484-5.2266-4.0156-6.875-6.8711l-9.375-16.23c-3.3438-5.8008-3.3398-12.949 0.007813-18.746 3.3516-5.8008 9.5391-9.375 16.238-9.375 6.6992 0 12.887 3.5703 16.238 9.3711l9.375 16.23c3.3398 5.8008 3.3398 12.941-0.003907 18.742-3.3438 5.7969-9.5273 9.375-16.219 9.3828z"/>
 <path d="m815.64 954.6c-6.707 0.003907-12.902-3.5703-16.262-9.375l-9.375-16.242c-3.3438-5.8008-3.3398-12.945 0.007813-18.746 3.3516-5.8008 9.5391-9.3711 16.238-9.3711 6.6992 0 12.887 3.5703 16.238 9.3672l9.375 16.242c3.3477 5.8008 3.3516 12.945 0.003906 18.746-3.3438 5.8008-9.5312 9.375-16.227 9.3789z"/>
 <path d="m308.31 289.45c-4.9727 0.003906-9.7422-1.9727-13.254-5.4922l-13.258-13.266c-3.5742-3.5039-5.5977-8.293-5.6211-13.297-0.023438-5.0039 1.9531-9.8086 5.4922-13.348 3.5352-3.5391 8.3438-5.5156 13.348-5.4922 5.0039 0.027344 9.7891 2.0508 13.293 5.6211l13.258 13.266c3.5156 3.5156 5.4961 8.2852 5.4961 13.258 0 4.9766-1.9766 9.7461-5.4922 13.262-3.5195 3.5156-8.2891 5.4922-13.262 5.4883z"/>
 <path d="m904.95 886.07c-4.9766 0.003906-9.7461-1.9727-13.258-5.4961l-13.258-13.258v0.003906c-4.7344-4.7383-6.5859-11.641-4.8516-18.109s6.7891-11.523 13.258-13.258 13.371 0.11719 18.109 4.8516l13.258 13.258c3.5117 3.5156 5.4883 8.2852 5.4883 13.258 0 4.9688-1.9766 9.7383-5.4922 13.254-3.5156 3.5156-8.2812 5.4922-13.254 5.4922z"/>
 <path d="m242.74 374.88c-3.2852 0-6.5117-0.86328-9.3555-2.5117l-16.242-9.375c-4.3086-2.4844-7.457-6.5781-8.7461-11.387-1.2891-4.8047-0.61719-9.9258 1.8711-14.234s6.5859-7.4531 11.391-8.7383c4.8086-1.2891 9.9258-0.61328 14.234 1.8789l16.242 9.375c4.8047 2.7695 8.1328 7.5273 9.0977 12.988 0.96094 5.4609-0.54297 11.07-4.1133 15.316-3.5664 4.2461-8.832 6.6914-14.379 6.6875z"/>
 <path d="m973.46 796.75c-3.2852 0.003906-6.5117-0.86328-9.3555-2.5078l-16.242-9.375c-4.3047-2.4844-7.4492-6.582-8.7383-11.387-1.2852-4.8047-0.61328-9.9219 1.875-14.23 2.4844-4.3086 6.582-7.4492 11.383-8.7383 4.8047-1.2891 9.9258-0.61328 14.23 1.8711l16.242 9.375c4.8047 2.7734 8.1367 7.5273 9.0977 12.992 0.96094 5.4609-0.54297 11.066-4.1133 15.312-3.5664 4.2461-8.832 6.6953-14.379 6.6875z"/>
 <path d="m201.58 474.38c-1.6445 0-3.2852-0.21875-4.8711-0.64844l-18.109-4.8516c-6.4688-1.7344-11.523-6.7891-13.258-13.258s0.11719-13.371 4.8516-18.109c4.7383-4.7344 11.641-6.5859 18.109-4.8516l18.109 4.8516c5.9062 1.5859 10.672 5.9492 12.762 11.695 2.0938 5.7461 1.2539 12.152-2.25 17.164-3.5039 5.0117-9.2305 8-15.344 8.0078z"/>
 <path d="m1016.6 692.74c-1.6445 0.003906-3.2852-0.21094-4.8711-0.64063l-18.109-4.8516c-6.4688-1.7344-11.523-6.7891-13.258-13.258s0.11719-13.371 4.8516-18.109c4.7383-4.7344 11.641-6.5859 18.109-4.8516l18.109 4.8516c5.9062 1.5859 10.668 5.9492 12.758 11.695 2.0938 5.7422 1.2539 12.145-2.25 17.156s-9.2266 8-15.34 8.0078z"/>
 <path d="m187.5 581.13h-18.75c-6.6992 0-12.887-3.5742-16.238-9.375-3.3477-5.8047-3.3477-12.949 0-18.75 3.3516-5.8047 9.5391-9.375 16.238-9.375h18.75c6.6992 0 12.887 3.5703 16.238 9.375 3.3477 5.8008 3.3477 12.945 0 18.75-3.3516 5.8008-9.5391 9.375-16.238 9.375z"/>
 <path d="m1031.2 581.13h-18.75c-6.6992 0-12.887-3.5742-16.238-9.375-3.3477-5.8047-3.3477-12.949 0-18.75 3.3516-5.8047 9.5391-9.375 16.238-9.375h18.75c6.6992 0 12.887 3.5703 16.238 9.375 3.3477 5.8008 3.3477 12.945 0 18.75-3.3516 5.8008-9.5391 9.375-16.238 9.375z"/>
 <path d="m183.43 692.74c-6.1133-0.007813-11.836-2.9961-15.34-8.0078s-4.3438-11.414-2.25-17.156c2.0898-5.7461 6.8516-10.109 12.758-11.695l18.109-4.8516c6.4688-1.7344 13.371 0.11719 18.109 4.8516 4.7344 4.7383 6.5859 11.641 4.8516 18.109s-6.7891 11.523-13.258 13.258l-18.109 4.8516c-1.5859 0.42969-3.2266 0.64453-4.8711 0.64063z"/>
 <path d="m998.42 474.38c-6.1133-0.007812-11.84-2.9961-15.344-8.0078-3.5039-5.0117-4.3438-11.418-2.25-17.164 2.0898-5.7461 6.8555-10.109 12.762-11.695l18.109-4.8516c6.4688-1.7344 13.371 0.11719 18.109 4.8516 4.7344 4.7383 6.5859 11.641 4.8516 18.109s-6.7891 11.523-13.258 13.258l-18.109 4.8516c-1.5859 0.42969-3.2266 0.64844-4.8711 0.64844z"/>
 <path d="m226.54 796.75c-5.5469 0.007812-10.812-2.4414-14.379-6.6875-3.5703-4.2461-5.0742-9.8516-4.1133-15.312 0.96094-5.4648 4.293-10.219 9.0977-12.992l16.242-9.375c5.8008-3.3477 12.949-3.3477 18.75 0.003906 5.8047 3.3516 9.3789 9.5391 9.375 16.242 0 6.6992-3.5742 12.891-9.375 16.238l-16.242 9.375c-2.8438 1.6445-6.0703 2.5117-9.3555 2.5078z"/>
 <path d="m957.26 374.88c-5.5469 0.003907-10.812-2.4414-14.379-6.6875-3.5703-4.2461-5.0742-9.8555-4.1133-15.316 0.96484-5.4609 4.293-10.219 9.0977-12.988l16.242-9.375c5.8008-3.3477 12.949-3.3438 18.746 0.007813 5.8008 3.3477 9.3711 9.5391 9.375 16.234 0 6.6992-3.5742 12.887-9.3711 16.238l-16.242 9.375c-2.8438 1.6484-6.0703 2.5117-9.3555 2.5117z"/>
 <path d="m295.05 886.07c-4.9688 0-9.7383-1.9766-13.254-5.4922s-5.4922-8.2852-5.4922-13.258 1.9766-9.7422 5.4922-13.258l13.258-13.258-0.003906 0.003907c4.7383-4.7383 11.641-6.5859 18.109-4.8555 6.4727 1.7344 11.523 6.7891 13.258 13.258s-0.11719 13.375-4.8516 18.109l-13.258 13.258c-3.5117 3.5195-8.2812 5.4961-13.258 5.4922z"/>
 <path d="m891.69 289.45c-4.9727 0-9.7422-1.9727-13.262-5.4883-3.5156-3.5156-5.4922-8.2852-5.4922-13.262 0-4.9727 1.9805-9.7422 5.4961-13.258l13.258-13.266c3.5078-3.543 8.2852-5.543 13.277-5.5586 4.9883-0.011719 9.7734 1.9648 13.301 5.4922 3.5273 3.5273 5.5039 8.3164 5.4922 13.305-0.011718 4.9883-2.0117 9.7656-5.5586 13.277l-13.258 13.266h0.003906c-3.5117 3.5195-8.2852 5.5-13.258 5.4922z"/>
 <path d="m384.36 954.6c-6.6953-0.003906-12.883-3.5781-16.227-9.3789-3.3477-5.8008-3.3438-12.945 0.003906-18.746l9.375-16.242c2.4844-4.3086 6.582-7.4531 11.387-8.7461 4.8047-1.2891 9.9258-0.61328 14.234 1.8711 4.3086 2.4883 7.4531 6.5859 8.7422 11.391 1.2852 4.8086 0.60938 9.9297-1.8789 14.234l-9.375 16.242c-3.3594 5.8047-9.5547 9.3789-16.262 9.375z"/>
 <path d="m806.23 223.89c-6.6914-0.007813-12.875-3.5859-16.219-9.3828-3.3438-5.8008-3.3438-12.941-0.003907-18.742l9.375-16.23c3.3516-5.8008 9.5391-9.3711 16.238-9.3711 6.6992 0 12.887 3.5742 16.238 9.375 3.3477 5.7969 3.3516 12.945 0.007813 18.746l-9.375 16.23c-1.6484 2.8555-4.0195 5.2227-6.875 6.8711-2.8516 1.6445-6.0898 2.5078-9.3867 2.5039z"/>
 <path d="m488.4 997.69c-5.832 0.003906-11.332-2.707-14.887-7.332-3.5508-4.625-4.75-10.637-3.2422-16.27l4.8516-18.109c1.7344-6.4688 6.7891-11.523 13.258-13.258s13.371 0.11719 18.109 4.8516c4.7344 4.7383 6.5859 11.641 4.8516 18.109l-4.8516 18.109c-1.0625 3.9883-3.4141 7.5078-6.6836 10.023-3.2734 2.5117-7.2812 3.875-11.406 3.875z"/>
 <path d="m706.79 182.7c-5.8281-0.011718-11.32-2.7266-14.871-7.3477-3.5508-4.625-4.75-10.633-3.2539-16.266l4.8516-18.109c1.75-6.4492 6.8008-11.48 13.262-13.207 6.457-1.7227 13.344 0.125 18.074 4.8438 4.7344 4.7227 6.5938 11.605 4.8828 18.066l-4.8516 18.109c-1.0664 3.9883-3.4141 7.5117-6.6875 10.023-3.2695 2.5156-7.2773 3.8789-11.406 3.8867z"/>
</svg>
