<?xml version="1.0" encoding="UTF-8"?>
<svg width="1200pt" height="1200pt" version="1.1" viewBox="0 0 1200 1200" xmlns="http://www.w3.org/2000/svg">
 <path d="m1069.2 1091h-939.19c-61.863 0-120.91-45.695-129.35-106.15h1197.9c-7.7344 60.457-66.785 106.15-129.35 106.15zm-736.73-518.8c-39.367 0-71.703-32.336-71.703-71.703 0-26.012 13.355-48.508 34.445-61.16v-113.88h-165.2c-37.258 0-67.488 29.527-71.703 70.297l-16.871 163.8c11.246 8.4375 33.742 23.902 36.555 26.012 94.902 65.379 252.37 111.07 429.53 122.32v-47.102l0.70312-0.70312v-2.1094l0.70312-0.70312v-2.1094l0.70312-0.70312v-0.70312l0.70312-0.70312v-1.4062l0.70312-0.70312v-0.70312l0.70312-0.70312v-0.70312l1.4062-1.4062v-1.4062l1.4062-1.4062v-0.70312l3.5156-3.5156v-0.70312h0.70312l3.5156-3.5156h0.70312l1.4062-1.4062h1.4062l1.4062-1.4062h0.70312l0.70312-0.70312h0.70312l0.70312-0.70312h1.4062l0.70312-0.70312h0.70312l0.70312-0.70312h1.4062l0.70312-0.70312h2.8125l0.70312-0.70312h123.02c20.387 0 37.258 16.871 37.258 37.258v40.773c167.31-11.246 317.05-53.426 411.25-114.59 5.625-3.5156 32.336-23.902 47.102-35.148l-16.168-161.69c-4.2188-40.773-34.445-70.297-72.406-70.297h-164.5v113.88c20.387 12.652 34.445 35.148 34.445 61.16 0 39.367-32.336 71.703-71.703 71.703-40.07 0-72.406-32.336-72.406-71.703 0-26.012 14.059-48.508 34.445-61.16v-113.88h-459.75v113.88c21.09 12.652 34.445 35.148 34.445 61.16 0 39.367-32.336 71.703-71.703 71.703zm-28.824-105.45c-26.012 23.199-16.871 77.328 28.824 77.328s54.832-54.129 28.824-77.328c-2.8125 3.5156-6.3281 6.3281-9.8438 8.4375-16.871 9.1406-36.555 4.9219-47.805-8.4375zm534.97 0c-26.715 23.199-16.871 77.328 28.824 77.328 44.992 0 54.832-54.129 28.824-77.328-7.0312 8.4375-17.574 13.355-28.824 13.355-11.949 0-21.793-4.9219-28.824-13.355zm-837.96 489.98 37.961-364.85c8.4375 5.625 15.465 11.246 17.574 12.652 98.418 71 265.03 119.51 451.32 131.46v47.805c0 20.387 16.871 37.258 37.258 37.258h117.4c20.387 0 37.258-16.871 37.258-37.258v-47.805c172.23-12.652 328.3-56.238 426.71-120.21 5.625-3.5156 21.09-14.762 35.148-25.309l37.258 366.26h-1197.9zm534.97-233.39c1.4062-7.7344 0.70312-17.574 0-27.418v-28.824c0.70312-4.2188 2.1094-7.0312 4.9219-9.1406 0.70312 0 2.1094-0.70313 3.5156-0.70313h0.70312 117.4 0.70312c1.4062 0 2.8125 0.70313 4.2188 1.4062 2.1094 1.4062 3.5156 4.2188 4.2188 8.4375v116.7c0 4.9219-4.2188 9.1406-9.1406 9.1406h-117.4c-4.9219 0-9.1406-4.2188-9.1406-9.1406v-60.457z" fill-rule="evenodd"/>
 <path d="m867.49 456.94c-7.7344 0-14.059-6.3281-14.059-14.059v-146.22c0-87.875-61.863-159.58-137.79-159.58h-231.28c-75.922 0-137.79 71.703-137.79 159.58v146.22c0 18.277-28.121 18.277-28.121 0v-146.22c0-103.34 74.516-187.7 165.91-187.7h231.28c91.387 0 165.91 84.359 165.91 187.7v146.22c0 7.7344-6.3281 14.059-14.059 14.059z" fill-rule="evenodd"/>
 <path d="m966.61 353.6c-19.684 0-14.059-29.527-14.059-56.941 0-87.875-61.863-159.58-137.79-159.58h-231.28c-75.922 0-137.08 71.703-137.08 159.58 0 27.418 5.625 56.941-14.059 56.941-20.387 0-14.059-29.527-14.059-56.941 0-103.34 73.812-187.7 165.2-187.7h231.28c91.387 0 165.91 84.359 165.91 187.7 0 27.418 5.625 56.941-14.059 56.941z" fill-rule="evenodd"/>
</svg>
