<?xml version="1.0" encoding="UTF-8"?>
<svg width="1200pt" height="1200pt" version="1.1" viewBox="0 0 1200 1200" xmlns="http://www.w3.org/2000/svg">
 <path d="m952.82 306.89c1.9219-13.875-2.6719-27.844-12.422-37.875-9.7031-10.031-23.531-15.047-37.406-13.594l-176.95 19.125c-0.42188 15.938-2.4844 31.781-6.1406 47.297l198.42 90.094c16.641-33.094 28.266-68.531 34.5-105.05z"/>
 <path d="m635.95 433.08 95.531 160.18c9.375-4.5 19.031-9.4219 28.688-15.141v139.36h-320.16s-0.1875-98.578 0-107.77c25.688 9.7969 52.5 16.172 79.828 18.938l-23.812-177.14h-0.046875c-22.453-5.9531-43.312-16.875-61.031-31.969l-102.38 115.59c20.297 23.109 44.438 42.562 71.344 57.469v124.87c-31.781-0.14063-101.86 0.09375-133.26 0-9.8438 0.1875-17.766 8.2031-17.766 18.047s7.9219 17.906 17.766 18.047h36.281v194.11h579.61v-194.11h36.141c9.8438-0.09375 17.812-8.1562 17.812-18.047 0-9.8906-7.9688-17.906-17.859-18.047-30.375 0.046874-95.625-0.046876-126.37 0 0.1875-14.906 0-162.42 0-162.42 43.219-31.125 79.734-70.547 107.44-116.02l-193.36-87.75c-14.812 34.922-41.062 63.797-74.391 81.797zm70.406 416.21h-219.19c-9.8906-0.14062-17.812-8.2031-17.812-18.047 0-9.8906 7.9219-17.906 17.812-18.047h219.19c9.8438 0.14062 17.766 8.1562 17.766 18.047 0 9.8438-7.9219 17.906-17.766 18.047z"/>
 <path d="m702.94 605.34-94.969-159.42h-0.046875c-25.734 9.0469-53.062 12.75-80.344 10.828l23.297 173.86c16.172 0.42188 32.297-0.09375 48.422-1.4531 35.531-2.6719 70.453-10.734 103.64-23.812z"/>
 <path d="m413.86 397.18c-14.672-18.938-24.75-41.016-29.438-64.5l-134.53 10.828v0.046875c6.4219 60.234 28.219 117.8 63.375 167.16z"/>
 <path d="m400.82 236.81-85.594-88.453c-42.562 44.156-66.422 103.08-66.609 164.48l133.26-10.828c0-23.109 6.5625-45.703 18.938-65.203z"/>
 <path d="m426.14 207c20.297-18.469 45.844-30.281 73.125-33.75l25.078-95.859c-66.422-9.2344-133.74 8.8594-186.52 50.203l82.359 85.031c1.9688-2.0156 3.9375-3.7969 5.9531-5.625z"/>
 <path d="m532.45 372.42c-4.0312 0.5625-8.1094-0.5625-11.297-3.0938s-5.25-6.2344-5.6719-10.266c-0.51562-4.0781 0.60938-8.1562 3.0938-11.391 2.5312-3.1875 6.2344-5.2969 10.266-5.7656 6.8438-0.70312 66.797-9.9375 61.594-66.281-10.734-72.094-87.328-96.188-143.9-45.844-49.125 38.766-42.75 126.61 9.75 167.58 45.469 35.203 93.188 36.609 150.56 16.594 56.812-22.031 107.48-94.406 82.5-198.1 0 0.1875-73.641 33.562-73.312 33.938 25.406 75.375-38.578 119.02-83.578 122.63z"/>
 <path d="m602.34 222.19 76.922-35.391c-22.734-52.453-69.047-90.938-124.78-103.64l-23.672 90.281h0.046875c29.672 5.3906 55.641 23.109 71.484 48.75z"/>
 <path d="m931.69 981.1h-663.37c-37.969 0.046875-68.766 30.797-68.812 68.812v56.719-0.046875c0.1875 10.125 8.3438 18.234 18.422 18.422h764.16c10.078-0.1875 18.234-8.2969 18.422-18.422v-56.672c-0.046875-38.016-30.844-68.766-68.812-68.812z"/>
</svg>
