<?xml version="1.0" encoding="UTF-8"?>
<svg width="1200pt" height="1200pt" version="1.1" viewBox="0 0 1200 1200" xmlns="http://www.w3.org/2000/svg">
 <path d="m372.94 671.26c0.70312 0.046876 1.4062-0.046874 2.0625-0.1875 27.188-4.875 60-50.062 92.25-111.75l-84-89.859c18.047-12.656 24.844-36.188 16.312-56.531-8.5781-20.391-30.141-32.016-51.844-27.984s-37.641 22.641-38.344 44.719c-0.65625 22.031 14.156 41.578 35.531 46.922l-46.781 148.74c31.688 28.312 58.312 45.938 74.812 45.938z"/>
 <path d="m975 1096.9c31.078 0 56.25-25.172 56.25-56.25s-25.172-56.25-56.25-56.25h-750c-31.078 0-56.25 25.172-56.25 56.25s25.172 56.25 56.25 56.25z"/>
 <path d="m825 671.06c0.65625 0.14062 1.3594 0.23438 2.0625 0.1875 18.375 0 49.875-22.125 86.438-56.438l-48-138.56c21.047-5.8125 35.297-25.453 34.266-47.297-0.98438-21.844-17.016-40.078-38.578-43.875-21.516-3.7969-42.844 7.8281-51.281 27.984-8.4844 20.156-1.8281 43.5 15.984 56.203l-90.516 95.109c31.312 59.062 63.188 101.81 89.625 106.69z"/>
 <path d="m112.5 525c0.46875 0 0.84375-0.14062 1.3125-0.14062l92.438 431.39h787.5l92.438-431.39c0.46875 0 0.84375 0.14062 1.3125 0.14062 26.859 0.046875 49.969-18.891 55.312-45.188 5.2969-26.344-8.7188-52.734-33.469-63.094s-53.391-1.8281-68.438 20.391c-15.047 22.266-12.281 52.031 6.5625 71.109-66.234 82.594-171.98 200.72-227.48 190.55-81.422-14.906-167.02-240.42-202.74-345.47v-0.046875c26.391-8.4844 42.609-34.922 38.297-62.25-4.2656-27.375-27.844-47.531-55.547-47.531s-51.281 20.156-55.547 47.531c-4.3125 27.328 11.906 53.766 38.297 62.25-35.719 105.09-121.31 330.56-202.74 345.47-55.453 10.172-161.21-107.95-227.48-190.5 18.797-19.078 21.516-48.75 6.5156-70.922-15.047-22.219-43.594-30.703-68.297-20.344-24.703 10.312-38.672 36.656-33.375 62.906 5.25 26.297 28.359 45.141 55.125 45.141zm472.55 77.906c3.7031-4.4531 9.1875-7.0312 14.953-7.0312s11.25 2.5781 14.953 7.0312c14.578 19.266 86.531 117.98 72.984 168.32h0.046875c-16.125 35.812-49.219 61.125-87.984 67.266-38.766-6.1406-71.859-31.453-87.984-67.266-13.547-50.344 58.453-149.06 73.031-168.32z"/>
 <path d="m600 801c21.609-6.1875 40.078-20.297 51.75-39.469 5.4844-20.297-24-74.344-51.75-115.12-30.75 44.906-56.766 96.422-51.703 115.12h-0.046875c11.672 19.172 30.141 33.281 51.75 39.469z"/>
</svg>
