<?xml version="1.0" encoding="UTF-8"?>
<svg width="1200pt" height="1200pt" version="1.1" viewBox="0 0 1200 1200" xmlns="http://www.w3.org/2000/svg">
 <path d="m718.78 383.39h-281.58c-19.125 0-36.844-10.172-46.453-26.719-9.5625-16.547-9.6562-36.938-0.1875-53.578 9.5156-16.594 27.141-26.906 46.266-27.047s36.891 9.9375 46.594 26.438h189.24c9.7031-16.5 27.469-26.531 46.594-26.391s36.703 10.453 46.172 27.047c9.5156 16.594 9.4219 36.984-0.1875 53.531-9.5625 16.547-27.234 26.719-46.359 26.719z"/>
 <path d="m674.16 877.22h-192.37l33.984-456.32h43.453v373.64c0 24.844 37.5 24.844 37.5 0v-373.64h43.453z"/>
 <path d="m634.22 95.812-7.875 169.13-96.656 0.046875-7.9688-169.18c-0.5625-10.312 3.1406-20.391 10.219-27.844 7.125-7.5 16.969-11.719 27.281-11.719h37.5c10.312 0 20.203 4.2188 27.281 11.672 7.125 7.5 10.828 17.578 10.219 27.891z"/>
 <path d="m1010.2 1143.7h-607.78l11.812-33.609c4.6875-13.359 14.625-24.281 27.469-30.234 12.891-5.9531 27.609-6.4219 40.875-1.3594 6.3281 2.4375 13.5 1.2188 18.75-3.1875 12.047-10.172 23.109-21.75 44.953-21.75 24.844 0 24.844-37.5 0-37.5-24 0-43.031 8.5312-61.312 24l-0.046876-0.046874c-44.906-10.875-90.797 14.016-106.12 57.656-15.328 43.688-15 41.578-15 46.031h-173.9c-20.953 0-40.688-9.75-53.438-26.344s-17.062-38.203-11.625-58.406l26.625-99.75c6.8438-25.734 28.172-45 54.469-49.219l108.38-17.344 13.547-74.578c5.0156-27.375 26.297-48.797 53.625-54.047l72.281-13.828-9.375 126.94h-22.922c-24.844 0-24.844 37.5 0 37.5l313.31 0.046876c24.797 0 24.797-37.5 0-37.5h-22.922l-10.5-140.63 191.26 182.81 52.312-9.375h-0.046875c28.781-5.25 57.656 8.7188 71.438 34.5l53.344 100.03c23.859 44.766-8.5781 99.188-59.438 99.188z"/>
</svg>
