<?xml version="1.0" encoding="UTF-8"?>
<svg width="1200pt" height="1200pt" version="1.1" viewBox="0 0 1200 1200" xmlns="http://www.w3.org/2000/svg">
 <path d="m1022.8 450c-43.594-47.484-101.2-79.875-164.44-92.438l-31.5-6.1875c-7.875-1.5469-15.844 2.0625-19.875 9-3.8906 6.9375-3 15.562 2.25 21.562l9.75 11.438-16.5 18.75c-4.5 5.1562-5.8594 12.328-3.5625 18.75 2.1562 6.3281 7.5 11.062 14.062 12.375l192.37 37.5c1.1719 0.1875 2.3906 0.1875 3.5625 0 7.1719-0.1875 13.594-4.5 16.547-11.016 2.9531-6.5625 1.9219-14.203-2.6719-19.734z"/>
 <path d="m277.5 526.31c-4.125-3.5156-6.5156-8.625-6.5625-14.062-0.09375-5.4375 2.1562-10.641 6.1875-14.25l25.125-22.5c3.1875-2.8125 7.2188-4.4531 11.438-4.6875l81.938-4.875 66.375 54.188-183.56 6.9375z"/>
 <path d="m537 532.87-92.625-75 49.312-16.688c5.5312-1.9219 11.625-1.1719 16.5 2.0625l35.062 23.25c3.8438 2.5781 8.5312 3.6562 13.125 3l48.562-6.9375c2.25-0.375 4.4062-1.125 6.375-2.25l18.75-10.312 92.625 34.5c0.98438 0.42188 1.6875 1.3594 1.875 2.4375 0.23438 1.5-0.75 2.9062-2.25 3.1875z"/>
 <path d="m1111.7 508.13-921 131.26 76.875-46.125 26.25-29.438 212.44-7.875 14.438 11.812c3.4688 2.625 7.6406 4.0781 12 4.125 1.3594 0.1875 2.7656 0.1875 4.125 0l196.13-45.188c17.297-4.125 29.906-19.031 31.078-36.75 1.125-17.766-9.4219-34.172-26.016-40.5l-63-24 46.5-25.875c2.0625-1.125 4.2656-1.875 6.5625-2.25l11.062-1.5-10.688-14.438-18.75 7.3125c-4.6406 1.8281-9.7969 1.7812-14.344-0.1875-4.5938-1.9688-8.2031-5.6719-10.031-10.312-1.8281-4.6406-1.7812-9.7969 0.1875-14.344 1.9688-4.5938 5.6719-8.2031 10.312-10.031l31.5-12.562c7.9219-3.2344 17.016-0.70312 22.125 6.1875l31.125 42 1.5 3-1.125 1.125c-10.922 12.656-14.297 30.141-8.9062 45.984 5.3906 15.797 18.797 27.562 35.156 30.891l192.37 37.5c3 0.28125 6 0.28125 9 0 16.875 0.51562 32.672-8.1094 41.438-22.5 3.0469-5.2969 4.9688-11.156 5.625-17.25 19.594 12 38.344 25.312 56.062 39.938z"/>
 <path d="m1106.3 712.5h-265.5c29.672-8.2969 58.547-19.312 86.25-32.812 47.859-23.812 91.641-54.984 129.74-92.438l39.562-38.812-337.5 48-52.688 58.688c-3.0938 3.4688-7.3594 5.6719-12 6.1875l-241.13 26.062h-2.0625c-10.359 0.51562-19.172-7.4531-19.688-17.812s7.4531-19.172 17.812-19.688l234.56-25.312 18.75-20.062-533.63 76.312 18.75 31.688h-93.75c-10.359 0-18.75 8.3906-18.75 18.75s8.3906 18.75 18.75 18.75h1012.5c10.359 0 18.75-8.3906 18.75-18.75s-8.3906-18.75-18.75-18.75z"/>
 <path d="m675 806.26h-337.5c-10.359 0-18.75-8.3906-18.75-18.75 0-10.359 8.3906-18.75 18.75-18.75h337.5c10.359 0 18.75 8.3906 18.75 18.75 0 10.359-8.3906 18.75-18.75 18.75z"/>
 <path d="m862.5 806.26h-131.26c-10.359 0-18.75-8.3906-18.75-18.75 0-10.359 8.3906-18.75 18.75-18.75h131.26c10.359 0 18.75 8.3906 18.75 18.75 0 10.359-8.3906 18.75-18.75 18.75z"/>
 <path d="m543.74 862.5h-75c-10.359 0-18.75-8.3906-18.75-18.75s8.3906-18.75 18.75-18.75h75c10.359 0 18.75 8.3906 18.75 18.75s-8.3906 18.75-18.75 18.75z"/>
 <path d="m731.26 862.5h-131.26c-10.359 0-18.75-8.3906-18.75-18.75s8.3906-18.75 18.75-18.75h131.26c10.359 0 18.75 8.3906 18.75 18.75s-8.3906 18.75-18.75 18.75z"/>
</svg>
