<?xml version="1.0" encoding="UTF-8"?>
<svg width="1200pt" height="1200pt" version="1.1" viewBox="0 0 1200 1200" xmlns="http://www.w3.org/2000/svg">
 <path d="m1068.7 112.5c-51.703 0-93.75 42.047-93.75 93.75v57.797c-42.422 8.1562-85.078 15.141-127.82 20.531-13.125 1.5469-16.688 13.5-17.719 24.844l-14.812-7.4062c-15.703-8.5312-27.891 10.688-37.688 19.547-3.9375-12.562-7.4531-28.688-24.141-27.469-114.8 8.8594-228.61 7.7344-342.37-3.1875-6.375-0.51562-12.469 2.0156-16.453 6.9375l-26.109 32.672-5.2031-31.312c-1.3594-8.1562-7.9219-14.438-16.125-15.516-40.688-5.25-81.188-12-121.5-19.734v-57.75c-4.2656-123.84-183.05-124.26-187.5 0 0.046875 27.469-0.046875 667.45 0 700.26 0 61.359 42 114 102.14 128.02 64.594 15.047 131.26 27.141 198.1 35.859 15.188 2.9062 21.984-15.375 28.359-25.406 2.4375 12.422 3.4688 29.578 19.641 31.031 71.531 7.5938 143.63 11.484 214.26 11.484 37.547 0 75.844-1.1719 117.09-3.5625 4.5938-0.23438 8.9531-2.2031 12.188-5.4375l20.719-20.719 5.4844 5.4844c8.4375 9.0469 24.797 6.375 30.047-4.875l19.406-38.812 18 42.047c3.2812 7.6406 11.016 12.281 19.453 11.25 73.875-8.9062 147.32-21.844 218.34-38.391 59.906-13.969 101.72-66.562 101.72-127.92v-700.26c0-51.703-42.047-93.75-93.75-93.75zm-54.703 767.86c5.8594-14.531 18.141-26.203 32.625-31.969l18.656 46.688c-16.594 13.359-45.141 4.7344-51.797-13.5 0.14062-0.42188 0.28125-0.84375 0.46875-1.2656zm-860.68-32.062c14.859 5.6719 27.609 18.562 33.047 33.328-6.6094 18.141-35.156 26.906-51.797 13.5l18.703-46.828zm971.63 58.219c0 43.828-29.906 81.422-72.75 91.406-65.203 15.234-132.52 27.281-200.34 35.953l-28.406-66.234c-5.5312-14.531-27.703-14.859-33.984-0.98438 0 0-25.875 51.75-26.203 51.375-7.3125-7.3125-19.172-7.3125-26.531 0l-28.922 28.922c-104.06 5.7656-200.95 3.375-304.45-6.75l-10.031-50.109c-1.5-7.5938-7.5469-13.5-15.188-14.812-7.7344-1.3594-15.281 2.1562-19.266 8.8125l-28.5 47.484c-61.547-8.4375-122.81-19.688-182.29-33.562-43.078-10.031-73.172-47.672-73.172-91.5v-21.938c6.0938-18.375 20.766-32.391 38.672-38.016l-18.562 46.453c-2.5781 6.4219-1.4062 13.688 3 18.984 41.578 55.219 138.84 18.234 126.89-51v-558.79c34.172 6.4219 68.484 12.234 102.94 16.875l9.8438 59.016c2.0625 15.609 23.672 21.188 33.141 8.625l46.031-57.562c107.77 9.7969 215.29 10.969 324.14 3.375 6.6562 16.031 7.9219 39.094 23.344 42 6.375 1.5 12.984-0.375 17.578-4.9688l27.938-27.938c12.141 4.7812 30.141 19.969 42.328 12.656 11.766-4.6406 11.062-24.188 13.406-34.266 36.562-4.8281 72.984-10.922 109.31-17.719v558.74c-1.3125 9-1.0312 18.141 1.1719 26.672 14.156 54.938 90.938 69.469 125.72 24.328 4.4062-5.2969 5.5781-12.562 3-18.984l-18.562-46.453c17.906 5.625 32.531 19.641 38.672 38.016v21.984z"/>
 <path d="m806.26 670.22c-77.859 0-141.24 63.328-141.24 141.24 7.4062 187.22 275.06 187.18 282.47 0 0-77.859-63.328-141.24-141.24-141.24zm0 262.08c-66.656 0-120.89-54.234-120.89-120.89 6.0938-160.13 235.69-160.08 241.74 0 0 66.656-54.234 120.89-120.89 120.89z"/>
 <path d="m712.5 543.74c22.781-0.046876 179.95 0.046874 206.26 0 11.062 0.23437 20.391-10.453 18.562-21.422l-18.75-131.26c-1.7344-15.844-23.672-21.844-33.234-9.0469l-61.922 77.391-22.688-22.688c-8.4375-9-24.797-6.375-30.047 4.875l-32.297 64.641h-25.922c-24.656 0.42188-24.656 37.078 0 37.5z"/>
 <path d="m468.74 506.26h112.5c66.422-0.9375 76.828-95.016 13.125-110.95-20.719-50.719-98.109-51.516-119.34-1.1719-78-5.4844-84.75 109.03-6.2812 112.12zm0-75c3.2812 0 6.4688 0.9375 9.5156 2.7656 11.297 7.2656 27.609-1.0781 28.312-14.484 2.6719-32.203 48.984-34.5 55.359-3.2344 1.8281 9.3281 10.594 15.891 20.016 15 24.094 1.2656 23.531 37.125-0.70312 37.5h-112.5c-24.609-0.42188-24.656-37.078 0-37.5z"/>
 <path d="m356.26 712.5c-62.016 0-112.5 50.484-112.5 112.5 5.2969 148.87 219.74 148.87 225 0 0-62.016-50.484-112.5-112.5-112.5zm0 187.5c-99.141-3.1406-99.094-146.86 0-150 99.141 3.1406 99.094 146.86 0 150z"/>
 <path d="m356.26 768.74c-74.156 1.9219-74.156 110.58 0 112.5 74.156-1.9219 74.156-110.58 0-112.5z"/>
 <path d="m515.63 806.26h-9.375c-24.656 0.42188-24.656 37.078 0 37.5h9.375c24.656-0.42187 24.656-37.078 0-37.5z"/>
 <path d="m463.78 567.1c-16.781-0.70312-42.609 8.4844-34.172 29.625 3.0469 7.125 9.9375 11.391 17.25 11.391 6.1875 0.046875 10.828-3.9375 17.531-3.4688 24.703-0.5625 24.047-37.219-0.5625-37.5z"/>
 <path d="m805.36 611.16c-10.453-1.3594-19.312 6.0938-20.578 16.312-2.2031 21.328 22.781 23.625 38.438 21.141 24.422-3.2812 20.062-39.891-4.4531-37.266-4.1719 0.46875-8.2969 0.42188-13.453-0.23438z"/>
 <path d="m716.39 599.53c-24.516-2.8125-29.203 33.609-4.875 37.172 1.5938 0.1875 19.125 2.625 20.25 2.4844 23.016-0.1875 25.359-34.125 2.4375-37.312z"/>
 <path d="m527.53 678.1-16.922-6.1406c-23.297-7.875-35.859 26.438-12.797 35.25 4.5938 1.3125 18.562 7.6875 23.297 7.2656 20.391 0.375 26.016-29.531 6.375-36.375z"/>
 <path d="m555.94 578.63-17.812-2.3438c-24.562-2.8594-29.156 33.656-4.8281 37.172 1.5938 0.1875 19.172 2.625 20.25 2.4844 23.016-0.1875 25.406-34.125 2.3906-37.359z"/>
 <path d="m426.1 678.1c19.453 14.859 42.234-14.719 22.875-29.719-2.7188-2.1094-4.9219-4.6406-6.5156-7.6406-4.9219-9.0938-16.312-12.469-25.406-7.5469-20.016 11.578-4.7812 35.109 9.0938 44.906z"/>
 <path d="m583.64 791.29c-2.4375 3.1875-5.3438 5.9531-8.6719 8.2031-8.5312 5.8594-10.734 17.531-4.875 26.062 5.9062 8.5781 17.625 10.688 26.062 4.875 13.875-8.7656 31.219-28.734 13.734-42.703-8.2969-6.3281-20.016-4.6875-26.297 3.5156z"/>
 <path d="m598.87 707.58c-19.641-14.672-42.094 15.094-22.547 29.953 3.1875 2.4375 6 5.3438 8.2969 8.625 5.9531 8.5781 17.719 10.547 26.109 4.6875 18.047-13.219 1.5938-33.891-11.859-43.266z"/>
 <path d="m645.05 590.26-17.812-2.3438c-24.516-2.9062-29.203 33.656-4.8281 37.172 1.5938 0.1875 19.172 2.625 20.25 2.4844 23.016-0.1875 25.406-34.125 2.3906-37.312z"/>
 <path d="m863.48 575.29c-15.797 24.75 15.141 47.812 31.125 22.828 7.2656-11.719 8.2031-29.578-7.3594-34.641-9.7969-3.2344-20.438 2.0156-23.766 11.812z"/>
 <path d="m300 487.5h56.25c20.719 0 37.5 20.719 37.5 37.5v75c0 20.719-16.781 37.5-37.5 37.5h-56.25c-20.719 0-37.5-20.719-37.5-37.5v-75c0-20.719 16.781-37.5 37.5-37.5z"/>
 <path d="m806.26 697.36c-62.906 0-114.09 51.188-114.09 114.09 5.3438 150.98 222.84 150.98 228.19 0 0-62.906-51.188-114.09-114.09-114.09zm0 216.24c-56.297 0-102.14-45.844-102.14-102.14 4.7812-135.19 199.45-135.14 204.24 0 0 56.297-45.797 102.14-102.14 102.14z"/>
 <path d="m865.87 751.82-44.812 25.078-14.766-64.828-14.766 64.781-44.812-25.031 25.031 44.766-64.734 14.812 64.734 14.812-25.031 44.766 44.766-25.031 14.812 64.734 14.812-64.781 44.766 25.078-25.078-44.812 64.828-14.766-64.828-14.812 25.078-44.812zm-59.625 72.562c-20.344-0.09375-20.344-31.031 0-31.125 20.344 0.09375 20.344 31.031 0 31.125z"/>
</svg>
