<?xml version="1.0" encoding="UTF-8"?>
<svg width="1200pt" height="1200pt" version="1.1" viewBox="0 0 1200 1200" xmlns="http://www.w3.org/2000/svg">
 <path d="m884.58 331.22c-8.25 75.422-72.562 134.39-150.19 134.39h-49.406c8.25-75.422 72.562-134.39 150.19-134.39z"/>
 <path d="m884.58 331.22c-8.25 75.422-72.562 134.39-150.19 134.39h-49.406c8.25-75.422 72.562-134.39 150.19-134.39z"/>
 <path d="m514.97 465.61h-49.406c-77.625 0-141.94-58.969-150.19-134.39h49.406c77.625 0 141.94 58.969 150.19 134.39z"/>
 <path d="m514.97 465.61h-49.406c-77.625 0-141.94-58.969-150.19-134.39h49.406c77.625 0 141.94 58.969 150.19 134.39z"/>
 <path d="m465.61 465.61c-77.625 0-141.94-58.969-150.19-134.39h49.406c77.625 0 141.94 58.969 150.19 134.39z"/>
 <path d="m835.22 331.22c-77.625 0-141.94 58.969-150.19 134.39h49.406c77.625 0 141.94-58.969 150.19-134.39zm0 0c-77.625 0-141.94 58.969-150.19 134.39h49.406c77.625 0 141.94-58.969 150.19-134.39zm-150.19 134.39h49.406c77.625 0 141.94-58.969 150.19-134.39h-49.406c-77.625 0-141.94 58.969-150.19 134.39zm49.406 33.609h-67.219c-9.2344 0-16.781-7.5469-16.781-16.781 0-101.95 82.828-184.78 184.78-184.78h67.219c9.2344 0 16.781 7.5469 16.781 16.781 0 101.95-82.828 184.78-184.78 184.78zm-201.61 0h-67.219c-101.95 0-184.78-82.828-184.78-184.78 0-9.2344 7.5469-16.781 16.781-16.781h67.219c101.95 0 184.78 82.828 184.78 184.78 0 9.2344-7.5469 16.781-16.781 16.781zm223.6-268.78c-9.75 0-18.797 3.8438-25.688 10.734-34.922 34.922-81.328 54.094-130.69 54.094-49.406 0-95.766-19.172-130.69-54.094-6.8906-6.8906-15.938-10.734-25.688-10.734h-280.4v117.61c0 120.47 97.922 218.39 218.39 218.39h436.78c26.719 0 52.734-4.875 77.438-14.297 0.1875-0.1875 0.51562-0.1875 0.65625-0.32812 11.766-4.3594 23.344-9.8906 34.266-16.641 2.8594-1.6875 5.8594-3.5156 8.5781-5.3906 0 0 0.1875 0 0.1875-0.1875 2.8594-1.8281 5.5312-3.8438 8.25-5.8594 3.7031-2.6719 7.4062-5.5312 10.922-8.5781 49.734-41.484 78.141-102.47 78.141-167.16v-117.61h-280.4zm78.797 100.78c-77.625 0-141.94 58.969-150.19 134.39h49.406c77.625 0 141.94-58.969 150.19-134.39zm0 0c-77.625 0-141.94 58.969-150.19 134.39h49.406c77.625 0 141.94-58.969 150.19-134.39z"/>
 <path d="m514.97 465.61h-49.406c-77.625 0-141.94-58.969-150.19-134.39h49.406c77.625 0 141.94 58.969 150.19 134.39z"/>
 <path d="m835.22 331.22c-77.625 0-141.94 58.969-150.19 134.39h49.406c77.625 0 141.94-58.969 150.19-134.39zm0 0c-77.625 0-141.94 58.969-150.19 134.39h49.406c77.625 0 141.94-58.969 150.19-134.39zm-150.19 134.39h49.406c77.625 0 141.94-58.969 150.19-134.39h-49.406c-77.625 0-141.94 58.969-150.19 134.39zm49.406 33.609h-67.219c-9.2344 0-16.781-7.5469-16.781-16.781 0-101.95 82.828-184.78 184.78-184.78h67.219c9.2344 0 16.781 7.5469 16.781 16.781 0 101.95-82.828 184.78-184.78 184.78zm-201.61 0h-67.219c-101.95 0-184.78-82.828-184.78-184.78 0-9.2344 7.5469-16.781 16.781-16.781h67.219c101.95 0 184.78 82.828 184.78 184.78 0 9.2344-7.5469 16.781-16.781 16.781zm223.6-268.78c-9.75 0-18.797 3.8438-25.688 10.734-34.922 34.922-81.328 54.094-130.69 54.094-49.406 0-95.766-19.172-130.69-54.094-6.8906-6.8906-15.938-10.734-25.688-10.734h-280.4v117.61c0 120.47 97.922 218.39 218.39 218.39h436.78c26.719 0 52.734-4.875 77.438-14.297 0.1875-0.1875 0.51562-0.1875 0.65625-0.32812 11.766-4.3594 23.344-9.8906 34.266-16.641 2.8594-1.6875 5.8594-3.5156 8.5781-5.3906 0 0 0.1875 0 0.1875-0.1875 2.8594-1.8281 5.5312-3.8438 8.25-5.8594 3.7031-2.6719 7.4062-5.5312 10.922-8.5781 49.734-41.484 78.141-102.47 78.141-167.16v-117.61h-280.4zm78.797 100.78c-77.625 0-141.94 58.969-150.19 134.39h49.406c77.625 0 141.94-58.969 150.19-134.39zm0 0c-77.625 0-141.94 58.969-150.19 134.39h49.406c77.625 0 141.94-58.969 150.19-134.39z"/>
 <path d="m952.78 561.19v408.42h-33.609v-390.61c11.578-5.0625 22.828-11.109 33.609-17.812z"/>
 <path d="m952.78 561.19v408.42h-33.609v-390.61c11.578-5.0625 22.828-11.109 33.609-17.812z"/>
</svg>
