<?xml version="1.0" encoding="UTF-8"?>
<svg width="1200pt" height="1200pt" version="1.1" viewBox="0 0 1200 1200" xmlns="http://www.w3.org/2000/svg">
 <path d="m482.53 348h108.61c0.98438 0 5.9062 1.4531 12.047 6.75 20.25 18.984 35.578 43.219 49.781 64.875-74.906-16.031-147.66-30.75-211.55-39.375 11.156-14.625 24.188-28.453 41.109-32.25zm-144.79 48c140.63 0 394.26 71.391 600.32 107.62 57.703 16.266 117.28 30.891 171.94 55.875v12c-45.375-12.703-92.016-28.5-136.87-25.125-6.8906 1.3125-14.812 3.9844-18.844 12-3.8438 7.6406-1.1719 16.594 2.625 22.125 22.969 26.016 61.5 40.781 94.266 54.375-54 16.125-122.16 24.844-190.82 25.125-37.031-24.328-98.156-60-172.69-60-72.469-1.875-154.55 0.46875-194.95 55.5-9.9375 14.062-14.484 31.875-12.422 52.125-123.47-6.2812-253.03-7.2188-361.64-49.125 17.062-31.828 24.844-64.5 26.016-94.125 1.125-28.875-8.25-53.672-25.641-82.5 7.5-2.8594 13.969-8.25 19.969-12.75 39.797 59.859 110.3 94.875 162.52 94.875 4.9688 0 9.75-3.5156 11.297-8.25l12.047-36c2.2969-6.6562-2.7656-14.812-9.7969-15.75-47.578-10.172-89.531-31.547-118.41-70.125 50.391-25.406 96.609-37.312 141.05-37.875zm699.89 12c48.375 6.8906 92.484 19.688 138.37 31.5l-58.828 97.125c-26.906-12.281-76.688-31.078-152.72-51 21.469-24.281 38.484-47.578 60.328-69.75 6.7969-6.0469 12.469-7.875 12.844-7.875zm-862.4 37.5c8.625 12.891 22.688 27.562 41.484 41.625l-13.969 13.875c-16.828-12.422-31.922-27.703-43.734-45.375 5.3438-3.4219 10.641-6.8906 16.219-10.125zm-77.672 47.25c15.656 26.344 23.859 48.375 23.016 70.5-1.0781 26.812-8.9531 57.141-25.266 86.625-34.172-13.031-71.297-38.016-71.25-73.875 5.6719-45.844 38.297-65.203 73.547-83.25zm139.92 7.875c17.859 10.172 38.531 18.422 60.703 23.25l-4.9219 14.625c-20.297-1.7812-45.188-10.5-69.375-24.375zm220.97 39.375v24h60.328v-24zm96.516 0v24h60.328v-24zm96.516 0v24h60.328v-24zm96.516 0v24h60.328v-24zm369.94 59.25c16.172 5.8125 26.297 15.094 29.391 28.5-12.328 6-43.312 0-58.828-3.75-37.406-9.375-78.984-27-108.98-54.375 48.234 1.0312 92.25 14.766 138.37 29.625zm-430.26 24.75c67.172 0 124.45 32.672 160.26 56.25 52.781 36.094 133.55 86.953 139.92 133.13-29.953 13.641-65.953 18.938-93.891 23.625-42.234 6.5625-79.547 12.047-121.78 15-37.125-12.844-77.391-35.109-110.48-52.875-53.812-28.922-113.95-63.047-156.1-87-3.75-18.797-0.5625-31.875 7.1719-42.75 48.797-50.062 110.48-46.266 174.98-45.375z"/>
</svg>
