<?xml version="1.0" encoding="UTF-8"?>
<svg width="1200pt" height="1200pt" version="1.1" viewBox="0 0 1200 1200" xmlns="http://www.w3.org/2000/svg">
 <path d="m747.95 690.65h433.64c-10.449-33.801-29.352-59.852-57.738-75.148-42.648-22.949-160.35-79.102-279.6-133.95z"/>
 <path d="m764.94 445.6-116.49 245h44.449l105.85-229.8c-11.398-5.1523-22.648-10.199-33.812-15.199z"/>
 <path d="m493 690.65 140.75-302.75c-26.113-11.102-48.949-20.5-66-26.949-9.5-3.5-20.352-1.0508-27.25 6.5508-39 42.602-138.25 88.199-223.6 88.199-31.551 0-74.801-6.5-101.5-37.648-26.75-31.148-64.352-49.699-100.75-49.699-48.801 0-105.75 34.75-105.75 132.7v189.55h484.1z"/>
 <path d="m679.7 407.7-131.55 282.9h44.949l126.15-265.55c-13.602-6-26.75-11.75-39.551-17.352z"/>
 <path d="m8.8984 740.65v75c0 13.75 11.199 25 25 25h1065.5c24.398 0 48.301-10 65.438-27.5 17.211-17.449 26.762-41.488 26.211-65.949-0.0625-2.3516-0.64844-4.1992-0.75-6.5391l-1181.4 0.003906z"/>
</svg>
