<?xml version="1.0" encoding="UTF-8"?>
<svg width="1200pt" height="1200pt" version="1.1" viewBox="0 0 1200 1200" xmlns="http://www.w3.org/2000/svg">
 <path d="m116.07 899.91h967.86c9.3203-0.007812 18.258-3.7188 24.848-10.309 6.5898-6.5898 10.301-15.527 10.309-24.848v-105.47h-1038.2v105.47c0.007813 9.3203 3.7188 18.258 10.309 24.848 6.5898 6.5898 15.527 10.301 24.848 10.309zm476.95-105.47c9.3242 0 18.266 3.7031 24.859 10.297s10.297 15.535 10.297 24.859c0 9.3242-3.7031 18.266-10.297 24.859s-15.535 10.297-24.859 10.297c-9.3242 0-18.266-3.7031-24.859-10.297s-10.297-15.535-10.297-24.859c0.007812-9.3203 3.7148-18.258 10.309-24.848 6.5898-6.5898 15.527-10.297 24.848-10.309z"/>
 <path d="m1119.1 147.57c-0.007813-9.3203-3.7188-18.258-10.309-24.848s-15.527-10.297-24.848-10.309h-967.86c-9.3203 0.011719-18.258 3.7188-24.848 10.309s-10.301 15.527-10.309 24.848v588.28h1038.2zm-742.03 370.31c-4.7383 0-9.0117-2.8555-10.824-7.2344-1.8125-4.3789-0.8125-9.418 2.5391-12.77l224.01-224.01c2.1875-2.2422 5.1836-3.5156 8.3164-3.5391 3.1328-0.019531 6.1445 1.2188 8.3594 3.4336 2.2148 2.2188 3.4531 5.2266 3.4336 8.3633-0.023438 3.1328-1.2969 6.1289-3.5391 8.3164l-224.01 224.01c-2.1953 2.1992-5.1758 3.4336-8.2852 3.4258zm295.59-98.203-94.77 94.777c-4.582 4.543-11.973 4.5273-16.535-0.035156s-4.5781-11.957-0.035157-16.539l94.766-94.766v0.003907c4.5938-4.4805 11.934-4.4336 16.469 0.10547 4.5352 4.5352 4.582 11.875 0.10156 16.465z"/>
 <path d="m475.84 923.35v58.773c-0.019532 15.535-6.1953 30.426-17.184 41.41-10.984 10.988-25.875 17.164-41.41 17.184-13.504 0.015625-26.586 4.6875-37.047 13.227-10.457 8.5391-17.656 20.422-20.375 33.648h466.41c-2.7188-13.227-9.9141-25.113-20.375-33.648-10.461-8.5391-23.543-13.211-37.047-13.227h-175.78c-6.4727 0-11.719-5.2461-11.719-11.719s5.2461-11.719 11.719-11.719h128.94c-7.6367-10.129-11.762-22.473-11.75-35.156v-58.773z"/>
 <path d="m604.74 829.6c0 6.4727-5.2461 11.719-11.719 11.719-6.4727 0-11.719-5.2461-11.719-11.719s5.2461-11.719 11.719-11.719c6.4727 0 11.719 5.2461 11.719 11.719z"/>
</svg>
