<?xml version="1.0" encoding="UTF-8"?>
<svg width="1200pt" height="1200pt" version="1.1" viewBox="0 0 1200 1200" xmlns="http://www.w3.org/2000/svg">
 <path d="m558.94 635.39c0-27.469 22.312-49.781 49.781-49.781s49.922 22.312 49.922 49.781-22.312 49.781-49.922 49.781-49.781-22.312-49.781-49.781z"/>
 <path d="m608.76 486c-82.312 0-149.39 66.938-149.39 149.39 0 82.453 67.078 149.39 149.39 149.39 82.309 0 149.53-66.938 149.53-149.39 0-82.453-67.078-149.39-149.53-149.39zm0 258.61c-60.141 0-109.08-48.938-109.08-109.22 0-60.234 48.938-109.22 109.08-109.22s109.22 48.938 109.22 109.22c0 60.234-48.938 109.22-109.22 109.22zm0-258.61c-82.312 0-149.39 66.938-149.39 149.39 0 82.453 67.078 149.39 149.39 149.39 82.309 0 149.53-66.938 149.53-149.39 0-82.453-67.078-149.39-149.53-149.39zm0 258.61c-60.141 0-109.08-48.938-109.08-109.22 0-60.234 48.938-109.22 109.08-109.22s109.22 48.938 109.22 109.22c0 60.234-48.938 109.22-109.22 109.22zm0-258.61c-82.312 0-149.39 66.938-149.39 149.39 0 82.453 67.078 149.39 149.39 149.39 82.309 0 149.53-66.938 149.53-149.39 0-82.453-67.078-149.39-149.53-149.39zm0 258.61c-60.141 0-109.08-48.938-109.08-109.22 0-60.234 48.938-109.22 109.08-109.22s109.22 48.938 109.22 109.22c0 60.234-48.938 109.22-109.22 109.22zm317.29-172.22-2.3906-3.7031-0.375-0.84375 3.6094-2.2969 3.6094-2.3906 0.46875 0.70312 69.469-45.844-2.1562-0.9375-31.688-0.375c-0.14062 2.3906-1.9219 4.2188-4.3125 4.2188-2.5312 0-4.4531-1.9219-4.4531-4.3125v-7.2188l-42.844 28.312 0.70312 1.0781-3.7031 2.3906-3.6094 2.3906-0.70312-1.0781-2.2969-3.8438-2.2969-3.7031-3-4.9219-69.703 42.609 0.375 0.46875 1.0781 1.9219h0.14062l0.60938 0.9375 1.5469 2.8594 2.2969 3.6094-3.6094 2.3906-3.7031 2.3906-0.23438 0.23438-9.375 6.1406c-3.8438 2.5312-6.375 6.4688-7.3125 10.922-0.9375 4.5469-0.14062 9.1406 2.3906 12.938 2.5312 3.8438 6.4688 6.4688 10.922 7.4531 4.5469 0.9375 9.1406 0 12.938-2.5312l8.625-5.7656 3.7031-2.2969 3.6094-2.3906 2.2969 3.6094 2.2969 3.8438h0.14063l1.7812 3 0.60937 1.0781 69.703-42.609-2.8594-4.7812-2.2969-3.7031zm-317.29-86.391c-82.312 0-149.39 66.938-149.39 149.39 0 82.453 67.078 149.39 149.39 149.39 82.309 0 149.53-66.938 149.53-149.39 0-82.453-67.078-149.39-149.53-149.39zm0 258.61c-60.141 0-109.08-48.938-109.08-109.22 0-60.234 48.938-109.22 109.08-109.22s109.22 48.938 109.22 109.22c0 60.234-48.938 109.22-109.22 109.22zm0-258.61c-82.312 0-149.39 66.938-149.39 149.39 0 82.453 67.078 149.39 149.39 149.39 82.309 0 149.53-66.938 149.53-149.39 0-82.453-67.078-149.39-149.53-149.39zm0 258.61c-60.141 0-109.08-48.938-109.08-109.22 0-60.234 48.938-109.22 109.08-109.22s109.22 48.938 109.22 109.22c0 60.234-48.938 109.22-109.22 109.22zm317.29-172.22-2.3906-3.7031-0.375-0.84375 3.6094-2.2969 3.6094-2.3906 0.46875 0.70312 69.469-45.844-2.1562-0.9375-31.688-0.375c-0.14062 2.3906-1.9219 4.2188-4.3125 4.2188-2.5312 0-4.4531-1.9219-4.4531-4.3125v-7.2188l-42.844 28.312 0.70312 1.0781-3.7031 2.3906-3.6094 2.3906-0.70312-1.0781-2.2969-3.8438-2.2969-3.7031-3-4.9219-69.703 42.609 0.375 0.46875 1.0781 1.9219h0.14062l0.60938 0.9375 1.5469 2.8594 2.2969 3.6094-3.6094 2.3906-3.7031 2.3906-0.23438 0.23438-9.375 6.1406c-3.8438 2.5312-6.375 6.4688-7.3125 10.922-0.9375 4.5469-0.14062 9.1406 2.3906 12.938 2.5312 3.8438 6.4688 6.4688 10.922 7.4531 4.5469 0.9375 9.1406 0 12.938-2.5312l8.625-5.7656 3.7031-2.2969 3.6094-2.3906 2.2969 3.6094 2.2969 3.8438h0.14063l1.7812 3 0.60937 1.0781 69.703-42.609-2.8594-4.7812-2.2969-3.7031zm-317.29-86.391c-82.312 0-149.39 66.938-149.39 149.39 0 82.453 67.078 149.39 149.39 149.39 82.309 0 149.53-66.938 149.53-149.39 0-82.453-67.078-149.39-149.53-149.39zm0 258.61c-60.141 0-109.08-48.938-109.08-109.22 0-60.234 48.938-109.22 109.08-109.22s109.22 48.938 109.22 109.22c0 60.234-48.938 109.22-109.22 109.22zm0-258.61c-82.312 0-149.39 66.938-149.39 149.39 0 82.453 67.078 149.39 149.39 149.39 82.309 0 149.53-66.938 149.53-149.39 0-82.453-67.078-149.39-149.53-149.39zm0 258.61c-60.141 0-109.08-48.938-109.08-109.22 0-60.234 48.938-109.22 109.08-109.22s109.22 48.938 109.22 109.22c0 60.234-48.938 109.22-109.22 109.22zm393-227.39h-0.84375l-2.625-0.14062-31.688-0.375c-0.14062 2.3906-1.9219 4.2188-4.3125 4.2188-2.5312 0-4.4531-1.9219-4.4531-4.3125v-7.2188l-42.844 28.312 0.70312 1.0781-3.7031 2.3906-3.6094 2.3906-0.70312-1.0781-2.2969-3.8438-2.2969-3.7031-3-4.9219-69.703 42.609 0.375 0.46875 1.0781 1.9219h0.14062l0.60938 0.9375 1.5469 2.8594 2.2969 3.6094-3.6094 2.3906-3.7031 2.3906-0.23438 0.23437-9.375 6.1406c-3.8438 2.5312-6.375 6.4688-7.3125 10.922-0.9375 4.5469-0.14062 9.1406 2.3906 12.938 2.5312 3.8438 6.4688 6.4688 10.922 7.4531 4.5469 0.9375 9.1406 0 12.938-2.5312l8.625-5.7656 3.7031-2.2969 3.6094-2.3906 2.2969 3.6094 2.2969 3.8438h0.14062l1.7812 3 0.60938 1.0781 69.703-42.609-2.8594-4.7812-2.2969-3.7031-2.3906-3.7031-0.375-0.84375 3.6094-2.2969 3.6094-2.3906 0.46875 0.70312 69.469-45.844 0.70312 0.375s-0.23438-0.46875-0.14062-0.70312l0.70312-0.46875zm-393-31.219c-82.312 0-149.39 66.938-149.39 149.39 0 82.453 67.078 149.39 149.39 149.39 82.309 0 149.53-66.938 149.53-149.39 0-82.453-67.078-149.39-149.53-149.39zm0 258.61c-60.141 0-109.08-48.938-109.08-109.22 0-60.234 48.938-109.22 109.08-109.22s109.22 48.938 109.22 109.22c0 60.234-48.938 109.22-109.22 109.22zm0-258.61c-82.312 0-149.39 66.938-149.39 149.39 0 82.453 67.078 149.39 149.39 149.39 82.309 0 149.53-66.938 149.53-149.39 0-82.453-67.078-149.39-149.53-149.39zm0 258.61c-60.141 0-109.08-48.938-109.08-109.22 0-60.234 48.938-109.22 109.08-109.22s109.22 48.938 109.22 109.22c0 60.234-48.938 109.22-109.22 109.22zm0-258.61c-82.312 0-149.39 66.938-149.39 149.39 0 82.453 67.078 149.39 149.39 149.39 82.309 0 149.53-66.938 149.53-149.39 0-82.453-67.078-149.39-149.53-149.39zm0 258.61c-60.141 0-109.08-48.938-109.08-109.22 0-60.234 48.938-109.22 109.08-109.22s109.22 48.938 109.22 109.22c0 60.234-48.938 109.22-109.22 109.22zm0-258.61c-82.312 0-149.39 66.938-149.39 149.39 0 82.453 67.078 149.39 149.39 149.39 82.309 0 149.53-66.938 149.53-149.39 0-82.453-67.078-149.39-149.53-149.39zm0 258.61c-60.141 0-109.08-48.938-109.08-109.22 0-60.234 48.938-109.22 109.08-109.22s109.22 48.938 109.22 109.22c0 60.234-48.938 109.22-109.22 109.22zm0-258.61c-82.312 0-149.39 66.938-149.39 149.39 0 82.453 67.078 149.39 149.39 149.39 82.309 0 149.53-66.938 149.53-149.39 0-82.453-67.078-149.39-149.53-149.39zm0 258.61c-60.141 0-109.08-48.938-109.08-109.22 0-60.234 48.938-109.22 109.08-109.22s109.22 48.938 109.22 109.22c0 60.234-48.938 109.22-109.22 109.22zm0-258.61c-82.312 0-149.39 66.938-149.39 149.39 0 82.453 67.078 149.39 149.39 149.39 82.309 0 149.53-66.938 149.53-149.39 0-82.453-67.078-149.39-149.53-149.39zm0 258.61c-60.141 0-109.08-48.938-109.08-109.22 0-60.234 48.938-109.22 109.08-109.22s109.22 48.938 109.22 109.22c0 60.234-48.938 109.22-109.22 109.22zm0-258.61c-82.312 0-149.39 66.938-149.39 149.39 0 82.453 67.078 149.39 149.39 149.39 82.309 0 149.53-66.938 149.53-149.39 0-82.453-67.078-149.39-149.53-149.39zm0 258.61c-60.141 0-109.08-48.938-109.08-109.22 0-60.234 48.938-109.22 109.08-109.22s109.22 48.938 109.22 109.22c0 60.234-48.938 109.22-109.22 109.22zm400.92-372.37v144.94s-0.14062 1.0781-0.375 1.5469v0.23438c0.70312 1.6875 0 3.7031-1.6875 4.7812l-72.141 47.531 5.3906 8.8594c1.3125 2.0625 0.60938 4.6875-1.4531 6l-77.156 47.156c-0.70312 0.375-1.4531 0.60938-2.2969 0.60938-1.4531 0-2.8594-0.70312-3.7031-2.1562l-4.6875-7.5469-8.3906 5.5312c-4.2188 2.8594-9.1406 4.3125-14.156 4.3125-1.7812 0-3.6094-0.23438-5.2969-0.60938-6.8438-1.3125-12.703-5.2969-16.547-11.062-3.7031-5.8594-5.0625-12.703-3.7031-19.547 1.4531-6.8438 5.3906-12.703 11.156-16.547l9.8438-6.4688-3.8438-6.375c-1.3125-2.1562-0.60938-4.7812 1.4531-6.1406l77.156-47.062c0.9375-0.60938 2.1562-0.84375 3.375-0.60938 1.0781 0.375 2.0625 1.0781 2.625 2.0625l5.1562 8.3906 47.391-31.219v-192.24c-3.2344-3.4688-6.6094-6.9375-9.9375-10.312-90.609-90.609-210.94-140.39-339.14-140.39-128.16 0-248.39 49.781-339 140.39-90.469 90.609-140.39 210.94-140.39 339s49.922 248.39 140.39 339c90.609 90.609 210.94 140.39 339 140.39s248.53-49.781 339.14-140.39c90.469-90.609 140.39-210.94 140.39-339 0-94.922-27.469-185.63-78.609-263.16zm-91.453 331.69c0-2.3906 1.9219-4.3125 4.3125-4.3125s4.4531 1.9219 4.4531 4.3125c0 126-102.47 228.47-228.47 228.47-2.3906 0-4.4531-1.9219-4.4531-4.3125s2.0625-4.4531 4.4531-4.4531c121.08 0 219.71-98.531 219.71-219.71zm-657.84-136.31c0 2.3906-2.0625 4.3125-4.4531 4.3125s-4.4531-1.9219-4.4531-4.3125c0-163.08 132.71-295.78 295.78-295.78 2.3906 0 4.4531 1.9219 4.4531 4.4531s-2.0625 4.3125-4.4531 4.3125c-158.29 0-286.92 128.76-286.92 287.06zm48.469-16.078c0 2.3906-2.0625 4.3125-4.4531 4.3125s-4.3125-1.9219-4.3125-4.3125c0-126 102.47-228.47 228.47-228.47 2.3906 0 4.3125 1.9219 4.3125 4.3125 0 2.5312-1.9219 4.4531-4.3125 4.4531-121.22 0-219.71 98.531-219.71 219.71zm141.74 83.859c0-87.234 71.062-158.16 158.16-158.16 87.141 0 158.29 70.922 158.29 158.16 0 87.238-71.062 158.16-158.29 158.16s-158.16-70.922-158.16-158.16zm229.08 348.24c-2.3906 0-4.3125-1.9219-4.3125-4.4531s1.9219-4.3125 4.3125-4.3125c158.29 0 287.06-128.76 287.06-287.06 0-2.3906 1.9219-4.3125 4.3125-4.3125 2.5312 0 4.4531 1.9219 4.4531 4.3125 0 163.08-132.71 295.78-295.78 295.78zm-70.922-497.63c-82.312 0-149.39 66.938-149.39 149.39 0 82.453 67.078 149.39 149.39 149.39 82.309 0 149.53-66.938 149.53-149.39 0-82.453-67.078-149.39-149.53-149.39zm0 258.61c-60.141 0-109.08-48.938-109.08-109.22 0-60.234 48.938-109.22 109.08-109.22 60.141 0 109.22 48.938 109.22 109.22 0 60.234-48.938 109.22-109.22 109.22zm0-258.61c-82.312 0-149.39 66.938-149.39 149.39 0 82.453 67.078 149.39 149.39 149.39 82.309 0 149.53-66.938 149.53-149.39 0-82.453-67.078-149.39-149.53-149.39zm0 258.61c-60.141 0-109.08-48.938-109.08-109.22 0-60.234 48.938-109.22 109.08-109.22 60.141 0 109.22 48.938 109.22 109.22 0 60.234-48.938 109.22-109.22 109.22zm0-258.61c-82.312 0-149.39 66.938-149.39 149.39 0 82.453 67.078 149.39 149.39 149.39 82.309 0 149.53-66.938 149.53-149.39 0-82.453-67.078-149.39-149.53-149.39zm0 258.61c-60.141 0-109.08-48.938-109.08-109.22 0-60.234 48.938-109.22 109.08-109.22 60.141 0 109.22 48.938 109.22 109.22 0 60.234-48.938 109.22-109.22 109.22zm0-258.61c-82.312 0-149.39 66.938-149.39 149.39 0 82.453 67.078 149.39 149.39 149.39 82.309 0 149.53-66.938 149.53-149.39 0-82.453-67.078-149.39-149.53-149.39zm0 258.61c-60.141 0-109.08-48.938-109.08-109.22 0-60.234 48.938-109.22 109.08-109.22 60.141 0 109.22 48.938 109.22 109.22 0 60.234-48.938 109.22-109.22 109.22zm393-227.39h-0.84375v-162.37c-10.688-14.766-22.078-29.062-34.312-42.469v190.22s-0.14062 0.23438-0.14062 0.375c-0.375 0.84375-0.9375 1.4531-1.6875 1.9219l-2.5312 1.6875-4.4531 2.8594-42.844 28.312 0.70313 1.0781-3.7031 2.3906-3.6094 2.3906-0.70313-1.0781-2.2969-3.8438-2.2969-3.7031-3-4.9219-69.703 42.609 0.375 0.46875 1.0781 1.9219h0.14063l0.60937 0.9375 1.5469 2.8594 2.2969 3.6094-3.6094 2.3906-3.7031 2.3906-0.23437 0.23438-9.375 6.1406c-3.8438 2.5312-6.375 6.4688-7.3125 10.922-0.9375 4.5469-0.14063 9.1406 2.3906 12.938 2.5312 3.8438 6.4688 6.4688 10.922 7.4531 4.5469 0.9375 9.1406 0 12.938-2.5312l8.625-5.7656 3.7031-2.2969 3.6094-2.3906 2.2969 3.6094 2.2969 3.8438h0.14062l1.7812 3 0.60938 1.0781 69.703-42.609-2.8594-4.7812-2.2969-3.7031-2.3906-3.7031-0.375-0.84375 3.6094-2.2969 3.6094-2.3906 0.46875 0.70313 69.469-45.844 0.70312 0.375s-0.23437-0.46875-0.14062-0.70313l0.70312-0.46875zm-393-31.219c-82.312 0-149.39 66.938-149.39 149.39 0 82.453 67.078 149.39 149.39 149.39 82.309 0 149.53-66.938 149.53-149.39 0-82.453-67.078-149.39-149.53-149.39zm0 258.61c-60.141 0-109.08-48.938-109.08-109.22 0-60.234 48.938-109.22 109.08-109.22 60.141 0 109.22 48.938 109.22 109.22 0 60.234-48.938 109.22-109.22 109.22zm0-258.61c-82.312 0-149.39 66.938-149.39 149.39 0 82.453 67.078 149.39 149.39 149.39 82.309 0 149.53-66.938 149.53-149.39 0-82.453-67.078-149.39-149.53-149.39zm0 258.61c-60.141 0-109.08-48.938-109.08-109.22 0-60.234 48.938-109.22 109.08-109.22 60.141 0 109.22 48.938 109.22 109.22 0 60.234-48.938 109.22-109.22 109.22zm393-227.39h-0.84375l-2.625-0.14062-31.688-0.375h-4.3125v-10.219l-4.4531 2.8594-42.844 28.312 0.70312 1.0781-3.7031 2.3906-3.6094 2.3906-0.70312-1.0781-2.2969-3.8438-2.2969-3.7031-3-4.9219-69.703 42.609 0.375 0.46875 1.0781 1.9219h0.14062l0.60938 0.9375 1.5469 2.8594 2.2969 3.6094-3.6094 2.3906-3.7031 2.3906-0.23438 0.23438-9.375 6.1406c-3.8438 2.5312-6.375 6.4688-7.3125 10.922-0.9375 4.5469-0.14062 9.1406 2.3906 12.938 2.5312 3.8438 6.4688 6.4688 10.922 7.4531 4.5469 0.9375 9.1406 0 12.938-2.5312l8.625-5.7656 3.7031-2.2969 3.6094-2.3906 2.2969 3.6094 2.2969 3.8438h0.14063l1.7812 3 0.60937 1.0781 69.703-42.609-2.8594-4.7812-2.2969-3.7031-2.3906-3.7031-0.375-0.84375 3.6094-2.2969 3.6094-2.3906 0.46875 0.70313 69.469-45.844 0.70313 0.375s-0.23438-0.46875-0.14063-0.70313l0.70313-0.46875zm-393-31.219c-82.312 0-149.39 66.938-149.39 149.39 0 82.453 67.078 149.39 149.39 149.39 82.309 0 149.53-66.938 149.53-149.39 0-82.453-67.078-149.39-149.53-149.39zm0 258.61c-60.141 0-109.08-48.938-109.08-109.22 0-60.234 48.938-109.22 109.08-109.22 60.141 0 109.22 48.938 109.22 109.22 0 60.234-48.938 109.22-109.22 109.22zm0-258.61c-82.312 0-149.39 66.938-149.39 149.39 0 82.453 67.078 149.39 149.39 149.39 82.309 0 149.53-66.938 149.53-149.39 0-82.453-67.078-149.39-149.53-149.39zm0 258.61c-60.141 0-109.08-48.938-109.08-109.22 0-60.234 48.938-109.22 109.08-109.22 60.141 0 109.22 48.938 109.22 109.22 0 60.234-48.938 109.22-109.22 109.22zm317.29-172.22-2.3906-3.7031-0.375-0.84375 3.6094-2.2969 3.6094-2.3906 0.46875 0.70313 69.469-45.844-2.1562-0.9375-31.688-0.375c-0.14062 2.3906-1.9219 4.2188-4.3125 4.2188-2.5312 0-4.4531-1.9219-4.4531-4.3125v-7.2188l-42.844 28.312 0.70312 1.0781-3.7031 2.3906-3.6094 2.3906-0.70312-1.0781-2.2969-3.8438-2.2969-3.7031-3-4.9219-69.703 42.609 0.375 0.46875 1.0781 1.9219h0.14062l0.60938 0.9375 1.5469 2.8594 2.2969 3.6094-3.6094 2.3906-3.7031 2.3906-0.23438 0.23437-9.375 6.1406c-3.8438 2.5312-6.375 6.4688-7.3125 10.922-0.9375 4.5469-0.14062 9.1406 2.3906 12.938 2.5312 3.8438 6.4688 6.4688 10.922 7.4531 4.5469 0.9375 9.1406 0 12.938-2.5312l8.625-5.7656 3.7031-2.2969 3.6094-2.3906 2.2969 3.6094 2.2969 3.8438h0.14062l1.7812 3 0.60938 1.0781 69.703-42.609-2.8594-4.7812-2.2969-3.7031zm75-54.703-0.60938 0.375 0.70312 0.375s-0.23438-0.46875-0.14062-0.70312zm-392.29-31.688c-82.312 0-149.39 66.938-149.39 149.39 0 82.453 67.078 149.39 149.39 149.39 82.309 0 149.53-66.938 149.53-149.39 0-82.453-67.078-149.39-149.53-149.39zm0 258.61c-60.141 0-109.08-48.938-109.08-109.22 0-60.234 48.938-109.22 109.08-109.22 60.141 0 109.22 48.938 109.22 109.22 0 60.234-48.938 109.22-109.22 109.22zm0-258.61c-82.312 0-149.39 66.938-149.39 149.39 0 82.453 67.078 149.39 149.39 149.39 82.309 0 149.53-66.938 149.53-149.39 0-82.453-67.078-149.39-149.53-149.39zm0 258.61c-60.141 0-109.08-48.938-109.08-109.22 0-60.234 48.938-109.22 109.08-109.22 60.141 0 109.22 48.938 109.22 109.22 0 60.234-48.938 109.22-109.22 109.22zm317.29-172.22-2.3906-3.7031-0.375-0.84375 3.6094-2.2969 3.6094-2.3906 0.46875 0.70313 69.469-45.844-2.1562-0.9375-31.688-0.375c-0.14062 2.3906-1.9219 4.2188-4.3125 4.2188-2.5312 0-4.4531-1.9219-4.4531-4.3125v-7.2188l-42.844 28.312 0.70312 1.0781-3.7031 2.3906-3.6094 2.3906-0.70312-1.0781-2.2969-3.8438-2.2969-3.7031-3-4.9219-69.703 42.609 0.375 0.46875 1.0781 1.9219h0.14062l0.60938 0.9375 1.5469 2.8594 2.2969 3.6094-3.6094 2.3906-3.7031 2.3906-0.23438 0.23437-9.375 6.1406c-3.8438 2.5312-6.375 6.4688-7.3125 10.922-0.9375 4.5469-0.14062 9.1406 2.3906 12.938 2.5312 3.8438 6.4688 6.4688 10.922 7.4531 4.5469 0.9375 9.1406 0 12.938-2.5312l8.625-5.7656 3.7031-2.2969 3.6094-2.3906 2.2969 3.6094 2.2969 3.8438h0.14062l1.7812 3 0.60938 1.0781 69.703-42.609-2.8594-4.7812-2.2969-3.7031zm-317.29-86.391c-82.312 0-149.39 66.938-149.39 149.39 0 82.453 67.078 149.39 149.39 149.39 82.309 0 149.53-66.938 149.53-149.39 0-82.453-67.078-149.39-149.53-149.39zm0 258.61c-60.141 0-109.08-48.938-109.08-109.22 0-60.234 48.938-109.22 109.08-109.22 60.141 0 109.22 48.938 109.22 109.22 0 60.234-48.938 109.22-109.22 109.22zm0-258.61c-82.312 0-149.39 66.938-149.39 149.39 0 82.453 67.078 149.39 149.39 149.39 82.309 0 149.53-66.938 149.53-149.39 0-82.453-67.078-149.39-149.53-149.39zm0 258.61c-60.141 0-109.08-48.938-109.08-109.22 0-60.234 48.938-109.22 109.08-109.22 60.141 0 109.22 48.938 109.22 109.22 0 60.234-48.938 109.22-109.22 109.22zm319.55-168.47-2.2969-3.7031-2.3906-3.7031-3.1406 2.0625-0.46875-0.70312-3.7031 2.3906-3.6094 2.3906-15.703-23.766-3.1406-4.7812c-1.3125-2.0625-0.70312-4.6875 1.3125-6l7.9219-5.2969-3-4.9219-69.703 42.609 0.375 0.46875 1.0781 1.9219h0.14062l0.60938 0.9375 1.5469 2.8594 2.2969 3.6094-3.6094 2.3906-3.7031 2.3906-0.23438 0.23438-9.375 6.1406c-3.8438 2.5312-6.375 6.4688-7.3125 10.922-0.9375 4.5469-0.14062 9.1406 2.3906 12.938 2.5312 3.8438 6.4688 6.4688 10.922 7.4531 4.5469 0.9375 9.1406 0 12.938-2.5312l8.625-5.7656 3.7031-2.2969 3.6094-2.3906 2.2969 3.6094 2.2969 3.8438h0.14063l1.7812 3 0.60937 1.0781 69.703-42.609-2.8594-4.7812zm-319.55-90.141c-82.312 0-149.39 66.938-149.39 149.39 0 82.453 67.078 149.39 149.39 149.39 82.309 0 149.53-66.938 149.53-149.39 0-82.453-67.078-149.39-149.53-149.39zm0 258.61c-60.141 0-109.08-48.938-109.08-109.22 0-60.234 48.938-109.22 109.08-109.22 60.141 0 109.22 48.938 109.22 109.22 0 60.234-48.938 109.22-109.22 109.22z"/>
 <path d="m966.61 308.39v7.9219c12.375 13.781 23.859 28.219 34.312 43.078v-9c-10.547-14.531-21.938-28.547-34.312-42z"/>
 <path d="m658.69 635.39c0 27.469-22.312 49.781-49.922 49.781s-49.781-22.312-49.781-49.781 22.312-49.781 49.781-49.781 49.922 22.312 49.922 49.781z"/>
 <path d="m608.76 486c-82.312 0-149.39 66.938-149.39 149.39 0 82.453 67.078 149.39 149.39 149.39 82.309 0 149.53-66.938 149.53-149.39 0-82.453-67.078-149.39-149.53-149.39zm0 258.61c-60.141 0-109.08-48.938-109.08-109.22 0-60.234 48.938-109.22 109.08-109.22s109.22 48.938 109.22 109.22c0 60.234-48.938 109.22-109.22 109.22z"/>
 <path d="m658.69 635.39c0 27.469-22.312 49.781-49.922 49.781s-49.781-22.312-49.781-49.781 22.312-49.781 49.781-49.781 49.922 22.312 49.922 49.781z"/>
 <path d="m658.69 635.39c0 27.469-22.312 49.781-49.922 49.781s-49.781-22.312-49.781-49.781 22.312-49.781 49.781-49.781 49.922 22.312 49.922 49.781z"/>
 <path d="m1000.9 92.156v424.92h-2.625l-31.688-0.375h-4.3125v-10.219l2.5312-1.6875c0.70312-0.46875 1.3125-1.0781 1.6875-1.9219 0-0.14062 0.14062-0.23438 0.14062-0.375l-0.046875-410.34c0-10.078 7.6875-18.375 17.156-18.375s17.156 8.2969 17.156 18.375z"/>
 <path d="m1001.8 517.22-0.70312 0.46875s-0.14062-0.375-0.14062-0.46875z"/>
 <path d="m966.61 502.55v14.156c-0.14062 2.3906-1.9219 4.2188-4.3125 4.2188-2.5312 0-4.4531-1.9219-4.4531-4.3125v-7.2188l4.4531-2.8594 2.5312-1.6875c0.70312-0.46875 1.3125-1.0781 1.6875-1.9219 0-0.14062 0.14062-0.23438 0.14062-0.375z"/>
 <path d="m1000.5 518.06-69.469 45.844-0.46875-0.70312-3.6094 2.3906-3.6094 2.2969 0.375 0.84375 2.3906 3.7031-6.8438 4.4531-2.8594-4.4531-15.609-23.766-3.1406-4.7812 7.7812-5.1562 2.2969 3.8438 0.70312 1.0781 3.6094-2.3906 3.7031-2.3906-0.70312-1.0781 42.844-28.312 4.4531-2.8594 2.5312-1.6875c0.70312-0.46875 1.3125-1.0781 1.6875-1.9219h0.14062l31.688 14.156 2.1562 0.9375z"/>
 <path d="m966.61 502.55v-2.8594c0.375 0.9375 0.23438 1.9219 0 2.8594z"/>
 <path d="m928.31 576.14-6.6094 4.3125c-0.70312 0.46875-1.5469 0.70312-2.5312 0.70312-0.23438 0-0.46875 0-0.84375-0.14062-1.0781-0.23438-2.1562-0.84375-2.7656-1.7812l-2.8594-4.4531-15.703-23.766-3.1406-4.7812c-1.3125-2.0625-0.70312-4.6875 1.3125-6l7.9219-5.2969 2.2969 3.7031 2.2969 3.8438-3.9375 2.625 0.70312 1.0781 15.609 23.766 0.46875 0.70312 3.1406-2.0625 2.3906 3.7031 2.2969 3.7031z"/>
 <path d="m1001.2 518.39-0.70312-0.375 0.60938-0.375s0 0.46875 0.14062 0.70312z"/>
 <path d="m931.22 580.92-69.75 42.609-0.60938-1.0781-1.7812-3h-0.14062l-2.25-3.75v-0.09375l-2.2969-3.6094-3.6094 2.3906-18-29.531 3.6094-2.3906-2.25-3.6094-1.5938-2.8594-0.60938-0.9375h-0.09375l-1.0781-1.9219-0.375-0.51562 69.75-42.562 3 4.875 2.25 3.75 2.2969 3.8438 0.70312 1.0781 3.6094-2.3906 14.859 24.328-3.5625 2.2969 0.32812 0.84375 2.4375 3.7031 2.25 3.75z"/>
 <path d="m915.71 538.78-3.7031 2.3906-3.6094 2.3906 14.859 24.234 3.6094-2.2969 3.6094-2.3906-14.766-24.375zm-79.312 43.688-3.6094 2.3906-3.7031 2.3906 18 29.391 3.7031-2.2969 3.6094-2.3906-18-29.531z"/>
 <path d="m884.53 585.61c0 7.0781-3.375 14.062-9.7031 18.141l-18.141 11.859-2.2969-3.6094-3.6094 2.3906-3.7031 2.2969-8.625 5.7656c-3.8438 2.5312-8.3906 3.4688-12.938 2.5312-4.4531-0.9375-8.3906-3.6094-10.922-7.4531s-3.375-8.3906-2.3906-12.938c0.9375-4.4531 3.4688-8.3906 7.3125-10.922l9.375-6.1406 0.23438-0.23438 3.7031-2.3906 3.6094-2.3906-2.2969-3.6094h0.14062l16.781-11.156c9.9375-6.6094 23.391-3.8438 30 6.1406 2.3906 3.6094 3.4688 7.7812 3.4688 11.766z"/>
 <path d="m884.63 571.45c-7.7812-12-24-15.375-36-7.4531l-16.688 11.062 0.60938 0.9375 1.5469 2.8594 2.2969 3.6094h0.14062l17.062-11.156c2.8594-1.9219 6.1406-2.8594 9.375-2.8594 5.625 0 11.156 2.7656 14.391 7.7812 5.2969 7.9219 3 18.609-4.9219 23.859l-18 11.766 2.2969 3.7031 2.2969 3.8438h0.14062l18.234-12c11.859-7.9219 15.234-24 7.3125-36z"/>
 <path d="m932.63 561.71-2.1562 1.4531-3.6094 2.3906-3.5625 2.2969-3.2344 2.1562-3.75 2.3906-3.6094 2.3906-4.0781 2.6719-15.562-23.766 3.9375-2.625 7.4531-4.8281 3.9375-2.625 3.6094-2.3906 3.7031-2.4375 1.3594-0.84375z"/>
 <path d="m902.06 597.37-41.203 25.078-1.7812-3h-0.14062l-2.25-3.75v-0.09375l-2.2969-3.6094v-0.14062l-17.859-29.391h-0.14062l-2.1562-3.7031-1.6875-2.7656-0.60938-0.9375h-0.09375l-1.0781-1.9219 41.156-25.078z"/>
</svg>
