<?xml version="1.0" encoding="UTF-8"?>
<svg width="1200pt" height="1200pt" version="1.1" viewBox="0 0 1200 1200" xmlns="http://www.w3.org/2000/svg">
 <path d="m693 461.62c-3.5625-128.44-184.22-124.59-186 3.5625 0 3.4688-0.09375 15.938-0.09375 29.344h186.19c0-14.906-0.09375-29.062-0.09375-32.906z"/>
 <path d="m4.9688 1194.8c5.5078 5.4375 14.367 5.4375 19.875 0l42.938-42.75 1.5 1.5c9.7109 9.5938 22.816 14.977 36.469 14.977s26.758-5.3828 36.469-14.977l55.406-55.5c9.5938-9.6953 14.977-22.781 14.977-36.422s-5.3828-26.727-14.977-36.422l-1.5938-1.5938 33.188-32.812c99.969 95.207 232.73 148.31 370.78 148.31s270.81-53.105 370.78-148.31l33.188 32.812-1.5938 1.5938c-9.5938 9.6953-14.977 22.781-14.977 36.422s5.3828 26.727 14.977 36.422l55.406 55.5c9.7109 9.5938 22.816 14.977 36.469 14.977s26.758-5.3828 36.469-14.977l1.5-1.5 42.938 42.75c5.5156 5.4883 14.434 5.4688 19.922-0.046875s5.4688-14.434-0.046875-19.922l-42.938-42.75 1.9688-1.875c9.6367-9.6914 15.047-22.801 15.047-36.469s-5.4102-26.777-15.047-36.469l-55.406-55.406c-9.6719-9.6758-22.789-15.109-36.469-15.109s-26.797 5.4336-36.469 15.109l-1.875 1.875-33.188-32.812c95.266-99.977 148.41-232.78 148.41-370.88s-53.141-270.9-148.41-370.88l33.188-32.812 1.875 1.875c9.6719 9.6758 22.789 15.109 36.469 15.109s26.797-5.4336 36.469-15.109l55.406-55.406c9.6367-9.6914 15.047-22.801 15.047-36.469s-5.4102-26.777-15.047-36.469l-1.9688-1.875 42.938-42.75c5.5156-5.4883 5.5352-14.406 0.046875-19.922s-14.406-5.5352-19.922-0.046875l-42.938 42.75-1.5-1.5c-9.7109-9.5938-22.816-14.977-36.469-14.977s-26.758 5.3828-36.469 14.977l-55.406 55.5c-9.5938 9.6953-14.977 22.781-14.977 36.422s5.3828 26.727 14.977 36.422l1.5938 1.5938-33.188 32.812c-99.969-95.207-232.73-148.31-370.78-148.31s-270.81 53.105-370.78 148.31l-33.188-32.812 1.5938-1.5938c9.5938-9.6953 14.977-22.781 14.977-36.422s-5.3828-26.727-14.977-36.422l-55.406-55.5c-9.7109-9.5938-22.816-14.977-36.469-14.977s-26.758 5.3828-36.469 14.977l-1.5 1.5-42.938-42.75c-5.5156-5.4883-14.434-5.4688-19.922 0.046875s-5.4688 14.434 0.046875 19.922l42.938 42.75-1.9688 1.875c-9.6367 9.6914-15.047 22.801-15.047 36.469s5.4102 26.777 15.047 36.469l55.406 55.406c9.6719 9.6758 22.789 15.109 36.469 15.109s26.797-5.4336 36.469-15.109l1.875-1.875 33.188 32.812c-95.266 99.977-148.41 232.78-148.41 370.88s53.141 270.9 148.41 370.88l-33.188 32.812-1.875-1.875c-9.6719-9.6758-22.789-15.109-36.469-15.109s-26.797 5.4336-36.469 15.109l-55.406 55.406c-9.6367 9.6914-15.047 22.801-15.047 36.469s5.4102 26.777 15.047 36.469l1.9688 1.875-42.938 42.75c-5.4844 5.5273-5.4844 14.441 0 19.969zm1017.3-149.72 1.6875-1.6875 19.031 18.938c5.5391 5.4609 14.461 5.3984 19.922-0.14062s5.3984-14.461-0.14062-19.922l-18.938-18.75 1.7812-1.7812c4.3945-4.3789 10.344-6.8398 16.547-6.8398s12.152 2.4609 16.547 6.8398l55.5 55.406c4.3711 4.418 6.8203 10.379 6.8203 16.594s-2.4492 12.176-6.8203 16.594l-1.9688 1.9688-20.719-20.625c-5.5391-5.1641-14.176-5.0117-19.531 0.34375s-5.5078 13.992-0.34375 19.531l20.625 20.625-1.4062 1.4062c-4.4609 4.2852-10.406 6.6797-16.594 6.6797s-12.133-2.3945-16.594-6.6797l-55.406-55.406c-4.3789-4.3945-6.8398-10.344-6.8398-16.547s2.4609-12.152 6.8398-16.547zm0-923.16 55.406-55.406c4.418-4.3711 10.379-6.8203 16.594-6.8203s12.176 2.4492 16.594 6.8203l1.4062 1.4062-20.625 20.625c-5.1641 5.5391-5.0117 14.176 0.34375 19.531s13.992 5.5078 19.531 0.34375l20.719-20.625 1.9688 1.9688c4.3711 4.418 6.8203 10.379 6.8203 16.594s-2.4492 12.176-6.8203 16.594l-55.5 55.406c-4.4414 4.2852-10.375 6.6797-16.547 6.6797s-12.105-2.3945-16.547-6.6797l-1.7812-1.7812 18.938-18.75c5.5391-5.4609 5.6016-14.383 0.14062-19.922s-14.383-5.6016-19.922-0.14062l-19.031 18.938-1.6875-1.6875c-4.3789-4.3945-6.8398-10.344-6.8398-16.547s2.4609-12.152 6.8398-16.547zm-661.31 442.97c0.007812-13.676 4-27.051 11.496-38.492 7.4922-11.438 18.156-20.445 30.691-25.914 0-16.219 0-32.719 0.09375-36.938 7.5938-263.16 382.22-267.47 393.56-4.3125 0.09375 5.1562 0.09375 23.531 0.09375 41.25 12.535 5.4688 23.199 14.477 30.691 25.914 7.4961 11.441 11.488 24.816 11.496 38.492v300c0 18.648-7.4062 36.531-20.594 49.719s-31.07 20.594-49.719 20.594h-337.5c-18.648 0-36.531-7.4062-49.719-20.594s-20.594-31.07-20.594-49.719zm-183.19-409.88-1.6875 1.6875-19.031-18.938c-5.5391-5.4609-14.461-5.3984-19.922 0.14062s-5.3984 14.461 0.14062 19.922l18.938 18.75-1.7812 1.7812c-4.4531 4.2656-10.383 6.6445-16.547 6.6445s-12.094-2.3789-16.547-6.6445l-55.5-55.406c-4.3711-4.418-6.8203-10.379-6.8203-16.594s2.4492-12.176 6.8203-16.594l1.9688-1.9688 20.719 20.625c5.5391 5.1641 14.176 5.0117 19.531-0.34375s5.5078-13.992 0.34375-19.531l-20.625-20.625 1.4062-1.4062c4.418-4.3711 10.379-6.8203 16.594-6.8203s12.176 2.4492 16.594 6.8203l55.406 55.406c4.3789 4.3945 6.8398 10.344 6.8398 16.547s-2.4609 12.152-6.8398 16.547zm-111.94 922.12 55.5-55.406c4.3945-4.3789 10.344-6.8398 16.547-6.8398s12.152 2.4609 16.547 6.8398l1.7812 1.7812-18.938 18.75c-5.5391 5.4609-5.6016 14.383-0.14062 19.922s14.383 5.6016 19.922 0.14062l19.031-18.938 1.6875 1.6875c4.3789 4.3945 6.8398 10.344 6.8398 16.547s-2.4609 12.152-6.8398 16.547l-55.406 55.406c-4.4609 4.2852-10.406 6.6797-16.594 6.6797s-12.133-2.3945-16.594-6.6797l-1.4062-1.4062 20.625-20.625c5.1641-5.5391 5.0117-14.176-0.34375-19.531s-13.992-5.5078-19.531-0.34375l-20.719 20.625-1.9688-1.9688c-4.3711-4.418-6.8203-10.379-6.8203-16.594s2.4492-12.176 6.8203-16.594z"/>
 <path d="m637.79 698.05c-1.2188-7.2188-0.0625-14.637 3.293-21.141 5.7891-9.7227 7.9453-21.184 6.082-32.344-1.8633-11.16-7.625-21.301-16.258-28.613-8.6367-7.3125-19.586-11.328-30.902-11.328s-22.266 4.0156-30.898 11.328c-8.6367 7.3125-14.398 17.453-16.262 28.613-1.8633 11.16 0.29297 22.621 6.0859 32.344 3.3555 6.5 4.5039 13.918 3.2812 21.129l-19.133 95.625h-0.003906c-1.6641 8.2695 0.46875 16.848 5.8125 23.371 5.3477 6.5234 13.336 10.309 21.77 10.305h58.688c8.4258 0 16.406-3.7773 21.75-10.293s7.4844-15.082 5.832-23.344z"/>
</svg>
