<?xml version='1.0' encoding='utf-8'?>
<svg xmlns="http://www.w3.org/2000/svg" width="1200pt" height="1200pt" version="1.1" viewBox="0 0 1200 1200">
 <defs><linearGradient id="goldGradient" x1="0%" y1="0%" x2="0%" y2="100%"><stop offset="0%" stop-color="#fff4cc" /><stop offset="38%" stop-color="#ffd86a" /><stop offset="62%" stop-color="#e0b23e" /><stop offset="100%" stop-color="#8d6e1e" /></linearGradient><filter id="goldGlow" x="-40%" y="-40%" width="180%" height="180%"><feGaussianBlur in="SourceAlpha" stdDeviation="1.8" result="blur" /><feMerge><feMergeNode in="blur" /><feMergeNode in="SourceGraphic" /></feMerge></filter></defs><g data-gold-wrap="1" filter="url(#goldGlow)"><path d="m364.8 705.07c-13.133 8.1094-28.25 12.426-43.68 12.48-50.082-4.6484-94.805-33.27-120-76.797-19.285-28.547-29.949-62.039-30.723-96.48-1.9062-30.938 12.238-60.68 37.441-78.723 26.141-15.871 58.621-17.141 85.922-3.3594 31.621 14.602 58.426 37.91 77.277 67.199 19.496 28.805 30.172 62.664 30.723 97.441 1.7461 30.66-12.168 60.117-36.961 78.238zm443.04 67.199v0.003907c-19.453-15.363-36.031-34.051-48.961-55.203-6.2383-12.961-11.039-25.922-15.84-38.879-20.16-53.762-42.719-114.72-143.04-114.72s-122.88 60.961-143.04 114.72c-4.8008 12.961-9.6016 25.922-15.84 38.879-12.93 21.152-29.508 39.84-48.961 55.203-45.121 41.281-107.04 97.922-36 176.16 38.879 43.199 84.961 28.801 133.92 13.441l-0.003906-0.003906c35.281-12.852 72.391-19.98 109.92-21.117 37.531 1.1367 74.641 8.2656 109.92 21.117 22.949 8.6172 47.051 13.797 71.52 15.359 24.098 0.39453 47.062-10.203 62.398-28.797 70.945-78.242 9.0234-134.88-36.098-176.16zm184.32-306.72c-26.141-15.871-58.621-17.141-85.922-3.3594-31.621 14.602-58.426 37.91-77.277 67.199-19.496 28.805-30.172 62.664-30.723 97.441-1.7461 30.66 12.168 60.117 36.961 78.238 13.133 8.1094 28.25 12.426 43.68 12.48 50.082-4.6484 94.805-33.27 120-76.797 43.586-67.203 40.707-144.48-6.8164-175.15zm-505.92 59.039v0.003906c5.6992 0.17969 11.383-0.63281 16.801-2.4023 52.32-13.441 75.84-89.762 54.238-173.28-21.602-83.52-80.641-138.24-132.96-123.84h0.003906c-14.355 4.8477-27.141 13.465-37.023 24.949-9.8789 11.484-16.488 25.414-19.137 40.332-8.5195 35.605-7.6914 72.809 2.3984 108 19.586 74.879 68.066 126.24 115.59 126.24zm210.72-2.3984h0.003907c5.4258 1.7344 11.105 2.5469 16.801 2.4023 26.566-1.8203 51.219-14.492 68.16-35.043 23.109-26.02 39.434-57.348 47.52-91.199 10.09-35.191 10.918-72.395 2.3984-108-2.6484-14.918-9.2578-28.848-19.137-40.332-9.8828-11.484-22.668-20.102-37.023-24.949-52.801-14.398-110.88 40.32-132.96 123.84-22.078 83.523 1.8242 159.89 54.145 173.28z" fill="url(#goldGradient)" />
</g></svg>