<?xml version='1.0' encoding='utf-8'?>
<svg xmlns="http://www.w3.org/2000/svg" width="1200pt" height="1200pt" version="1.1" viewBox="0 0 1200 1200">
 <defs><linearGradient id="goldGradient" x1="0%" y1="0%" x2="0%" y2="100%"><stop offset="0%" stop-color="#fff4cc" /><stop offset="38%" stop-color="#ffd86a" /><stop offset="62%" stop-color="#e0b23e" /><stop offset="100%" stop-color="#8d6e1e" /></linearGradient><filter id="goldGlow" x="-40%" y="-40%" width="180%" height="180%"><feGaussianBlur in="SourceAlpha" stdDeviation="1.8" result="blur" /><feMerge><feMergeNode in="blur" /><feMergeNode in="SourceGraphic" /></feMerge></filter></defs><g data-gold-wrap="1" filter="url(#goldGlow)"><path d="m401.53 880.97v-290.68h-84.375v290.63zm-51.562-231.28c0-5.2031 4.2188-9.375 9.375-9.375s9.375 4.1719 9.375 9.375v171.89c0 5.2031-4.2188 9.375-9.375 9.375s-9.375-4.1719-9.375-9.375z" fill="url(#goldGradient)" />
 <path d="m302.06 938.26h114.61c10.641 0 19.266-8.625 19.266-19.266 0-10.641-8.625-19.266-19.266-19.266h-114.56c-10.641 0-19.266 8.6719-19.266 19.266-0.046875 10.641 8.5781 19.266 19.219 19.266z" fill="url(#goldGradient)" />
 <path d="m657.28 571.55c10.641 0 19.266-8.625 19.266-19.266s-8.625-19.266-19.266-19.266h-114.56c-10.641 0-19.266 8.625-19.266 19.266s8.625 19.266 19.266 19.266z" fill="url(#goldGradient)" />
 <path d="m882.84 880.97v-290.68h-84.375v290.63zm-51.562-231.28c0-5.2031 4.2188-9.375 9.375-9.375s9.375 4.1719 9.375 9.375v171.89c0 5.2031-4.2188 9.375-9.375 9.375s-9.375-4.1719-9.375-9.375z" fill="url(#goldGradient)" />
 <path d="m783.32 938.26h114.61c10.641 0 19.266-8.625 19.266-19.266 0-10.641-8.625-19.266-19.266-19.266h-114.56c-10.641 0-19.266 8.6719-19.266 19.266-0.046875 10.641 8.625 19.266 19.219 19.266z" fill="url(#goldGradient)" />
 <path d="m938.06 957h-676.13c-20.109 0-36.469 16.359-36.469 36.469s16.359 36.469 36.469 36.469h676.08c20.109 0 36.469-16.359 36.469-36.469s-16.359-36.469-36.422-36.469z" fill="url(#goldGradient)" />
 <path d="m416.68 571.55c10.641 0 19.266-8.625 19.266-19.266s-8.625-19.266-19.266-19.266h-114.61c-10.641 0-19.266 8.625-19.266 19.266s8.625 19.266 19.266 19.266z" fill="url(#goldGradient)" />
 <path d="m897.94 571.55c10.641 0 19.266-8.625 19.266-19.266s-8.625-19.266-19.266-19.266h-114.61c-10.641 0-19.266 8.625-19.266 19.266s8.625 19.266 19.266 19.266z" fill="url(#goldGradient)" />
 <path d="m642.19 880.97v-290.68h-84.375v290.63zm-51.562-231.28c0-5.2031 4.2188-9.375 9.375-9.375s9.375 4.1719 9.375 9.375v171.89c0 5.2031-4.2188 9.375-9.375 9.375s-9.375-4.1719-9.375-9.375z" fill="url(#goldGradient)" />
 <path d="m542.72 938.26h114.61c10.641 0 19.266-8.625 19.266-19.266 0-10.641-8.625-19.266-19.266-19.266h-114.61c-10.641 0-19.266 8.6719-19.266 19.266 0 10.641 8.625 19.266 19.266 19.266z" fill="url(#goldGradient)" />
 <path d="m938.06 441.32h-676.13c-20.109 0-36.469 16.359-36.469 36.469s16.359 36.469 36.469 36.469h676.18c20.109 0 36.469-16.359 36.469-36.469-0.09375-20.109-16.453-36.469-36.516-36.469z" fill="url(#goldGradient)" />
 <path d="m246.05 422.58h707.86c11.344 0 20.578-9.2344 20.578-20.578 0-7.2188-3.8438-14.016-10.078-17.672l-357.47-212.34c-2.1094-1.2656-4.5-1.9219-6.9375-1.9219s-4.8281 0.65625-6.9375 1.9219l-357.52 212.39c-6.1875 3.7031-10.078 10.453-10.078 17.672 0.046875 11.344 9.2812 20.531 20.578 20.531zm265.26-170.53 83.859-49.828c2.9531-1.7344 6.6094-1.7344 9.5625 0l83.859 49.828c4.4531 2.625 5.9062 8.3906 3.2812 12.844-1.7344 2.9531-4.875 4.5938-8.0625 4.5938-1.6406 0-3.2812-0.42188-4.7812-1.3125l-79.031-47.016-79.078 47.016c-4.4531 2.625-10.219 1.1719-12.844-3.2812-2.6719-4.4531-1.2188-10.219 3.2344-12.844z" fill="url(#goldGradient)" />
</g></svg>