<?xml version='1.0' encoding='utf-8'?>
<svg xmlns="http://www.w3.org/2000/svg" width="1200pt" height="1200pt" version="1.1" viewBox="0 0 1200 1200">
 <defs><linearGradient id="goldGradient" x1="0%" y1="0%" x2="0%" y2="100%"><stop offset="0%" stop-color="#fff4cc" /><stop offset="38%" stop-color="#ffd86a" /><stop offset="62%" stop-color="#e0b23e" /><stop offset="100%" stop-color="#8d6e1e" /></linearGradient><filter id="goldGlow" x="-40%" y="-40%" width="180%" height="180%"><feGaussianBlur in="SourceAlpha" stdDeviation="1.8" result="blur" /><feMerge><feMergeNode in="blur" /><feMergeNode in="SourceGraphic" /></feMerge></filter></defs><g data-gold-wrap="1" filter="url(#goldGlow)"><path d="m431.53 1114c-34.219 0-67.688-8.2031-93.75-22.781-26.062 14.578-59.531 22.781-93.75 22.781-39.047 0-77.062-10.688-104.34-29.344-8.5312-5.8594-10.734-17.531-4.875-26.062s17.531-10.734 26.062-4.875c21.141 14.484 51.469 22.781 83.156 22.781s62.016-8.2969 83.156-22.781c6.375-4.3594 14.812-4.3594 21.188 0 21.141 14.484 51.469 22.781 83.156 22.781s62.016-8.2969 83.156-22.781c8.5781-5.8594 20.203-3.6562 26.062 4.875s3.6562 20.203-4.875 26.062c-27.234 18.656-65.25 29.344-104.34 29.344z" fill="url(#goldGradient)" />
 <path d="m919.26 1114c-34.219 0-67.688-8.2031-93.75-22.781-26.062 14.578-59.531 22.781-93.75 22.781-39.047 0-77.062-10.688-104.34-29.344-8.5312-5.8594-10.734-17.531-4.875-26.062s17.531-10.734 26.062-4.875c21.141 14.484 51.469 22.781 83.156 22.781s62.016-8.2969 83.156-22.781c6.375-4.3594 14.812-4.3594 21.188 0 21.141 14.484 51.469 22.781 83.156 22.781s62.016-8.2969 83.156-22.781c8.5312-5.8594 20.203-3.6562 26.062 4.875s3.6562 20.203-4.875 26.062c-27.281 18.656-65.297 29.344-104.34 29.344z" fill="url(#goldGradient)" />
 <path d="m377.72 663.79c-17.484 0-31.734 14.25-31.734 31.781 0 17.484 14.25 31.688 31.734 31.688s31.734-14.25 31.734-31.688c-0.046875-17.531-14.25-31.781-31.734-31.781z" fill="url(#goldGradient)" />
 <path d="m1178 891.84c-5.8594-8.5312-17.484-10.734-26.062-4.875-21.234 14.484-51.562 22.828-83.156 22.828-31.641 0-61.922-8.3438-83.156-22.828-6.375-4.3594-14.766-4.3594-21.188 0-14.344 9.7969-33 16.5-53.25 19.969l74.25-291.98-366.74-124.78v401.29c-2.7188-1.5-5.6719-2.8125-8.1562-4.5-6.375-4.3594-14.812-4.3594-21.141 0-2.4844 1.6875-5.4375 3-8.1562 4.5v-401.29l-366.74 124.78 74.297 291.98c-20.25-3.5156-38.859-10.172-53.203-19.969-6.375-4.3594-14.766-4.3594-21.188 0-21.188 14.484-51.516 22.781-83.109 22.781s-61.922-8.3438-83.156-22.828c-8.5781-5.8594-20.203-3.6562-26.062 4.875s-3.6562 20.203 4.875 26.062c27.328 18.703 65.344 29.391 104.34 29.391 34.172 0 67.594-8.2031 93.75-22.828 26.156 14.625 59.578 22.828 93.75 22.828s67.594-8.2031 93.75-22.828c26.156 14.625 59.578 22.828 93.75 22.828s67.594-8.2031 93.75-22.828c26.156 14.625 59.578 22.828 93.75 22.828s67.594-8.2031 93.75-22.828c26.156 14.625 59.578 22.828 93.75 22.828 34.219 0 67.688-8.2031 93.797-22.828 26.156 14.625 59.578 22.828 93.75 22.828 39 0 77.016-10.688 104.34-29.391 8.4844-5.8125 10.688-17.484 4.8281-26.016zm-800.26-265.55c38.156 0 69.234 31.078 69.234 69.281 0 38.156-31.031 69.188-69.234 69.188-38.156 0-69.234-31.031-69.234-69.188 0-38.203 31.031-69.281 69.234-69.281zm444.52 0c38.203 0 69.281 31.078 69.281 69.281 0 38.156-31.078 69.188-69.281 69.188-38.156 0-69.234-31.031-69.234-69.188 0-38.203 31.078-69.281 69.234-69.281z" fill="url(#goldGradient)" />
 <path d="m822.24 663.79c-17.484 0-31.734 14.25-31.734 31.781 0 17.484 14.25 31.688 31.734 31.688 17.531 0 31.781-14.25 31.781-31.688 0.046875-17.531-14.25-31.781-31.781-31.781z" fill="url(#goldGradient)" />
 <path d="m546.19 85.969h107.53v82.219h-107.53z" fill="url(#goldGradient)" />
 <path d="m606 446.26 247.03 84.047 0.046875-214.08h-506.21v214.08l247.03-84.047c3.9375-1.3594 8.2031-1.3594 12.094 0zm43.406-79.547h140.02c10.359 0 18.75 8.3906 18.75 18.75 0 10.359-8.3906 18.75-18.75 18.75h-140.02c-10.359 0-18.75-8.3906-18.75-18.75 0-10.359 8.3906-18.75 18.75-18.75zm-98.812 37.5h-140.11c-10.359 0-18.75-8.3906-18.75-18.75 0-10.359 8.3906-18.75 18.75-18.75h140.11c10.359 0 18.75 8.3906 18.75 18.75 0 10.359-8.3906 18.75-18.75 18.75z" fill="url(#goldGradient)" />
 <path d="m469.13 205.64h261.71v73.031h-261.71z" fill="url(#goldGradient)" />
</g></svg>