<?xml version='1.0' encoding='utf-8'?>
<svg xmlns="http://www.w3.org/2000/svg" width="1200pt" height="1200pt" version="1.1" viewBox="0 0 1200 1200">
 <defs><linearGradient id="goldGradient" x1="0%" y1="0%" x2="0%" y2="100%"><stop offset="0%" stop-color="#fff4cc" /><stop offset="38%" stop-color="#ffd86a" /><stop offset="62%" stop-color="#e0b23e" /><stop offset="100%" stop-color="#8d6e1e" /></linearGradient><filter id="goldGlow" x="-40%" y="-40%" width="180%" height="180%"><feGaussianBlur in="SourceAlpha" stdDeviation="1.8" result="blur" /><feMerge><feMergeNode in="blur" /><feMergeNode in="SourceGraphic" /></feMerge></filter></defs><g data-gold-wrap="1" filter="url(#goldGlow)"><path d="m914.29 858.05c5.7188 3.2812 7.6875 10.594 4.4062 16.312s-10.594 7.6875-16.312 4.4062c-31.5-18.094-61.312-38.203-83.766-61.406-20.953-21.656-35.672-46.031-39.844-74.156l-0.51562-3.8906-0.51562-6.2344-18.891-357.66c-2.3438-44.484-20.766-84.984-49.828-114.05-28.078-28.031-66.141-45.422-109.08-45.422s-81 17.391-109.41 45.75c-29.016 29.297-47.203 69.516-49.5 113.72l-18.891 357.66c-0.09375 2.0625-0.28125 4.125-0.75 8.3438l-0.23438 1.7344c-4.1719 28.125-18.844 52.5-39.844 74.156-22.453 23.203-52.266 43.312-83.766 61.406-5.7188 3.2812-13.031 1.3125-16.312-4.4062s-1.3125-13.031 4.4062-16.312c29.766-17.109 57.797-35.953 78.516-57.375 13.453-13.922 23.859-28.922 29.484-45.281-67.453 11.531-124.26 28.453-164.63 48.938-39.328 19.969-62.109 42.609-62.109 65.719 0 33.703 46.641 65.578 122.02 89.766 79.359 25.547 189.28 41.297 311.02 41.297 121.69 0 231.66-15.797 311.02-41.297 75.375-24.234 122.02-56.062 122.02-89.766 0-23.109-22.781-45.75-62.109-65.719-40.312-20.531-97.172-37.453-164.63-48.938 5.625 16.359 16.031 31.406 29.484 45.328 20.719 21.422 48.75 40.266 78.516 57.375zm-532.87-515.53c6.4688-1.1719 12.75 3.1406 13.922 9.6094s-3.1406 12.75-9.6094 13.922l-99.234 18.234c-6.4688 1.1719-12.75-3.1406-13.922-9.6094s3.1406-12.75 9.6094-13.922zm115.73-156.79c0.65625 6.5625-4.125 12.469-10.688 13.125s-12.469-4.125-13.125-10.688l-8.625-83.203c-0.65625-6.5625 4.125-12.469 10.688-13.125s12.469 4.125 13.125 10.688zm-95.766 39.141c5.5781 3.5625 7.1719 10.969 3.6094 16.547s-10.969 7.1719-16.547 3.6094l-70.5-45.141c-5.5781-3.5625-7.1719-10.969-3.6094-16.547s10.969-7.1719 16.547-3.6094zm-221.63 582.28c-11.156 4.6406-21.75 9.4219-31.641 14.391-59.297 29.812-94.125 65.109-94.125 102.05 0 48.656 59.438 93.938 155.39 127.78 99.703 35.156 237.79 56.906 390.61 56.906 152.76 0 290.86-21.75 390.61-56.906 96-33.844 155.39-79.125 155.39-127.78 0-36.984-34.828-72.234-94.125-102.05-9.8906-4.9688-20.438-9.7969-31.641-14.391 23.719 18.891 36.797 40.125 36.797 62.906 0 45.328-53.016 85.031-138.71 112.59-81.703 26.297-194.29 42.516-318.32 42.516s-236.63-16.266-318.32-42.516c-85.688-27.516-138.71-67.266-138.71-112.59 0-22.781 13.078-44.016 36.797-62.906z" fill="url(#goldGradient)" />
</g></svg>