<?xml version='1.0' encoding='utf-8'?>
<svg xmlns="http://www.w3.org/2000/svg" width="1200pt" height="1200pt" version="1.1" viewBox="0 0 1200 1200">
 <defs><linearGradient id="goldGradient" x1="0%" y1="0%" x2="0%" y2="100%"><stop offset="0%" stop-color="#fff4cc" /><stop offset="38%" stop-color="#ffd86a" /><stop offset="62%" stop-color="#e0b23e" /><stop offset="100%" stop-color="#8d6e1e" /></linearGradient><filter id="goldGlow" x="-40%" y="-40%" width="180%" height="180%"><feGaussianBlur in="SourceAlpha" stdDeviation="1.8" result="blur" /><feMerge><feMergeNode in="blur" /><feMergeNode in="SourceGraphic" /></feMerge></filter></defs><g data-gold-wrap="1" filter="url(#goldGlow)"><path d="m927.14 880.4c-43.781-20.344-79.219-53.766-114.09-87.188-42.094-40.312-121.4-52.875-213.05-52.875-91.645 0-170.95 12.562-213.05 52.875-34.875 33.422-70.312 66.844-114.09 87.188-48.891 22.781-86.016 57.703-103.12 98.906-10.219 24.656 9.8438 51.656 36.609 51.656h787.4c26.719 0 46.828-27 36.609-51.656-17.203-41.156-54.328-76.125-103.22-98.906zm-505.26 76.266c-3.375 3-7.125 4.5-11.25 4.5-4.5 0-8.625-1.5-11.625-4.5s-4.5-7.125-4.5-11.25 1.5-8.25 4.5-11.25c1.5-1.5 3.375-2.625 5.25-3.375 4.125-1.875 8.25-1.875 12.375 0 1.875 0.75 3.75 1.875 5.25 3.375 2.625 3 4.5 7.125 4.5 11.25s-1.5 8.25-4.5 11.25zm94.5-85.453c-3 3-6.75 4.5-11.25 4.5-4.125 0-8.25-1.5-11.25-4.5s-4.5-7.125-4.5-11.25c0-2.25 0.375-4.125 1.125-6.375 0.75-1.875 1.875-3.375 3.375-4.875 6-6 16.875-6 22.5 0 1.5 1.5 2.625 3 3.75 4.875 0.75 2.25 1.125 4.125 1.125 6.375 0 4.0781-1.875 8.25-4.875 11.25zm126.37 91.5c-1.5 1.125-3 2.625-4.875 3.375s-4.125 1.125-6.375 1.125c-4.125 0-8.25-1.875-11.25-4.5-3-3.375-4.5-7.125-4.5-11.625 0-4.125 1.5-8.25 4.5-11.25 1.5-1.5 3.375-2.625 5.25-3.375 6-2.25 13.125-0.75 17.25 3.375 1.5 1.5 2.625 3.375 3.75 5.25 0.75 1.875 1.125 4.125 1.125 6 0 4.5-1.875 8.2031-4.875 11.625zm76.5-85.875c-3 3-7.125 4.875-11.25 4.875-2.25 0-4.5-0.375-6.375-1.125-1.875-1.125-3.75-2.25-5.25-3.75-3-3-4.5-6.75-4.5-11.25 0-1.875 0.375-4.125 1.125-6s1.875-3.75 3.375-5.25 3.375-2.625 5.25-3.375c6-2.25 12.75-1.125 17.625 3.375 1.125 1.5 2.625 3.375 3.375 5.25s1.125 4.125 1.125 6c0 4.4531-1.875 8.2031-4.5 11.25zm134.63 93.75c-3 3-7.125 4.875-11.25 4.875s-8.25-1.875-11.25-4.875-4.875-6.75-4.875-11.25c0-4.125 1.875-8.25 4.875-11.25 1.5-1.5 3-2.625 5.25-3.375 3.75-1.5 8.25-1.5 12 0 1.875 0.75 3.75 1.875 5.25 3.375 3 3 4.5 7.125 4.5 11.25 0 4.4531-1.5 8.2031-4.5 11.25z" fill="url(#goldGradient)" />
 <path d="m584.06 168.98c-4.7812 1.9219-9.3281 4.6406-13.312 8.4844l-145.87 130.87c-1.5938 1.5-2.8125 3.375-4.2188 5.1094l163.4 95.812z" fill="url(#goldGradient)" />
 <path d="m775.13 308.34-145.87-130.87c-3.9844-3.8438-8.5312-6.5625-13.312-8.4844v240.28l163.4-95.812c-1.4062-1.7344-2.625-3.6094-4.2188-5.1094z" fill="url(#goldGradient)" />
 <path d="m462.66 721.97c33.656-8.0625 73.969-12.328 121.45-13.172v-262.6l-173.21-101.58c0.09375 0.65625 0 1.2656 0.09375 1.9219z" fill="url(#goldGradient)" />
 <path d="m789 346.6c0.09375-0.65625 0-1.2656 0.09375-1.9219l-173.16 101.53v262.6c47.484 0.84375 87.844 5.1094 121.45 13.172z" fill="url(#goldGradient)" />
 <path d="m1124.4 594.47c-0.09375-0.75 0-1.5-0.14062-2.25l-33.75-154.87c-0.65625-3.2344-2.2031-5.9531-3.6562-8.7188l-109.45 152.11z" fill="url(#goldGradient)" />
 <path d="m1061 409.97c-3-0.46875-5.9531-1.0312-9.0938-0.79688l-157.87 17.25c-0.75 0.09375-1.4531 0.46875-2.2031 0.60938l59.719 135.05z" fill="url(#goldGradient)" />
 <path d="m838.6 773.53c22.594 21.609 47.297 44.719 74.766 62.578l200.53-210.66-158.11-14.766z" fill="url(#goldGradient)" />
 <path d="m768.28 731.53c17.203 6.1406 31.781 13.969 45.094 22.641l116.62-162.1-64.219-145.18-78.797 148.69z" fill="url(#goldGradient)" />
 <path d="m361.4 773.53-117.19-162.84-158.11 14.766 200.53 210.66c27.469-17.812 52.219-40.969 74.766-62.578z" fill="url(#goldGradient)" />
 <path d="m386.68 754.18c13.266-8.7188 27.844-16.5 45.094-22.641l-18.703-135.94-78.797-148.69-64.219 145.22z" fill="url(#goldGradient)" />
 <path d="m308.21 427.03c-0.75-0.14062-1.4531-0.51562-2.2031-0.60938l-157.87-17.25c-3.1406-0.28125-6.1406 0.28125-9.1406 0.79688l109.45 152.11z" fill="url(#goldGradient)" />
 <path d="m113.16 428.58c-1.4062 2.7656-2.9531 5.5312-3.6562 8.7188l-33.75 154.87c-0.14062 0.75-0.046875 1.5-0.14062 2.25l147-13.781z" fill="url(#goldGradient)" />
</g></svg>