<?xml version='1.0' encoding='utf-8'?>
<svg xmlns="http://www.w3.org/2000/svg" width="1200pt" height="1200pt" version="1.1" viewBox="0 0 1200 1200">
 <defs><linearGradient id="goldGradient" x1="0%" y1="0%" x2="0%" y2="100%"><stop offset="0%" stop-color="#fff4cc" /><stop offset="38%" stop-color="#ffd86a" /><stop offset="62%" stop-color="#e0b23e" /><stop offset="100%" stop-color="#8d6e1e" /></linearGradient><filter id="goldGlow" x="-40%" y="-40%" width="180%" height="180%"><feGaussianBlur in="SourceAlpha" stdDeviation="1.8" result="blur" /><feMerge><feMergeNode in="blur" /><feMergeNode in="SourceGraphic" /></feMerge></filter></defs><g data-gold-wrap="1" filter="url(#goldGlow)"><path d="m767.58 719.71c15.07 3.8516 30.781 5.4609 46.547 5.1133l-10.727 57.648c-2.4961 12.984 7.4648 11.531 7.4648 11.531l54.625-17.328 17.711 52.547-19.906 40.586 55.906 27.84-22.633 54.312 9.6133 24.84 51.602 25.945-12.973 41.566 12.203 30.312 80.543 43.766c20.867-9.8984 21.926-67.273 21.926-67.273l-103.86-299.5c-3.1328-9.6367 0.25391-10.379 0.25391-10.379l32.137-13.414c17.832-7.4141 1.8125-22.738 1.8125-22.738l-36.828-21.383c-4.5234-2.9531-5.6523-6.4453-5.5078-9.3828 26.352-21.852 46.008-49.453 53.809-80.004 22.055-86.555-22.32-179.44-116.39-203.43-14.281-3.6367-28.859-5.3633-43.43-5.4492-3.4922-6.1328-7.4023-12.156-11.832-17.941-13.801-18.059-30.648-32.184-48.109-40.969 0 0-13.094-6.3477-28.367-9.3477-3.625-0.52734-7.1875-0.82812-10.738-0.82812-12.887 0-24.695 3.793-34.094 10.992-16.297 12.457-24.023 33.289-21.758 58.668 2.0625 22.957 12.227 47.449 28.645 68.93 24.109 31.523 57.516 51.145 87.191 51.145 12.898 0 24.707-3.8047 34.117-10.992 6.5508-5.0039 11.641-11.41 15.312-18.875 0.12109 1.4648 0.19141 2.9141 0.15625 4.3672l0.76953 0.9375c-0.26563 0.23828-0.52734 0.46875-0.80469 0.71875-0.16797 2.9141-0.61328 5.8789-1.332 8.8203-6.2539 24.504-31.129 39.277-55.488 33.109-9.4336-2.4102-17.387-7.6328-23.281-14.52-23.809-6.5156-48.098-23.762-66.758-48.191-3.7812-4.957-7.2227-10.094-10.297-15.312-17.617 18.035-31.129 39.254-38.473 62.652-29.438 93.375 17.172 186.94 111.24 210.9zm51.41-247.54c-4.4023 3.3359-9.9844 5.0391-16.609 5.0391-20.578 0-45.805-15.625-64.273-39.793-12.938-16.957-21.254-36.637-22.812-53.988-0.75781-8.7734-0.44531-24.781 10.547-33.168 4.3906-3.3359 9.9844-5.0508 16.57-5.0508 20.578 0 45.805 15.637 64.297 39.816 0.73047 0.96094 1.3906 1.957 2.1133 2.9531-24.086 3.8867-47.438 12.07-68.473 23.734 2.9531 5.3516 6.3242 10.598 10.141 15.613 6.5742 8.6055 14.027 16.105 21.805 22.234 11.004-12.445 28.297-18.492 45.434-14.125 4.2734 1.0938 8.2578 2.7969 11.879 4.9336 0.625 9-0.16406 23.809-10.617 31.801z" fill="url(#goldGradient)" />
 <path d="m300.62 671.12c96.898 54 284.03-154.45 284.03-154.45 103.23-95.953 127.99-123.41 127.99-123.41s48.707-40.008 8.4961-85.402c-28.234-31.871-72.996 3.4336-72.996 3.4336l-111.43 93.035s-24.18 30-42.059 2.6172c-13.645-20.832 14.23-47.988 14.23-47.988l92.113-75.707s46.754-40.223 86.977-38.113c39.887 2.0898 67.598 14.137 82.402 64.391 79.922 10.848 226.71 32.27 226.71 32.27s69.672 24.625 79.754-49.691c10.078-74.281-45.07-81.758-67.141-84.758-22.055-2.9883-355.56-48.203-355.56-48.203s-70.477-18.625-159.3 57.047c-88.883 75.758-374.77 322.02-374.77 322.02 0-0.003906 85.633 80.039 180.55 132.91z" fill="url(#goldGradient)" />
 <path d="m665.27 130.08c17.617 0 258.14-67.465 278.69-38.125 20.543 29.352 14.688 64.523 14.688 64.523z" fill="url(#goldGradient)" />
</g></svg>