<?xml version='1.0' encoding='utf-8'?>
<svg xmlns="http://www.w3.org/2000/svg" width="1200pt" height="1200pt" version="1.1" viewBox="0 0 1200 1200">
 <defs><linearGradient id="goldGradient" x1="0%" y1="0%" x2="0%" y2="100%"><stop offset="0%" stop-color="#fff4cc" /><stop offset="38%" stop-color="#ffd86a" /><stop offset="62%" stop-color="#e0b23e" /><stop offset="100%" stop-color="#8d6e1e" /></linearGradient><filter id="goldGlow" x="-40%" y="-40%" width="180%" height="180%"><feGaussianBlur in="SourceAlpha" stdDeviation="1.8" result="blur" /><feMerge><feMergeNode in="blur" /><feMergeNode in="SourceGraphic" /></feMerge></filter></defs><g data-gold-wrap="1" filter="url(#goldGlow)"><path d="m1100.1 73.172c-11.25-23.25-36.75-31.5-64.406-19.359-46.031 20.25-161.02 75.422-162.19 75.984-2.9062 1.4062-5.0625 3.8438-6.1406 6.8906-1.0312 3-0.84375 6.3281 0.5625 9.1875 0.09375 0.23438 10.875 23.297 0.32812 36-12.281 14.812-246.71 289.4-349.74 410.06-8.2969-12.047-16.688-28.453-13.406-39.047 1.9219-6.3281 8.8125-11.016 20.438-13.922 33.422-8.25 39.797-24.938 40.641-34.125 1.3594-15.141-9.75-29.859-28.969-38.484-25.828-11.578-68.062-12.281-101.91 23.859-34.359 36.656-38.906 58.781-43.359 80.203-4.0312 19.406-7.7812 37.688-35.016 71.062-30.891 37.875-58.688 42.281-90.844 47.344-35.438 5.625-75.609 11.953-122.63 62.719-35.062 37.828-51.75 84.094-48.328 133.82 4.5938 66.938 44.672 135.94 109.92 189.37 61.875 50.672 129.42 76.875 188.63 76.875 41.297 0 78.516-12.797 106.88-38.953 64.266-59.297 63.938-129.47 63.656-175.87v-6.9375c-0.09375-43.172 30.656-60.891 69.562-83.344 25.172-14.531 53.719-30.984 76.969-56.953 14.344-16.078 21.141-32.062 20.25-47.625-0.79688-13.453-7.5469-26.062-19.5-36.609-20.344-17.812-48.328-15-69.75 7.0312-6 6.1406-27.188 25.219-48.516 11.906-11.438-7.1719-14.719-16.406-15.703-21.984l359.06-458.26c8.4375-10.219 34.453-34.031 59.859-28.922 5.3438 1.0781 10.828-1.125 13.406-5.9062l35.344-65.156c16.688 1.9688 41.062-7.2188 51.422-20.391 10.219-12.938 11.625-33.656 3.4688-50.484zm-738.42 866.34-57.188-46.125 29.438-36.516 57.234 46.125zm297.24-210.24c3.2812-3.375 20.719-19.781 36.656-5.7188 7.125 6.2812 10.969 12.984 11.391 20.016 0.51562 8.9062-4.2188 19.078-14.156 30.188-20.625 23.109-46.266 37.875-71.062 52.172-42 24.234-81.656 47.109-81.562 104.16v6.9844c0.1875 37.219 0.28125 85.875-32.156 131.16-13.125 10.875-30.703 13.688-44.062 6.9844-14.812-7.4062-21.984-24.844-20.203-49.172 0.09375-1.2188 0.32812-2.7188 0.5625-4.3594 2.3438-15.891 7.6406-51.938-42.609-93.562l15.656-19.406c2.0156-2.4844 2.9062-5.625 2.5781-8.8125s-1.9219-6.0938-4.4062-8.0625l-75.891-61.219c-2.4844-2.0156-5.6719-2.9531-8.8125-2.5781-3.1875 0.32812-6.0938 1.9219-8.0625 4.4062l-16.406 20.344c-6.5156-11.297-8.625-22.641-6.375-34.359 5.3906-27.984 36.984-59.484 86.625-86.438 61.125-33.141 72.047-74.438 77.953-96.609 0.98438-3.75 2.1562-8.2031 3.1875-10.547 3.2812 0.98438 9 4.9219 14.391 9.75-6.9375 8.1562-11.109 12.984-11.484 13.453-3.2812 3.8438-3.7969 9.375-1.2656 13.781 0.98438 1.6875 24.422 42.375 78.75 63.891 5.2031 2.0625 9.6562-0.28125 11.812-1.9688 4.0312 7.2188 10.406 14.719 20.484 21 29.062 18.281 59.625 3.9844 78.469-15.469z" fill="url(#goldGradient)" />
 <path d="m471.66 691.13c-5.1562-4.125-12.75-3.3281-16.875 1.7812l-1.4062 1.7344c-4.125 5.1562-3.3281 12.75 1.7812 16.875l54.469 43.922c5.1562 4.125 12.75 3.3281 16.875-1.7812l1.4062-1.7344c4.125-5.1562 3.3281-12.75-1.7812-16.875z" fill="url(#goldGradient)" />
 <path d="m481.22 809.86 1.4062-1.7344c4.125-5.1562 3.3281-12.75-1.7812-16.875l-54.469-43.922c-5.1562-4.1719-12.75-3.3281-16.922 1.8281l-1.4062 1.7344c-4.125 5.1094-3.3281 12.703 1.8281 16.828l54.469 43.922c5.1562 4.1719 12.75 3.3281 16.875-1.7812z" fill="url(#goldGradient)" />
 <path d="m395.39 794.11c-3.375-5.6719-10.781-7.5469-16.453-4.125l-1.9219 1.125c-5.6719 3.375-7.5469 10.781-4.125 16.453l35.906 60.094c3.375 5.6719 10.781 7.5469 16.453 4.125l1.9219-1.125c5.6719-3.375 7.5469-10.781 4.125-16.453z" fill="url(#goldGradient)" />
 <path d="m510.79 992.58c-11.953-9.6094-30.891-7.5938-40.594 4.4062-9.9375 12.422-7.9688 30.609 4.3594 40.5 5.1094 4.125 11.531 6.4219 18.094 6.4219 8.7656 0 16.969-3.9375 22.453-10.734 4.8281-6 7.0781-13.5 6.2344-21.188-0.75-7.6875-4.5-14.531-10.547-19.406z" fill="url(#goldGradient)" />
 <path d="m469.82 953.06c5.1094 4.125 11.531 6.375 18.094 6.375 8.7656 0 16.969-3.9375 22.5-10.734 4.8281-6 7.0312-13.547 6.2344-21.188-0.84375-7.6406-4.5938-14.531-10.594-19.359-11.953-9.6562-30.938-7.5938-40.594 4.3594-9.9375 12.375-8.0156 30.562 4.3594 40.547z" fill="url(#goldGradient)" />
</g></svg>