<?xml version='1.0' encoding='utf-8'?>
<svg xmlns="http://www.w3.org/2000/svg" width="1200pt" height="1200pt" version="1.1" viewBox="0 0 1200 1200">
 <defs><linearGradient id="goldGradient" x1="0%" y1="0%" x2="0%" y2="100%"><stop offset="0%" stop-color="#fff4cc" /><stop offset="38%" stop-color="#ffd86a" /><stop offset="62%" stop-color="#e0b23e" /><stop offset="100%" stop-color="#8d6e1e" /></linearGradient><filter id="goldGlow" x="-40%" y="-40%" width="180%" height="180%"><feGaussianBlur in="SourceAlpha" stdDeviation="1.8" result="blur" /><feMerge><feMergeNode in="blur" /><feMergeNode in="SourceGraphic" /></feMerge></filter></defs><g data-gold-wrap="1" filter="url(#goldGlow)"><path d="m467.9 226.4c-189.05 56.766-326.9 232.22-326.9 439.64 0 253.31 205.64 458.95 458.95 458.95s458.95-205.64 458.95-458.95c0-207.42-137.86-382.87-326.9-439.64-19.969 53.531-71.625 91.641-132.1 91.641-60.469 0-112.08-38.156-132.1-91.641zm132.1 120.84c-203.9 0-369.47 165.56-369.47 369.47 0 203.9 165.56 369.47 369.47 369.47 203.9 0 369.47-165.56 369.47-369.47 0-203.9-165.56-369.47-369.47-369.47zm100.17-150.47c1.2188-6.375 1.9219-12.938 1.9219-19.688 0-56.344-45.75-102.09-102.09-102.09s-102.09 45.75-102.09 102.09c0 6.75 0.65625 13.312 1.9219 19.688l0.70312 3.375c10.453 45.234 51.047 79.031 99.469 79.031s88.969-33.797 99.469-79.031zm-100.17-63.422c27.797 0 50.344 22.547 50.344 50.344 0 10.734 8.7188 19.406 19.453 19.406s19.406-8.7188 19.406-19.406c0-49.219-39.984-89.203-89.203-89.203-10.734 0-19.453 8.7188-19.453 19.406 0 10.734 8.7188 19.453 19.453 19.453z" fill-rule="evenodd" fill="url(#goldGradient)" />
</g></svg>