<?xml version='1.0' encoding='utf-8'?>
<svg xmlns="http://www.w3.org/2000/svg" width="1200pt" height="1200pt" version="1.1" viewBox="0 0 1200 1200">
 <defs><linearGradient id="goldGradient" x1="0%" y1="0%" x2="0%" y2="100%"><stop offset="0%" stop-color="#fff4cc" /><stop offset="38%" stop-color="#ffd86a" /><stop offset="62%" stop-color="#e0b23e" /><stop offset="100%" stop-color="#8d6e1e" /></linearGradient><filter id="goldGlow" x="-40%" y="-40%" width="180%" height="180%"><feGaussianBlur in="SourceAlpha" stdDeviation="1.8" result="blur" /><feMerge><feMergeNode in="blur" /><feMergeNode in="SourceGraphic" /></feMerge></filter></defs><g data-gold-wrap="1" filter="url(#goldGlow)"><path d="m1073.1 185.29h-946.22c-7.9688 0-14.391 6.4688-14.391 14.391v800.63c0 7.9688 6.4219 14.391 14.391 14.391h946.22c7.9688 0 14.391-6.4688 14.391-14.391v-800.63c0-7.9688-6.4219-14.391-14.391-14.391zm-14.391 800.63h-917.44v-771.84h917.39v771.84zm-882.42-20.578h847.45c7.9688 0 14.391-6.4688 14.391-14.391v-701.9c0-7.9688-6.4219-14.391-14.391-14.391h-847.5c-7.9688 0-14.391 6.4688-14.391 14.391v701.9c0 7.9688 6.4219 14.391 14.391 14.391zm14.391-701.9h818.68v673.08l-818.68 0.046875zm759 45.234-699.37 0.046875c-7.9688 0-14.391 6.4688-14.391 14.391v553.78c0 7.9688 6.4219 14.391 14.391 14.391h699.37c7.9688 0 14.391-6.4688 14.391-14.391v-553.78c0-7.9688-6.4219-14.391-14.391-14.391zm-603.71 553.78c-0.14062-17.578-0.23438-31.922-0.375-46.266-0.14062-18-0.32812-36.047-0.46875-60.469-0.14062-19.078-0.46875-77.062 8.4375-101.11 2.3438-6.375 5.4375-12.703 8.7188-19.406 6.8906-14.156 14.062-28.828 15.328-46.031 0.89062-12.375-1.4531-23.812-3.6562-34.875-1.7344-8.625-3.375-16.734-3.2812-24.469 0.32812-25.875 10.078-54.75 23.625-54.797h0.09375c13.172 0 13.734 4.5 14.766 12.609 0.375 2.9062 0.60938 6.1406 0.84375 9.4688 1.3125 17.906 3.1406 42.469 23.531 59.016 13.219 10.734 16.266 29.297 16.781 53.906 0.28125 14.016-0.60938 26.719-1.5 39-1.5938 22.5-3.1406 43.781 2.9531 68.062 1.5 5.8594 6.4688 10.172 12.516 10.828 30.188 3.1875 51.609-31.266 54.281-49.781 1.5469-10.688 5.1562-17.766 9.7031-19.031 2.9531-0.79688 6.1406 0.79688 7.0312 1.875 7.9688 9.8438 0.09375 39.844-3.7031 54.281-1.6875 6.4688-3 11.531-3.5156 15.609-5.2969 42.75 9.9375 70.219 26.109 99.328 5.6719 10.219 11.484 20.672 16.594 32.203h-224.81zm589.31 0h-333.52c-6.75-17.672-14.953-32.766-22.359-46.219-15-27.047-26.859-48.375-22.734-81.797 0.28125-2.1562 1.5469-7.125 2.8125-11.906 6.0938-23.344 15.328-58.547-1.7812-79.688-8.4375-10.453-23.672-15.188-37.031-11.484-9.4688 2.625-26.062 11.625-30.562 42.656-0.84375 5.7188-6.5625 15.516-13.031 21.094-1.5938-14.297-0.60938-28.359 0.51562-43.969 0.9375-12.938 1.875-26.344 1.5938-41.672-0.60938-28.219-4.3125-56.953-27.422-75.656-10.734-8.7188-11.859-24-12.984-38.766-0.28125-3.8906-0.5625-7.5469-0.98438-10.922-3.1406-25.078-17.719-37.828-43.312-37.828h-0.14062c-35.297 0.046875-51.891 43.172-52.406 83.25-0.14062 10.781 1.875 20.812 3.8438 30.516 1.9219 9.6094 3.75 18.656 3.1875 27.047-0.89062 11.672-6.5156 23.25-12.516 35.531-3.4219 7.0312-6.9844 14.297-9.8438 22.031-9.5156 25.688-10.5 72.984-10.219 111.33 0.1875 24.469 0.32812 42.516 0.46875 60.562 0.14062 14.25 0.23438 28.547 0.375 45.984h-52.453v-525h670.55v525zm-20.578-120.56v47.297c0 7.9688-6.4219 14.391-14.391 14.391s-14.391-6.4688-14.391-14.391v-47.297c0-7.9688 6.4219-14.391 14.391-14.391s14.391 6.4688 14.391 14.391zm-427.08-308.44c3.1406-7.3125 11.625-10.641 18.938-7.5 43.5 18.797 111.19 17.203 160.97-3.7969 26.062-10.969 52.734-8.4844 75.141 6.9375 24.469 16.875 40.219 47.578 39.234 76.453-2.25 65.719-44.766 79.5-80.016 79.5-24.891 0-43.875-7.0312-56.344-20.859-11.438-12.656-16.312-30.281-14.156-50.906 2.1094-20.062 15.234-36 33.469-40.641 10.266-2.625 36.938-4.8281 61.875 31.312 4.5 6.5625 2.8594 15.516-3.6562 20.016-6.5625 4.5469-15.516 2.8594-20.016-3.6562-10.172-14.719-21.844-22.078-31.031-19.734-6.4219 1.6406-11.109 7.8281-11.953 15.75-1.3125 12.469 1.0312 22.078 6.8906 28.641 8.4375 9.375 23.672 11.344 34.922 11.344 35.109 0 49.969-15 51.234-51.703 0.65625-19.125-10.359-40.406-26.766-51.75-9.9375-6.8438-26.25-13.125-47.625-4.125-57.234 24.094-132.74 25.641-183.56 3.6562-7.3125-3.1406-10.688-11.625-7.5-18.938zm277.6 163.18c65.672-40.688 133.18-28.734 136.03-28.219 7.8281 1.4531 12.984 8.9531 11.531 16.781s-8.9062 12.984-16.781 11.531c-0.5625-0.09375-59.672-10.219-115.59 24.375-20.016 12.422-49.312 21.891-78.703 21.891-27.703 0-55.5-8.4375-75.844-30.797-5.3438-5.8594-4.9219-15 0.9375-20.344s15-4.9219 20.344 0.9375c30.516 33.562 88.5 22.078 118.08 3.7969z" fill="url(#goldGradient)" />
</g></svg>