<?xml version='1.0' encoding='utf-8'?>
<svg xmlns="http://www.w3.org/2000/svg" width="1200pt" height="1200pt" version="1.1" viewBox="0 0 1200 1200">
 <defs><linearGradient id="goldGradient" x1="0%" y1="0%" x2="0%" y2="100%"><stop offset="0%" stop-color="#fff4cc" /><stop offset="38%" stop-color="#ffd86a" /><stop offset="62%" stop-color="#e0b23e" /><stop offset="100%" stop-color="#8d6e1e" /></linearGradient><filter id="goldGlow" x="-40%" y="-40%" width="180%" height="180%"><feGaussianBlur in="SourceAlpha" stdDeviation="1.8" result="blur" /><feMerge><feMergeNode in="blur" /><feMergeNode in="SourceGraphic" /></feMerge></filter></defs><g data-gold-wrap="1" filter="url(#goldGlow)"><path d="m753.6 631.2h4.8008c2.3984 0 4.8008 0 7.1992-1.1992 3.6016-1.1992 7.1992-4.8008 13.199-9.6016l33.602-38.398 19.199-21.602 19.199 78v1.1992 1.1992 1.1992c0 1.1992 0 1.1992 1.1992 2.3984v2.3984c0 1.1992 0 2.3984 1.1992 3.6016 0 1.1992 1.1992 1.1992 1.1992 2.3984 2.3984 2.3984 4.8008 6 9.6016 7.1992l75.602 28.801-57.602 31.207-9.6016 4.8008c-14.398 8.3984-16.801 15.602-16.801 21.602-1.1992 1.1992-1.1992 3.6016-1.1992 4.8008 0 9.6016-3.6016 78-3.6016 78s-4.8008-4.8008-12-10.801c-15.602-13.199-40.801-34.801-46.801-40.801l-4.8008-4.8008c-2.3984-1.1992-7.1992-3.6016-15.602-3.6016-8.3984 1.1992-82.801 22.801-82.801 22.801l32.398-76.801c4.8008-12-2.3984-22.801-14.398-39.602-2.3984-3.6016-31.199-48-32.398-50.398z" fill="url(#goldGradient)" />
 <path d="m417.6 908.4c10.801 1.1992 15.602-2.3984 18-6 6-6 6-14.398 1.1992-22.801l-43.199-74.398 32.398-73.199 2.3984-6c2.3984-4.8008 4.8008-12-1.1992-19.199-2.3984-1.1992-3.6016-2.3984-6-4.8008 0 0-1.1992 0-2.3984-1.1992-4.8008-2.3984-10.801-1.1992-14.398 0-8.3984 2.3984-82.801 20.398-82.801 20.398l-1.1992-1.1992c50.398-134.4 157.2-212.4 240-212.4 48 0 102 25.199 150 72-27.602-2.3984-70.801-4.8008-94.801-7.1992-8.3984 0-16.801 3.6016-21.602 10.801-3.6016 6-6 16.801-2.3984 21.602 20.398 32.398 67.199 104.4 67.199 104.4s-38.398 88.801-46.801 111.6c-2.3984 6-1.1992 13.199 3.6016 20.398 6 8.3984 15.602 13.199 22.801 10.801l117.6-31.199 74.398 63.602v7.1992c0 30-9.6016 52.801-30 73.199-42 38.398-141.6 57.602-241.2 57.602-98.398 0-199.2-19.199-241.2-57.602-8.3984-8.3984-14.398-18-19.199-27.602l32.398-38.398z" fill="url(#goldGradient)" />
 <path d="m561.6 456c-80.398 0-145.2-66-145.2-146.4-0.003906-80.402 63.598-145.2 145.2-145.2 81.602 0 146.4 66 146.4 146.4-1.1992 80.402-66 145.2-146.4 145.2z" fill="url(#goldGradient)" />
 <path d="m265.2 900s-8.3984-40.801-10.801-48l-1.1992-3.6016c-1.1992-1.1992-2.3984-4.8008-7.1992-8.3984-2.3984-1.1992-18-7.1992-31.199-13.199-10.801-3.6016-19.199-7.1992-19.199-7.1992l21.602-13.199 22.801-13.199c7.1992-4.8008 7.1992-12 8.3984-25.199 0-2.3984 3.6016-38.398 3.6016-38.398l38.398 33.602s1.1992 1.1992 2.3984 1.1992c2.3984 1.1992 6 2.3984 14.398 1.1992l49.199-9.6016-20.398 46.801v1.1992 1.1992c0 1.1992 0 1.1992-1.1992 1.1992v2.3984c0 1.1992-1.1992 2.3984-1.1992 3.6016 0 2.3984 0 4.8008 2.3984 7.1992l26.398 43.199-48-6c-9.6016-1.1992-14.398 1.1992-16.801 4.8008-1.1992 0-2.3984 1.1992-2.3984 2.3984-1.1992 2.3984-9.6016 12-18 21.602-6 6-12 14.398-12 14.398z" fill="url(#goldGradient)" />
</g></svg>