<?xml version='1.0' encoding='utf-8'?>
<svg xmlns="http://www.w3.org/2000/svg" width="1200pt" height="1200pt" version="1.1" viewBox="0 0 1200 1200">
 <defs><linearGradient id="goldGradient" x1="0%" y1="0%" x2="0%" y2="100%"><stop offset="0%" stop-color="#fff4cc" /><stop offset="38%" stop-color="#ffd86a" /><stop offset="62%" stop-color="#e0b23e" /><stop offset="100%" stop-color="#8d6e1e" /></linearGradient><filter id="goldGlow" x="-40%" y="-40%" width="180%" height="180%"><feGaussianBlur in="SourceAlpha" stdDeviation="1.8" result="blur" /><feMerge><feMergeNode in="blur" /><feMergeNode in="SourceGraphic" /></feMerge></filter></defs><g data-gold-wrap="1" filter="url(#goldGlow)"><path d="m460.6 752.06c3.8906 2.0156 5.7188 6.5156 4.3594 10.688-3.1406 10.359-3.9375 21.281-2.4375 32.016 0.89062 6.2344 4.2188 11.859 9.3281 15.562 10.688 7.9219 11.391 12.703 8.3906 37.219h-0.046875c-0.65625 6.2812 1.125 12.562 4.9688 17.531 10.547 14.344 11.859 31.641 3.6562 52.172h231.56c3.0469-83.812-3.0938-148.82-21.375-188.16h-0.046875c-2.8594-6.0469-2.1562-13.172 1.875-18.516 6.6094-8.7656 8.0625-20.391 3.7969-30.562l-4.6406-11.062c-2.0156-5.0156-7.4531-7.7344-12.656-6.375-84.188 21.938-142.03 73.266-221.72 42.469v0.046875c-3-1.1719-6.375-0.9375-9.2344 0.60938-2.8125 1.5938-4.7812 4.3125-5.3906 7.5l-2.5781 14.016v0.046875c-1.8281 10.031 3.1406 20.109 12.188 24.797zm216.84 34.969c0.14062 0.60938 0.23438 1.2188 0.23438 1.8281-0.09375 2.8594-1.6875 5.4844-4.2188 6.8438-11.297 5.9531-36.281 25.172-40.547 80.062-0.28125 4.3125-3.8906 7.5938-8.2031 7.4531h-0.09375c-2.0156-0.09375-3.8906-0.98438-5.25-2.4844s-2.0625-3.4688-1.9219-5.4844c4.6406-61.922 33.797-85.219 48.75-93.188 2.1094-1.125 4.6406-1.2188 6.7969-0.23438 2.2031 0.9375 3.8438 2.8594 4.4531 5.2031zm-19.125-86.672h-0.046875c1.8281-1.0312 3.9844-1.2656 6-0.65625s3.6562 2.0156 4.6406 3.8906c0.5625 1.0781 0.84375 2.2969 0.84375 3.5156 0 2.8125-1.5469 5.4375-4.0312 6.7969-51.844 29.766-83.391 86.906-96.188 174.28h-0.046875c-0.51562 4.0312-4.125 6.9844-8.2031 6.7031s-7.2188-3.7031-7.2188-7.7812c0-0.375 0.046875-0.75 0.09375-1.0781 13.547-92.672 47.672-153.52 104.11-185.68zm-154.22 100.55c27.281-14.109 46.828-39.984 54.562-51.469 2.1094-3.2344 6.375-4.2188 9.7031-2.25h0.09375-0.046875c1.9219 1.125 3.3281 2.9531 3.8438 5.1562 0.51562 2.1562 0.09375 4.4531-1.125 6.2812-15.141 23.016-35.531 42.094-59.438 55.734-2.0156 1.0781-4.3594 1.2188-6.4688 0.46875-2.1562-0.75-3.8906-2.3438-4.7812-4.4062-1.5-3.6562 0.09375-7.8281 3.6562-9.5156z" fill="url(#goldGradient)" />
 <path d="m470.16 535.18c3.2812 6.3281 10.5 9.6562 17.484 8.0156 8.9062-2.0625 17.625-4.9688 25.969-8.6719 7.6406-3.2812 11.25-12.094 8.1562-19.828l-14.062-35.672c-0.75-1.9219-0.75-4.0781 0.09375-5.9531 0.79688-1.875 2.3438-3.375 4.2656-4.125s4.0312-0.70312 5.9531 0.09375c1.875 0.84375 3.375 2.3906 4.125 4.2656l14.062 35.625h-0.046875c6.0938 15.234-0.75 32.531-15.562 39.516-2.5781 1.1719-5.2969 2.2969-8.1562 3.375l9.5156 29.062c-15.891 32.953-45.422 52.172-55.266 104.48l0.046875 0.046875c2.0156 0.28125 3.9844 0.84375 5.8594 1.5938 48.234 18.609 87.047 2.8125 136.26-17.203h0.046875c22.547-9.6562 45.656-17.906 69.188-24.703-3.0938-16.266-8.0156-32.062-14.625-47.25 6.7969-21.984 11.625-44.531 14.484-67.359 14.625-21.609 17.203-49.219 6.8438-73.172l19.828-14.016c2.625-20.391 1.7812-39.375-8.2031-54.75-28.172-2.2969-56.531 0.14062-83.906 7.2188v-17.766c-10.594-0.89062-20.906-4.0312-30.234-9.1875-1.7812-0.98438-3.1406-2.6719-3.6562-4.6875-0.5625-2.0156-0.28125-4.125 0.75-5.9062 1.0312-1.8281 2.7656-3.0938 4.7812-3.6094s4.125-0.23438 5.9062 0.84375c7.3594 4.2188 23.016 10.312 48.516 6.375 6.9375-1.125 12.281-6.7031 13.031-13.688 0.60938-5.9062 0.70312-11.812 0.23438-17.719l11.062-6.1406c1.9688-1.0781 3.375-2.9531 3.8438-5.1562s-0.046875-4.5-1.4062-6.3281c-5.4375-7.9219-8.9062-17.062-10.078-26.625-1.5469-8.1562-2.1562-16.453-1.875-24.75 1.2188-40.219-80.531-54.047-112.03-20.719-23.859-7.4531-45.188-7.9219-55.266 22.781-8.2031 29.391 10.172 39.234 34.406 41.156 3.5625 16.5 23.25 19.828 23.719 43.641v0.046875c1.7344 20.578-9.9844 39.984-29.062 48-41.625 16.688-67.828 36.281-64.406 73.641 2.7656 22.641 9.3281 44.672 19.406 65.203zm123.32-1.2656c8.1094-10.688 11.016-24.469 7.875-37.5-0.84375-3.7969 1.2656-7.5938 4.9219-8.8594 2.0625-0.75 4.4062-0.5625 6.3281 0.51562 1.9688 1.0312 3.3281 2.9062 3.8438 5.0625 4.0781 17.484 0.1875 35.859-10.688 50.156-11.766 14.906-29.344 24.141-48.328 25.406-3.7031 0.32812-7.1719-1.9688-8.25-5.5781v-0.046875c-0.65625-2.25-0.23438-4.6406 1.125-6.5625s3.5156-3.0938 5.8125-3.2812c14.625-0.84375 28.172-7.875 37.359-19.312zm-55.031-227.34c-1.7344-3.9375 0.046875-8.5312 3.9375-10.266 1.0312-0.46875 3.7031-1.6406 4.4531-7.3125 0.98438-7.7812 7.7812-13.5 15.609-13.078 8.4375-0.375 15.938-5.3906 19.453-12.984 3.3281-5.7656 10.031-8.625 16.5-7.125 8.0625 2.4844 16.875 0.75 23.391-4.6875 2.9062-3.0938 7.7812-3.2344 10.922-0.32813 3.0938 2.9062 3.2812 7.8281 0.375 10.922-10.312 9.5625-24.844 13.031-38.344 9.1875-6 12.703-18.891 20.719-32.953 20.484-0.42188 8.3438-5.4844 15.703-13.078 19.078-1.875 0.84375-4.0312 0.89062-5.9531 0.1875-1.9219-0.75-3.4688-2.2031-4.3125-4.0781z" fill="url(#goldGradient)" />
 <path d="m732.42 936.66h-264.84c-11.438 0-20.672 9.2344-20.672 20.672s9.2344 20.672 20.672 20.672h264.84c11.438 0 20.672-9.2344 20.672-20.672s-9.2344-20.672-20.672-20.672z" fill="url(#goldGradient)" />
</g></svg>