<?xml version='1.0' encoding='utf-8'?>
<svg xmlns="http://www.w3.org/2000/svg" width="1200pt" height="1200pt" version="1.1" viewBox="0 0 1200 1200">
 <defs><linearGradient id="goldGradient" x1="0%" y1="0%" x2="0%" y2="100%"><stop offset="0%" stop-color="#fff4cc" /><stop offset="38%" stop-color="#ffd86a" /><stop offset="62%" stop-color="#e0b23e" /><stop offset="100%" stop-color="#8d6e1e" /></linearGradient><filter id="goldGlow" x="-40%" y="-40%" width="180%" height="180%"><feGaussianBlur in="SourceAlpha" stdDeviation="1.8" result="blur" /><feMerge><feMergeNode in="blur" /><feMergeNode in="SourceGraphic" /></feMerge></filter></defs><g data-gold-wrap="1" filter="url(#goldGlow)"><path d="m297.71 433.75v83.129c45.91 0 83.129 37.219 83.129 83.129s-37.219 83.129-83.129 83.129v83.129h400.53v-332.52zm430.76 0v332.52h173.81v-83.129c-45.91 0-83.129-37.219-83.129-83.129s37.219-83.129 83.129-83.129v-83.129zm-188.93 60.457 28.34 70.375 77.461 4.7227-59.75 48.176 19.363 73.211-65.418-40.621-65.418 40.621 19.363-73.211-59.75-48.176 77.461-4.7227 28.34-70.375z" fill="url(#goldGradient)" />
</g></svg>