<?xml version='1.0' encoding='utf-8'?>
<svg xmlns="http://www.w3.org/2000/svg" width="1200pt" height="1200pt" version="1.1" viewBox="0 0 1200 1200">
 <defs><linearGradient id="goldGradient" x1="0%" y1="0%" x2="0%" y2="100%"><stop offset="0%" stop-color="#fff4cc" /><stop offset="38%" stop-color="#ffd86a" /><stop offset="62%" stop-color="#e0b23e" /><stop offset="100%" stop-color="#8d6e1e" /></linearGradient><filter id="goldGlow" x="-40%" y="-40%" width="180%" height="180%"><feGaussianBlur in="SourceAlpha" stdDeviation="1.8" result="blur" /><feMerge><feMergeNode in="blur" /><feMergeNode in="SourceGraphic" /></feMerge></filter></defs><g data-gold-wrap="1" filter="url(#goldGlow)"><path d="m108.73 344.64c-34.238 23.305-43.105 69.957-19.82 104.2l134.76 198.02-89.645-319.43z" fill="url(#goldGradient)" />
 <path d="m542.76 49.293-53.758 36.582 135.71-38.082c-24.449-15.281-56.586-15.77-81.953 1.5z" fill="url(#goldGradient)" />
 <path d="m657.24 1150.7 53.758-36.582-135.71 38.082c24.449 15.281 56.586 15.77 81.953-1.5z" fill="url(#goldGradient)" />
 <path d="m1091.3 855.36c34.238-23.305 43.105-69.957 19.82-104.2l-134.76-198.02 89.645 319.45z" fill="url(#goldGradient)" />
 <path d="m163.59 294.02 61.406 218.79v-313.91l-9.4492 2.6445c-39.883 11.195-63.133 52.594-51.957 92.477z" fill="url(#goldGradient)" />
 <path d="m721.03 59.699-54.508 15.301h123.56c-18.391-15.73-44.004-22.312-69.055-15.301z" fill="url(#goldGradient)" />
 <path d="m478.97 1140.3 54.508-15.301h-123.56c18.391 15.73 44.004 22.312 69.055 15.301z" fill="url(#goldGradient)" />
 <path d="m975 1001.1 9.4492-2.6445c39.883-11.195 63.133-52.594 51.957-92.477l-61.406-218.81z" fill="url(#goldGradient)" />
 <path d="m262.5 187.5v825c0 41.418 33.582 75 75 75h525c41.418 0 75-33.582 75-75v-825c0-41.418-33.582-75-75-75h-525c-41.418 0-75 33.582-75 75zm93.75 843.75h-37.5v-37.5h37.5zm487.5-862.5h37.5v37.5h-37.5zm0 825h37.5v37.5h-37.5zm-243.75-600c107.59 0 195.82 82.387 205.31 187.5h-132.94c-8.4375-32.25-37.5-56.25-72.375-56.25s-63.938 24-72.375 56.25h-132.94c9.4883-105.11 97.727-187.5 205.31-187.5zm37.5 206.25c0 20.625-16.875 37.5-37.5 37.5s-37.5-16.875-37.5-37.5 16.875-37.5 37.5-37.5 37.5 16.875 37.5 37.5zm-109.88 18.75c8.4375 32.25 37.5 56.25 72.375 56.25s63.938-24 72.375-56.25h132.94c-9.4883 105.11-97.727 187.5-205.31 187.5s-195.82-82.387-205.31-187.5zm-171.38-412.5h-37.5v-37.5h37.5z" fill="url(#goldGradient)" />
</g></svg>