<?xml version='1.0' encoding='utf-8'?>
<svg xmlns="http://www.w3.org/2000/svg" width="1200pt" height="1200pt" version="1.1" viewBox="0 0 1200 1200">
 <defs><linearGradient id="goldGradient" x1="0%" y1="0%" x2="0%" y2="100%"><stop offset="0%" stop-color="#fff4cc" /><stop offset="38%" stop-color="#ffd86a" /><stop offset="62%" stop-color="#e0b23e" /><stop offset="100%" stop-color="#8d6e1e" /></linearGradient><filter id="goldGlow" x="-40%" y="-40%" width="180%" height="180%"><feGaussianBlur in="SourceAlpha" stdDeviation="1.8" result="blur" /><feMerge><feMergeNode in="blur" /><feMergeNode in="SourceGraphic" /></feMerge></filter></defs><g data-gold-wrap="1" filter="url(#goldGlow)"><path d="m757.2 529.2 45.602 18-105.6 268.8h188.4v-432h-109.2l-116.4 296.4-44.398-16.797 109.2-279.6h-409.2v432h330z" fill="url(#goldGradient)" />
 <path d="m963.6 249.6h-727.2l-225.6 64.801v572.4l226.8 63.602h726l226.8-63.602v-572.4zm-726 374.4h-60v72h-48v-72h-60v-48h60v-72h48v72h60zm696 240h-666v-528h666zm134.4-360c19.199 0 33.602 15.602 33.602 33.602 0 19.199-15.602 33.602-33.602 33.602s-33.602-15.602-33.602-33.602 14.402-33.602 33.602-33.602zm-62.398 129.6c-19.199 0-33.602-15.602-33.602-33.602s15.602-33.602 33.602-33.602 33.602 15.602 33.602 33.602c-0.003906 18-14.402 33.602-33.602 33.602zm62.398 62.398c-19.199 0-33.602-15.602-33.602-33.602s15.602-33.602 33.602-33.602 33.602 15.602 33.602 33.602-14.402 33.602-33.602 33.602zm62.398-62.398c-19.199 0-33.602-15.602-33.602-33.602s15.602-33.602 33.602-33.602 33.602 14.398 33.602 33.602c0 19.199-15.602 33.602-33.602 33.602z" fill="url(#goldGradient)" />
</g></svg>