<?xml version='1.0' encoding='utf-8'?>
<svg xmlns="http://www.w3.org/2000/svg" width="1200pt" height="1200pt" version="1.1" viewBox="0 0 1200 1200">
 <defs><linearGradient id="goldGradient" x1="0%" y1="0%" x2="0%" y2="100%"><stop offset="0%" stop-color="#fff4cc" /><stop offset="38%" stop-color="#ffd86a" /><stop offset="62%" stop-color="#e0b23e" /><stop offset="100%" stop-color="#8d6e1e" /></linearGradient><filter id="goldGlow" x="-40%" y="-40%" width="180%" height="180%"><feGaussianBlur in="SourceAlpha" stdDeviation="1.8" result="blur" /><feMerge><feMergeNode in="blur" /><feMergeNode in="SourceGraphic" /></feMerge></filter></defs><g data-gold-wrap="1" filter="url(#goldGlow)"><path d="m1015.7 37.5c39.422 0 71.766 32.344 71.766 71.766v981.47c0 39.422-32.344 71.766-71.766 71.766h-831.47c-39.422 0-71.766-32.344-71.766-71.766v-981.47c0-39.422 32.344-71.766 71.766-71.766zm0 37.5h-831.47c-19.312 0-34.266 14.953-34.266 34.266v981.47c0 19.312 14.953 34.266 34.266 34.266h831.42c19.312 0 34.266-14.953 34.266-34.266l0.046875-981.47c0-19.312-14.953-34.266-34.266-34.266z" fill="url(#goldGradient)" />
 <path d="m253.13 131.26c0 25.875-21 46.875-46.875 46.875v843.74c25.875 0 46.875 21 46.875 46.875h693.74c0-12.422 4.9219-24.375 13.734-33.141 8.7656-8.8125 20.719-13.734 33.141-13.734v-843.74c-12.422 0-24.375-4.9219-33.141-13.734-8.8125-8.7656-13.734-20.719-13.734-33.141zm196.74 95.578c3.5156 0 6.9844 1.3594 9.6562 4.0312l44.531 44.531c5.3438 5.3438 5.3438 13.969 0 19.312l-44.531 44.531c-5.3438 5.3438-13.969 5.3438-19.359 0l-44.484-44.531c-5.3438-5.3438-5.3438-13.969 0-19.312l44.531-44.531c2.6719-2.6719 6.1875-4.0312 9.6562-4.0312zm312.74 21.984h49.875c1.4531 0 2.8125 0.5625 3.8438 1.5938 0.98438 0.98438 1.5938 2.3906 1.5469 3.7969v6.75l3.8906 7.7812c1.4531 2.8594 2.2031 6.0469 2.2031 9.2812v2.2969c0 3.2344-0.75 6.4219-2.2031 9.2812l-3.8906 7.7812v60.703h-60.703v-60.703l-3.8906-7.7812c-1.4062-2.8594-2.2031-6.0469-2.2031-9.2812v-2.2969c0-3.2344 0.79688-6.4219 2.2031-9.2812l3.8906-7.7812v-6.75c0-1.4062 0.5625-2.8125 1.5938-3.7969 1.0312-1.0312 2.3906-1.5938 3.8438-1.5938zm-402.61 108.05v-0.046876c2.4844 0.23438 4.875 0.98438 7.0781 2.1562l22.875 12.094 9.75-8.7188 25.031 27.984-19.5 17.438c-5.8594 5.2031-14.297 6.1875-21.234 2.5312l-23.156-12.141-11.391 9.7969-24.469-28.406 21.094-18.188c3.8438-3.3281 8.8594-4.9688 13.922-4.5469zm179.81 0v-0.046876c5.0156-0.375 10.031 1.2656 13.828 4.5469l21.094 18.188-24.469 28.406-11.438-9.7969-23.109 12.141c-6.9375 3.6562-15.422 2.6719-21.281-2.5312l-19.453-17.438 24.984-27.984 9.7969 8.7188 22.875-12.094c2.2031-1.1719 4.6406-1.9219 7.1719-2.1562zm216.14 39.188 63.422-0.046876c1.3125 14.578 4.1719 28.969 8.625 42.938l35.672 106.22c12.75 37.969 19.359 77.719 19.547 117.75l1.1719 237c0.09375 10.734-7.0781 20.203-17.438 23.156l-23.953 6.75c-36.375 10.219-74.953 10.219-111.33 0l-23.953-6.75c-10.312-2.9062-17.484-12.375-17.391-23.156l1.1719-237c0.1875-40.031 6.75-79.828 19.5-117.75l35.625-106.22c4.6875-13.922 7.7812-28.312 9.2812-42.938zm-437.34 128.95h112.5c10.359 0 18.75 8.3906 18.75 18.75 0 10.359-8.3906 18.75-18.75 18.75h-112.5c-10.359 0-18.75-8.3906-18.75-18.75 0-4.9688 1.9688-9.75 5.4844-13.266 3.5156-3.5156 8.2969-5.4844 13.266-5.4844zm225 0h37.5c10.359 0 18.75 8.3906 18.75 18.75 0 10.359-8.3906 18.75-18.75 18.75h-37.5c-10.359 0-18.75-8.3906-18.75-18.75 0-4.9688 1.9688-9.75 5.4844-13.266 3.5156-3.5156 8.2969-5.4844 13.266-5.4844zm-225 112.5h75c4.9688 0 9.75 1.9688 13.266 5.4844 3.5156 3.5156 5.4844 8.2969 5.4844 13.266 0 10.359-8.3906 18.75-18.75 18.75h-75c-10.359 0-18.75-8.3906-18.75-18.75 0-4.9688 1.9688-9.75 5.4844-13.266 3.5156-3.5156 8.2969-5.4844 13.266-5.4844zm225 0h37.5c10.359 0 18.75 8.3906 18.75 18.75 0 10.359-8.3906 18.75-18.75 18.75h-37.5c-10.359 0-18.75-8.3906-18.75-18.75 0-4.9688 1.9688-9.75 5.4844-13.266 3.5156-3.5156 8.2969-5.4844 13.266-5.4844zm-225 112.5h112.5c10.359 0 18.75 8.3906 18.75 18.75 0 10.359-8.3906 18.75-18.75 18.75h-112.5c-10.359 0-18.75-8.3906-18.75-18.75 0-4.9688 1.9688-9.75 5.4844-13.266 3.5156-3.5156 8.2969-5.4844 13.266-5.4844zm225 0h37.5c10.359 0 18.75 8.3906 18.75 18.75 0 10.359-8.3906 18.75-18.75 18.75h-37.5c-10.359 0-18.75-8.3906-18.75-18.75 0-4.9688 1.9688-9.75 5.4844-13.266 3.5156-3.5156 8.2969-5.4844 13.266-5.4844zm-225 112.5h150c10.359 0 18.75 8.3906 18.75 18.75 0 4.9688-1.9688 9.75-5.4844 13.266-3.5156 3.5156-8.2969 5.4844-13.266 5.4844h-150c-4.9688 0-9.75-1.9688-13.266-5.4844-3.5156-3.5156-5.4844-8.2969-5.4844-13.266 0-10.359 8.3906-18.75 18.75-18.75zm225 0h37.5c10.359 0 18.75 8.3906 18.75 18.75 0 10.359-8.3906 18.75-18.75 18.75h-37.5c-4.9688 0-9.75-1.9688-13.266-5.4844-3.5156-3.5156-5.4844-8.2969-5.4844-13.266 0-10.359 8.3906-18.75 18.75-18.75z" fill="url(#goldGradient)" />
</g></svg>