<?xml version='1.0' encoding='utf-8'?>
<svg xmlns="http://www.w3.org/2000/svg" width="1200pt" height="1200pt" version="1.1" viewBox="0 0 1200 1200">
 <defs><linearGradient id="goldGradient" x1="0%" y1="0%" x2="0%" y2="100%"><stop offset="0%" stop-color="#fff4cc" /><stop offset="38%" stop-color="#ffd86a" /><stop offset="62%" stop-color="#e0b23e" /><stop offset="100%" stop-color="#8d6e1e" /></linearGradient><filter id="goldGlow" x="-40%" y="-40%" width="180%" height="180%"><feGaussianBlur in="SourceAlpha" stdDeviation="1.8" result="blur" /><feMerge><feMergeNode in="blur" /><feMergeNode in="SourceGraphic" /></feMerge></filter></defs><g data-gold-wrap="1" filter="url(#goldGlow)"><path d="m510.59 925.02v114.18h178.83v-114.18zm104.16 67.863h-29.484c-5.9648 0-10.805-4.8398-10.805-10.805s4.8398-10.805 10.805-10.805h29.484c5.9648 0 10.805 4.8398 10.805 10.805s-4.8398 10.805-10.805 10.805z" fill="url(#goldGradient)" />
 <path d="m698.82 444.02c-29.508-18.809-63.68-28.746-98.824-28.746s-69.316 9.9375-98.789 28.734c-53.824 34.102-85.934 92.414-85.934 155.99s32.109 121.89 85.898 155.98c29.508 18.809 63.68 28.746 98.824 28.746s69.316-9.9375 98.789-28.734c53.824-34.102 85.934-92.414 85.934-155.99s-32.109-121.89-85.898-155.98zm-88.02 155.98c0 3-1.2539 5.8711-3.457 7.9219-2.0039 1.8516-4.6289 2.8828-7.3477 2.8828-0.26953 0-0.53906-0.011719-0.80859-0.035157l-117.9-8.8477c-5.9531-0.44531-10.406-5.625-9.9609-11.578 0.44531-5.9414 5.3906-10.441 11.578-9.9609l106.29 7.9805v-75.539c0-5.9648 4.8398-10.805 10.805-10.805s10.805 4.8398 10.805 10.805z" fill="url(#goldGradient)" />
 <path d="m499.55 296.59h-20.441v76.711c4.8164-2.582 9.7188-4.9922 14.676-7.2539 1.5508-0.70703 3.1406-1.3125 4.707-1.9883 3.6406-1.5742 7.2891-3.1133 10.996-4.5156 2.0469-0.77344 4.125-1.457 6.1914-2.1758 3.3008-1.1523 6.6094-2.2695 9.9531-3.2852 2.2109-0.67188 4.4375-1.2812 6.668-1.8906 3.2852-0.89844 6.582-1.7383 9.9062-2.5039 2.2539-0.51953 4.5078-1.0195 6.7773-1.4805 3.418-0.69141 6.8594-1.2891 10.309-1.8438 2.1797-0.34766 4.3477-0.71875 6.5391-1.0117 3.793-0.50781 7.6133-0.87891 11.438-1.2188 1.8633-0.16406 3.7109-0.39062 5.5781-0.51562 5.6914-0.38281 11.41-0.60938 17.152-0.60938s11.461 0.22656 17.16 0.60547c1.8672 0.125 3.7188 0.35156 5.5781 0.51562 3.8242 0.33984 7.6406 0.71094 11.438 1.2188 2.1875 0.29297 4.3594 0.66406 6.5391 1.0117 3.4531 0.55469 6.8945 1.1523 10.316 1.8438 2.2656 0.46094 4.5117 0.95703 6.7617 1.4766 3.3281 0.76953 6.6328 1.6094 9.9219 2.5078 2.2266 0.60938 4.4492 1.2227 6.6562 1.8906 3.3477 1.0156 6.6562 2.1328 9.9609 3.2852 2.0664 0.72266 4.1445 1.4023 6.1914 2.1758 3.6836 1.3906 7.3086 2.9258 10.926 4.4883 1.5938 0.6875 3.2148 1.3047 4.7969 2.0273 4.9492 2.2578 9.8359 4.6641 14.645 7.2422v-76.711h-20.441c-0.082031 0-0.14844 0.046874-0.23047 0.046874h-200.44c-0.082031 0.003907-0.14844-0.042968-0.23047-0.042968z" fill="url(#goldGradient)" />
 <path d="m835.38 600c0-81.004-40.918-155.29-109.45-198.74-0.015625-0.011719-0.035156-0.011719-0.054688-0.023438-14.09-8.9844-29.012-16.383-44.527-22.117-14.395-5.3203-29.316-9.1133-44.523-11.52-6.6562-1.0508-13.348-1.918-20.105-2.3945-5.5508-0.39062-11.129-0.58984-16.727-0.58984-44.789 0-88.312 12.656-125.88 36.621-68.578 43.453-109.5 117.75-109.5 198.76 0 81.004 40.914 155.29 109.45 198.73 0.015625 0.011719 0.039062 0.015625 0.054688 0.027344 14.09 8.9883 29.016 16.383 44.531 22.117 20.141 7.4453 41.281 12.035 62.863 13.727 6.1328 0.48047 12.293 0.77734 18.488 0.77734 44.789 0 88.312-12.656 125.88-36.621 68.578-43.453 109.5-117.75 109.5-198.76zm-235.38 206.33c-39.27 0-77.449-11.109-110.41-32.133-60.047-38.051-95.918-103.18-95.918-174.2s35.871-136.15 95.953-174.21c32.93-21.012 71.109-32.121 110.38-32.121s77.449 11.109 110.41 32.133c60.047 38.051 95.918 103.18 95.918 174.2s-35.871 136.15-95.953 174.21c-32.93 21.012-71.109 32.121-110.38 32.121z" fill="url(#goldGradient)" />
 <path d="m700.45 903.41h20.441v-76.711c-4.8164 2.582-9.7188 4.9922-14.676 7.2539-1.5469 0.70703-3.1367 1.3086-4.6953 1.9844-3.6445 1.5781-7.3008 3.1211-11.012 4.5234-2.043 0.77344-4.1172 1.4531-6.1797 2.1719-3.3008 1.1523-6.6133 2.2695-9.957 3.2852-2.2109 0.67188-4.4375 1.2812-6.668 1.8906-3.2852 0.89844-6.582 1.7383-9.9062 2.5039-2.2539 0.51953-4.5078 1.0195-6.7773 1.4805-3.418 0.69141-6.8594 1.2891-10.309 1.8438-2.1758 0.34766-4.3477 0.71875-6.5352 1.0117-3.7969 0.50781-7.6133 0.87891-11.441 1.2188-1.8594 0.16406-3.7109 0.39062-5.5781 0.51562-5.6953 0.38281-11.414 0.60938-17.156 0.60938s-11.461-0.22656-17.16-0.60547c-1.8672-0.125-3.7188-0.35156-5.582-0.51562-3.8242-0.33984-7.6406-0.71094-11.434-1.2188-2.1914-0.29297-4.3594-0.66406-6.5391-1.0117-3.4531-0.55469-6.8945-1.1523-10.316-1.8438-2.2617-0.45703-4.5117-0.95703-6.7578-1.4766-3.3281-0.76953-6.6328-1.6094-9.9258-2.5117-2.2266-0.60938-4.4453-1.2188-6.6523-1.8906-3.3438-1.0156-6.6523-2.1328-9.9531-3.2852-2.0703-0.72266-4.1484-1.4062-6.2031-2.1797-3.6758-1.3906-7.3008-2.9219-10.914-4.4844-1.5977-0.69141-3.2227-1.3086-4.8086-2.0312-4.9492-2.2578-9.8359-4.6641-14.645-7.2422v76.711h20.441c0.082031 0 0.14844-0.046875 0.23047-0.046875h200.44c0.082031 0.003906 0.14844 0.050781 0.23047 0.050781z" fill="url(#goldGradient)" />
 <path d="m510.59 160.8h178.83v114.18h-178.83z" fill="url(#goldGradient)" />
</g></svg>